<svg xmlns="http://www.w3.org/2000/svg" xmlns:xlink="http://www.w3.org/1999/xlink" width="1000" height="283.9" viewBox="40 139.3 1000 283.9"><defs><path id="a" d="M219.9 202.9c-.6-3.5-3.9-5.8-7.4-5.3-1.3.2-2.6.8-3.5 1.8L175.4 233l-26.3-50.2c-1.6-3.2-5.5-4.4-8.7-2.7-1.1.6-2.1 1.6-2.7 2.7l-14.4 27.4-36.1-67.4c-1.6-3.1-5.6-4.4-8.7-2.6-1.8 1-3.1 2.7-3.4 4.7L40 368.4l93.4 52.4c5.8 3.2 13.1 3.2 18.9 0l94.2-52.4-26.6-165.5z"/></defs><clipPath id="b"><use xlink:href="#a" overflow="visible"/></clipPath><g clip-path="url(#b)"><path fill="#FFA000" d="M40 368.4l35-223.6c.5-3.5 3.9-6 7.4-5.3 1.9.3 3.7 1.6 4.7 3.4l36.1 67.4 14.4-27.4c1.6-3.2 5.5-4.4 8.7-2.7 1.1.6 2.1 1.6 2.7 2.7l97.4 185.5H40z"/><linearGradient id="c" gradientUnits="userSpaceOnUse" x1="71.549" y1="407.577" x2="61.44" y2="402.295" gradientTransform="translate(-11.064 -228.453) scale(1.2766)"><stop offset="0" stop-color="#a52714"/><stop offset=".4" stop-color="#a52714" stop-opacity=".5"/><stop offset=".8" stop-color="#a52714" stop-opacity="0"/></linearGradient><path opacity=".12" fill="url(#c)" d="M159.4 140.9l-171-14.5v309.7L40 368.4l119.4-227.5z"/><path fill="#F57C00" d="M160.9 281.3l-37.6-71.1L40 368.4l120.9-87.1z"/><linearGradient id="d" gradientUnits="userSpaceOnUse" x1="114.499" y1="392.882" x2="109.975" y2="388.358" gradientTransform="translate(-11.064 -228.453) scale(1.2766)"><stop offset="0" stop-color="#a52714" stop-opacity=".8"/><stop offset=".5" stop-color="#a52714" stop-opacity=".21"/><stop offset="1" stop-color="#a52714" stop-opacity="0"/></linearGradient><path opacity=".2" fill="url(#d)" d="M-11.6 126.4h309.7v309.7H-11.6V126.4z"/><path fill="#FFCA28" d="M246.5 368.4l-26.8-165.7c-.6-3.5-3.9-5.8-7.4-5.3-1.3.2-2.6.8-3.5 1.8L40 368.4l93.4 52.4c5.8 3.2 13.1 3.2 18.9 0l94.2-52.4z"/><path fill="#FFF" fill-opacity=".2" d="M219.9 202.9c-.6-3.5-3.9-5.8-7.4-5.3-1.3.2-2.6.8-3.5 1.8L175.4 233l-26.3-50.2c-1.6-3.2-5.5-4.4-8.7-2.7-1.1.6-2.1 1.6-2.7 2.7l-14.4 27.4-36.1-67.4c-1.6-3.1-5.6-4.4-8.7-2.6-1.8 1-3.1 2.7-3.4 4.7L40 368.4h-.2l.2.2 1 .5 134.4-134.5L209 201c2.6-2.6 6.6-2.6 9.2 0 1 1 1.6 2.1 1.8 3.5l26.5 164.1.3-.2-26.9-165.5zM40.4 368.1L75 146.4c.5-3.5 3.9-6 7.4-5.3 1.9.3 3.7 1.6 4.7 3.4l36.1 67.4 14.4-27.4c1.6-3.2 5.5-4.4 8.7-2.7 1.1.6 2.1 1.6 2.7 2.7l25.8 49L40.4 368.1z"/><path opacity=".2" fill="#A52714" d="M152.3 419.2c-5.8 3.2-13.1 3.2-18.9 0l-93.2-52.3-.2 1.5 93.4 52.4c5.8 3.2 13.1 3.2 18.9 0l94.2-52.4-.2-1.5-94 52.3z"/><linearGradient id="e" gradientUnits="userSpaceOnUse" x1="-581.839" y1="-804.795" x2="-518.568" y2="-868.065" gradientTransform="matrix(3.4085 0 0 -3.4085 2017.679 -2553.858)"><stop offset="0" stop-color="#fff" stop-opacity=".1"/><stop offset="1" stop-color="#fff" stop-opacity="0"/></linearGradient><path fill="url(#e)" d="M219.9 202.9c-.6-3.5-3.9-5.8-7.4-5.3-1.3.2-2.6.8-3.5 1.8L175.4 233l-26.3-50.2c-1.6-3.2-5.5-4.4-8.7-2.7-1.1.6-2.1 1.6-2.7 2.7l-14.4 27.4-36.1-67.4c-1.6-3.1-5.6-4.4-8.7-2.6-1.8 1-3.1 2.7-3.4 4.7L40 368.4l93.4 52.4c5.8 3.2 13.1 3.2 18.9 0l94.2-52.4-26.6-165.5z"/></g><path d="M349.8 361.9h-19V214.2H417v18.2h-67.3V281h60.8v17.7h-60.7v63.2zm100-126.4c-2.6 2.6-5.8 3.9-9.5 3.9s-6.9-1.3-9.5-3.9c-2.6-2.6-3.9-5.8-3.9-9.5s1.3-6.9 3.9-9.5c2.6-2.6 5.8-3.9 9.5-3.9s6.9 1.3 9.5 3.9c2.6 2.6 3.9 5.8 3.9 9.5s-1.3 6.7-3.9 9.5zm0 126.4h-19V260.8h19v101.1zm39.7 0h-19V260.8h18.2v16.5h.8c1.9-5.5 5.8-10 11.9-13.6 6-3.5 11.8-5.3 17.4-5.3s10.3.8 14.2 2.4l-7.3 17.7c-2.4-1-5.8-1.5-10.2-1.5-6.9 0-12.9 2.7-18.2 8.2-5.3 5.5-7.9 12.6-7.9 21.3v55.4zm89.3 3.4c-15.3 0-27.7-5.2-37.3-15.3s-14.4-23.1-14.4-38.6c0-14.7 4.7-27.4 13.9-38.1 9.4-10.6 21.1-16 35.7-16 15 0 26.9 4.8 36 14.7 9 9.8 13.6 22.9 13.6 39.2l-.2 3.5h-79.9c.5 10.2 4 18.2 10.2 24.2 6.3 6 13.6 8.9 21.9 8.9 13.6 0 22.9-5.8 27.7-17.4l16.9 7.1c-3.2 7.9-8.7 14.4-16.3 19.7-7.4 5.4-16.8 8.1-27.8 8.1zm27.3-66.1c-.5-5.8-3.1-11.3-7.9-16.5-4.8-5.2-12.1-7.9-21.8-7.9-7.1 0-13.1 2.3-18.2 6.6-5.2 4.4-8.7 10.3-10.6 17.7l58.5.1zm87 66.1c-7.7 0-14.7-1.6-20.8-5-6.1-3.2-10.6-7.4-13.7-12.4h-.8v14h-18.2V214.2h19v46.6l-.8 14h.8c3.1-5 7.6-9 13.7-12.4 6.1-3.2 13.1-5 20.8-5 13.1 0 24.4 5.2 33.9 15.5s14.2 23.1 14.2 38.4c0 15.3-4.7 28.1-14.2 38.4-9.6 10.5-20.9 15.6-33.9 15.6zm-3.3-17.4c8.9 0 16.5-3.4 22.7-10 6.3-6.6 9.5-15.5 9.5-26.5s-3.2-19.8-9.5-26.5c-6.3-6.6-13.9-10-22.7-10-8.9 0-16.6 3.2-22.7 9.8s-9.4 15.5-9.4 26.6c0 11.1 3.1 20 9.4 26.6 6.3 6.8 13.9 10 22.7 10zm98.6 17.4c-10.8 0-19.7-3.1-26.9-9.4-7.3-6.1-10.8-14.4-10.8-24.5 0-11 4.2-19.7 12.7-26 8.5-6.3 19-9.4 31.6-9.4 11.1 0 20.3 2.1 27.4 6.1v-2.9c0-7.4-2.6-13.4-7.6-17.9-5.2-4.5-11.3-6.8-18.7-6.8-5.5 0-10.5 1.3-15 3.9s-7.6 6.1-9.2 10.8l-17.4-7.4c2.4-6.1 6.9-11.6 13.9-16.8 6.9-5.2 16-7.7 27.3-7.7 12.9 0 23.7 3.7 32.3 11.3 8.5 7.6 12.7 18.2 12.7 31.9v61.3h-18.2v-14h-.8c-7.7 11.7-18.8 17.5-33.3 17.5zm3.1-17.4c7.9 0 15-2.9 21.3-8.7 6.5-5.8 9.7-12.7 9.7-20.8-5.3-4.4-13.4-6.6-24.2-6.6-9.2 0-16.1 1.9-20.8 6s-7.1 8.7-7.1 14c0 5 2.1 8.9 6.5 11.8 4.2 2.9 9.1 4.3 14.6 4.3zm101.9 17.4c-11.3 0-20.6-2.7-27.9-8.2-7.4-5.5-12.7-12.4-16.1-20.6l16.9-7.1c5.3 12.7 14.5 19 27.4 19 6 0 10.8-1.3 14.5-3.9 3.7-2.6 5.6-6.1 5.6-10.3 0-6.6-4.7-11.1-13.9-13.4l-20.5-5c-6.5-1.6-12.6-4.8-18.4-9.4-5.8-4.7-8.7-10.8-8.7-18.7 0-8.9 4-16.1 11.9-21.8 7.9-5.6 17.3-8.4 28.2-8.4 8.9 0 16.9 2.1 23.9 6.1 7.1 4 12.1 9.8 15 17.4l-16.5 6.8c-3.7-8.9-11.5-13.4-23.1-13.4-5.6 0-10.3 1.1-14.2 3.5-3.9 2.4-5.8 5.5-5.8 9.5 0 5.8 4.5 9.7 13.4 11.8l20 4.7c9.5 2.3 16.5 6 21.1 11.3 4.5 5.3 6.8 11.5 6.8 18.2 0 9-3.7 16.6-11.1 22.7s-16.7 9.2-28.5 9.2zm99.2 0c-15.3 0-27.7-5.2-37.3-15.3-9.5-10.2-14.4-23.1-14.4-38.6 0-14.7 4.7-27.4 13.9-38.1 9.4-10.6 21.1-16 35.7-16 15 0 26.9 4.8 36 14.7 9 9.8 13.6 22.9 13.6 39.2l-.2 3.5H960c.5 10.2 4 18.2 10.2 24.2 6.3 6 13.6 8.9 21.9 8.9 13.6 0 22.9-5.8 27.7-17.4l16.9 7.1c-3.2 7.9-8.7 14.4-16.3 19.7-7.5 5.4-16.8 8.1-27.8 8.1zm27.3-66.1c-.5-5.8-3.1-11.3-7.9-16.5s-12.1-7.9-21.8-7.9c-7.1 0-13.1 2.3-18.2 6.6-5.2 4.4-8.7 10.3-10.6 17.7l58.5.1z" opacity=".54"/></svg>