<svg xmlns="http://www.w3.org/2000/svg" width="960" height="960" viewBox="0 0 960 960"><path fill="#362701" d="M575.3 416c-21 0-36.7 10.3-36.7 35.2 0 18.7 10.3 31.8 35.6 31.8 21.4 0 36-12.6 36-32.5 0-22.6-13-34.5-34.9-34.5zm-42.1 175.6c-5 6.1-9.9 12.6-9.9 20.3 0 15.3 19.5 19.9 46.3 19.9 22.2 0 52.4-1.6 52.4-22.2 0-12.3-14.5-13-32.9-14.2l-55.9-3.8zm113.3-174.4c6.9 8.8 14.2 21 14.2 38.6 0 42.5-33.3 67.3-81.5 67.3-12.3 0-23.4-1.5-30.2-3.4L536.3 540l37.5 2.3c66.2 4.2 105.2 6.1 105.2 57 0 44-38.6 68.9-105.2 68.9-69.2 0-95.6-17.6-95.6-47.8 0-17.2 7.7-26.4 21-39-12.6-5.3-16.8-14.9-16.8-25.2 0-8.4 4.2-16.1 11.1-23.3 6.9-7.3 14.5-14.5 23.7-23-18.7-9.2-32.9-29.1-32.9-57.4 0-44 29.1-74.2 87.6-74.2 16.5 0 26.4 1.5 35.2 3.8h74.6v32.5l-35.2 2.6m102.6-69.6c-21.8 0-34.4-12.6-34.4-34.5 0-21.8 12.6-33.7 34.4-33.7 22.2 0 34.8 11.9 34.8 33.7 0 21.9-12.7 34.5-34.8 34.5zm-49.4 230v-30.2l19.5-2.7c5.4-.8 6.1-1.9 6.1-7.7V424.5c0-4.2-1.1-6.9-5-8l-20.7-7.3 4.2-31H783V537c0 6.1.4 6.9 6.1 7.7l19.5 2.7v30.2H699.7M960 562.7c-16.5 8-40.6 15.3-62.4 15.3-45.5 0-62.7-18.3-62.7-61.6V416.2c0-2.3 0-3.8-3.1-3.8H805v-34.1c33.7-3.8 47.1-20.7 51.3-62.4h36.4v54.3c0 2.7 0 3.8 3.1 3.8h53.9v38.3h-57v91.4c0 22.6 5.4 31.4 26 31.4 10.7 0 21.8-2.7 31-6.1l10.3 33.7"/><path fill="#F03C2E" d="M393.1 462.3l-175-174.9c-10.1-10.1-26.4-10.1-36.5 0l-36.3 36.3 46.1 46.1c10.7-3.6 23-1.2 31.5 7.3 8.6 8.6 11 21 7.3 31.7l44.4 44.4c10.7-3.7 23.1-1.3 31.7 7.3 12 12 12 31.4 0 43.4s-31.4 12-43.4 0c-9-9-11.3-22.3-6.7-33.4l-41.4-41.4v109c2.9 1.4 5.7 3.4 8.1 5.8 12 12 12 31.4 0 43.4s-31.4 12-43.4 0-12-31.4 0-43.4c3-3 6.4-5.2 10.1-6.7v-110c-3.7-1.5-7.1-3.7-10.1-6.7-9.1-9.1-11.3-22.4-6.6-33.6l-45.4-45.4-119.9 120c-10.1 10.1-10.1 26.4 0 36.5l174.9 174.9c10.1 10.1 26.4 10.1 36.5 0l174.1-174.1c10.1-10 10.1-26.4 0-36.5"/></svg>
