<svg xmlns="http://www.w3.org/2000/svg" viewBox="0 0 54.48 67.06"><defs><style>.cls-1{fill:none;stroke:#4520ab;stroke-linecap:round;stroke-linejoin:round;stroke-width:1.48px;}</style></defs><title>Ресурс 1</title><g id="Слой_2" data-name="Слой 2"><g id="Layer_1" data-name="Layer 1"><rect class="cls-1" x="4.19" y="11.64" width="36.96" height="26.74"/><polyline class="cls-1" points="20.01 38.38 20.01 41.96 45.41 41.96 45.41 15.05 41.63 15.05"/><polyline class="cls-1" points="45.89 18.46 53.64 18.46 48.6 32.01 53.74 45.2 35.48 45.2 35.48 41.91"/><line class="cls-1" x1="4.19" y1="8.27" x2="4.19" y2="66.32"/><path class="cls-1" d="M7.73,4.23A3.5,3.5,0,1,1,4.23.74,3.5,3.5,0,0,1,7.73,4.23Z"/><line class="cls-1" x1="25.52" y1="17.29" x2="19.52" y2="32.44"/><polyline class="cls-1" points="27.27 20.62 32.97 24.94 27.06 29.42"/><polyline class="cls-1" points="17.56 20.62 11.86 24.94 17.77 29.42"/></g></g></svg>