<svg xmlns="http://www.w3.org/2000/svg" viewBox="0 0 48.56 41.59"><defs><style>.cls-1{fill:#4520ab;}</style></defs><title>Ресурс 4</title><g id="Слой_2" data-name="Слой 2"><g id="Layer_1" data-name="Layer 1"><path class="cls-1" d="M44.85,5.2H33.63L32.36,3l-.12-.23C31.56,1.53,30.72,0,28.74,0H19.83c-2.08,0-3,1.72-3.62,3L14.94,5.2H3.72A3.72,3.72,0,0,0,0,8.91v29a3.72,3.72,0,0,0,3.72,3.71H44.85a3.71,3.71,0,0,0,3.71-3.71v-29A3.72,3.72,0,0,0,44.85,5.2ZM17.53,3.65c.7-1.34,1.21-2.16,2.3-2.16h8.91c1.05,0,1.49.71,2.19,2l1,1.73H16.65Zm-13.81,3H44.85a2.23,2.23,0,0,1,2.23,2.22V23.77A2.23,2.23,0,0,1,44.85,26H30.22V21.54H18.34V26H3.72a2.23,2.23,0,0,1-2.23-2.23V8.91A2.23,2.23,0,0,1,3.72,6.69ZM28.74,23V29H19.83V23ZM44.85,40.11H3.72a2.23,2.23,0,0,1-2.23-2.23V26.72a3.68,3.68,0,0,0,2.23.76H18.34v3H30.22v-3H44.85a3.68,3.68,0,0,0,2.23-.76V37.88A2.23,2.23,0,0,1,44.85,40.11Z"/></g></g></svg>