<svg xmlns="http://www.w3.org/2000/svg" viewBox="0 0 46.2 49.93"><defs><style>.cls-1{fill:#4520ab;stroke:#4520ab;stroke-miterlimit:10;stroke-width:0.5px;}</style></defs><title>Ресурс 5</title><g id="Слой_2" data-name="Слой 2"><g id="Layer_1" data-name="Layer 1"><path class="cls-1" d="M27.3,32.42V27.64C30,25.7,32.35,22.07,34.21,18l.08,0C40.72,18,46,10.23,46,.72a.47.47,0,0,0-.47-.47H.72A.47.47,0,0,0,.25.72C.25,10.23,5.48,18,11.91,18L12,18c1.87,4.12,4.24,7.75,6.92,9.69v4.78a.47.47,0,0,0,.47.47H21c-2.31,9.51-6.54,15.85-9.12,15.85a.47.47,0,1,0,0,.94H34.29a.47.47,0,0,0,0-.94c-2.59,0-6.82-6.34-9.12-15.85h1.66A.47.47,0,0,0,27.3,32.42ZM34.63,17A47.24,47.24,0,0,0,38.48,1.18H45C44.84,9.79,40.28,16.74,34.63,17ZM1.2,1.18H7.72A47.29,47.29,0,0,0,11.57,17C5.91,16.74,1.36,9.79,1.2,1.18ZM26.36,27.4V32H24.58a.48.48,0,0,0-.37.17.47.47,0,0,0-.08.4c1.75,7.61,4.92,13.92,7.88,16.21H14.18c3-2.29,6.13-8.6,7.89-16.21a.48.48,0,0,0-.09-.4.46.46,0,0,0-.36-.17H19.83V27.4a.46.46,0,0,0-.2-.38C13.49,22.78,8.84,8.68,8.65,1.18h28.9c-.19,7.5-4.84,21.6-11,25.84A.48.48,0,0,0,26.36,27.4Z" transform="translate(0)"/></g></g></svg>