<svg xmlns="http://www.w3.org/2000/svg" viewBox="0 0 45.92 38.34"><defs><style>.cls-1{fill:#4520ab;}</style></defs><title>Ресурс 2</title><g id="Слой_2" data-name="Слой 2"><g id="Layer_1" data-name="Layer 1"><path class="cls-1" d="M42.35,4.29H21.1a2.35,2.35,0,0,1-1.82-1.65A3.76,3.76,0,0,0,16.09,0H3.58A3.58,3.58,0,0,0,0,3.58V34.76a3.58,3.58,0,0,0,3.58,3.58H42.35a3.58,3.58,0,0,0,3.57-3.58V7.87A3.58,3.58,0,0,0,42.35,4.29ZM3.58,1.43H16.09a2.35,2.35,0,0,1,1.83,1.66A3.75,3.75,0,0,0,21.1,5.72H42.35a2.15,2.15,0,0,1,2.14,2.15h-23a4.65,4.65,0,0,0-2.95,1.22l-.84.84a3.3,3.3,0,0,1-1.93.8H1.43V3.58A2.15,2.15,0,0,1,3.58,1.43ZM42.35,36.91H3.58a2.15,2.15,0,0,1-2.15-2.15V12.16H15.74a4.65,4.65,0,0,0,3-1.22l.83-.84a3.35,3.35,0,0,1,1.94-.8h23V34.76A2.14,2.14,0,0,1,42.35,36.91Z"/><path class="cls-1" d="M18.78,29.17a6.1,6.1,0,0,0,3,.86c2.37,0,3.11-1.51,3.08-2.64,0-1.91-1.74-2.73-3.52-2.73h-1V23.28h1c1.34,0,3-.7,3-2.31,0-1.09-.69-2.06-2.39-2.06a5,5,0,0,0-2.73.9l-.48-1.34a6.52,6.52,0,0,1,3.57-1c2.68,0,3.9,1.6,3.9,3.25a3.38,3.38,0,0,1-2.52,3.21v.05a3.54,3.54,0,0,1,3,3.5c0,2.18-1.7,4.09-5,4.09a6.92,6.92,0,0,1-3.54-.92Z"/></g></g></svg>