<svg xmlns="http://www.w3.org/2000/svg" viewBox="0 0 53.11 56.95"><defs><style>.cls-1{fill:#4520ab;}.cls-2{fill:none;stroke:#4520ab;stroke-linecap:round;stroke-linejoin:round;stroke-width:1.48px;}</style></defs><title>Ресурс 6</title><g id="Слой_2" data-name="Слой 2"><g id="Layer_1" data-name="Layer 1"><path class="cls-1" d="M32.5,49.74l-.71.17,1.15.68.29.17a6.08,6.08,0,0,1,.64.39.59.59,0,0,1,.22.25c0,.07,0,.19-.12.34a.74.74,0,0,1-.32.16h-.08a1.29,1.29,0,0,1-.43-.19c-.32-.18-.64-.36-1-.55-.54-.32-1.07-.63-1.62-.93a.85.85,0,0,1-.37-.38.65.65,0,0,1,.11-.46c.22-.35.42-.71.62-1,.32-.55.63-1.08.95-1.6a1,1,0,0,1,.26-.25.37.37,0,0,1,.18,0l.21,0a.38.38,0,0,1,.22.23.47.47,0,0,1-.09.35L31.56,49l.63-.13.44-.1A18.37,18.37,0,0,0,46.34,35.09l0-.16a1.66,1.66,0,0,0,.06-.21c.08-.4.12-.54.28-.61a.42.42,0,0,1,.48.13.44.44,0,0,1,.1.33A19.58,19.58,0,0,1,32.5,49.74Z"/><path class="cls-1" d="M28.7,7,28,8c-.38.49-.76,1-1.16,1.46a.71.71,0,0,1-.28.21.7.7,0,0,1-.14,0,.63.63,0,0,1-.25-.07.35.35,0,0,1-.19-.26A.44.44,0,0,1,26.07,9l1.34-1.76-.64,0a3.44,3.44,0,0,0-.45,0,18.39,18.39,0,0,0-15.4,11.73l-.07.15a1.67,1.67,0,0,0-.08.2c-.13.39-.19.52-.36.56l-.11,0v.3l0-.3a.44.44,0,0,1-.32-.18.46.46,0,0,1-.06-.36A19.58,19.58,0,0,1,26.59,6.37l.72-.07-1-.83L26,5.25a5.81,5.81,0,0,1-.56-.45.73.73,0,0,1-.19-.28c0-.07,0-.2.17-.31a.58.58,0,0,1,.35-.13,1.08,1.08,0,0,1,.47.25c.28.23.57.45.86.67l1.48,1.15a.64.64,0,0,1,.31.42C28.88,6.65,28.87,6.79,28.7,7Z"/><path class="cls-2" d="M52.06,22.48c-1-2.45-3.24-3.46-5.54-4.19-1.64-.52-2.2-1.24-2-2.56A2.15,2.15,0,0,1,45,15c.09-.12.19-.24.27-.37A8.68,8.68,0,0,0,46.5,12a1.81,1.81,0,0,0,1-1A5.69,5.69,0,0,0,48,8.58,1.73,1.73,0,0,0,47.29,7a5.34,5.34,0,0,0-.76-3.54,6.62,6.62,0,0,0-10.74,0A5.31,5.31,0,0,0,35,7a1.71,1.71,0,0,0-.76,1.55A5.72,5.72,0,0,0,34.8,11a1.79,1.79,0,0,0,1,1,8.91,8.91,0,0,0,1.26,2.64l.27.37a2.09,2.09,0,0,1,.45.74c.2,1.32-.36,2-2,2.56-2,.64-4.62,1.89-5.54,4.19a6.88,6.88,0,0,0-.3,2.68v.24c0,.11,0,.26,0,.4a1.9,1.9,0,0,0,1,1.65l.09.06a11.47,11.47,0,0,0,1.22.77,19.36,19.36,0,0,0,8.76,2,21.64,21.64,0,0,0,5.8-.78,11.48,11.48,0,0,0,4.49-2l0,0a1.9,1.9,0,0,0,1-1.64v-.68A6.56,6.56,0,0,0,52.06,22.48Z"/><path class="cls-2" d="M22.85,48.42c-1-2.45-3.24-3.46-5.54-4.19-1.64-.52-2.2-1.24-2-2.56a2,2,0,0,1,.44-.74c.09-.13.19-.25.27-.37a8.73,8.73,0,0,0,1.26-2.65,1.78,1.78,0,0,0,1-1,5.65,5.65,0,0,0,.51-2.43A1.71,1.71,0,0,0,18.08,33a5.37,5.37,0,0,0-.76-3.55A6.32,6.32,0,0,0,12,26.68a6.34,6.34,0,0,0-5.38,2.74A5.34,5.34,0,0,0,5.83,33a1.69,1.69,0,0,0-.75,1.54,5.65,5.65,0,0,0,.51,2.43,1.76,1.76,0,0,0,1,1,9,9,0,0,0,1.26,2.65l.27.37a2.15,2.15,0,0,1,.45.73c.2,1.33-.36,2.05-2,2.57-2,.63-4.63,1.88-5.55,4.19a6.85,6.85,0,0,0-.3,2.67v.25c0,.11,0,.26,0,.39a1.9,1.9,0,0,0,1,1.65l.09.07a11.41,11.41,0,0,0,1.22.76,19.24,19.24,0,0,0,8.76,2,21.25,21.25,0,0,0,5.8-.79,11.34,11.34,0,0,0,4.49-2l.05,0a1.91,1.91,0,0,0,1-1.64v-.68A6.55,6.55,0,0,0,22.85,48.42Z"/></g></g></svg>