<?xml version="1.0" encoding="utf-8"?>
<!-- Generator: Adobe Illustrator 22.0.1, SVG Export Plug-In . SVG Version: 6.00 Build 0)  -->
<svg version="1.1" id="Layer_1" xmlns="http://www.w3.org/2000/svg" xmlns:xlink="http://www.w3.org/1999/xlink" x="0px" y="0px"
	 viewBox="0 0 24 24" style="enable-background:new 0 0 24 24;" xml:space="preserve">
<style type="text/css">
	.st0{fill:#D10012;}
	.st1{fill:#7599AB;}
</style>
<g>
	<path class="st0" d="M11.2,4.4c0,0.9,0.3,1.8,0.8,2.5c0.6-0.7,0.9-1.7,0.9-2.7c0-0.9-0.3-1.8-0.8-2.5C11.5,2.5,11.2,3.4,11.2,4.4z"
		/>
	<path class="st0" d="M17,6.5c-0.7,0.6-1.2,1.4-1.4,2.3c1,0,1.9-0.4,2.7-1.1c0.7-0.6,1.2-1.4,1.4-2.3C18.7,5.5,17.8,5.8,17,6.5z"/>
	<path class="st0" d="M19.1,12.4c-0.9-0.2-1.8,0-2.6,0.3c0.6,0.7,1.5,1.2,2.5,1.4c0.9,0.2,1.8,0,2.6-0.3
		C21,13.1,20.1,12.5,19.1,12.4z"/>
	<path class="st0" d="M15.7,17.6c-0.4-0.9-1.1-1.5-1.9-1.9c-0.2,0.9-0.1,1.9,0.4,2.9c0.4,0.9,1.1,1.5,1.9,1.9
		C16.3,19.6,16.2,18.6,15.7,17.6z"/>
	<path class="st0" d="M9.6,18.4c0.4-0.9,0.4-1.8,0.3-2.7c-0.8,0.5-1.5,1.2-1.9,2.2c-0.4,0.9-0.4,1.8-0.3,2.7
		C8.5,20.1,9.1,19.4,9.6,18.4z"/>
	<path class="st0" d="M5.2,13.9c0.9-0.3,1.7-0.8,2.2-1.5C6.5,12,5.6,12,4.6,12.2c-0.9,0.3-1.7,0.8-2.2,1.5
		C3.2,14.1,4.2,14.2,5.2,13.9z"/>
	<path class="st0" d="M5.9,7.7c0.8,0.6,1.6,0.9,2.5,0.9C8.2,7.7,7.6,6.8,6.8,6.2C6.1,5.6,5.2,5.3,4.3,5.3C4.6,6.2,5.1,7.1,5.9,7.7z"
		/>
	<g>
		<path class="st1" d="M19.7,4.8c0,0,0.1,0,0.1,0c0-0.1,0-0.2,0-0.4C19.9,2,17.9,0,15.5,0c-1.2,0-2.2,0.5-3,1.3c0.6,0.8,1,1.8,1,2.9
			c0,1.2-0.4,2.3-1.1,3.1c0.7,0.7,1.6,1.2,2.6,1.4C15.4,6.5,17.4,4.8,19.7,4.8z"/>
		<path class="st1" d="M22.1,13.5C22.1,13.5,22.1,13.5,22.1,13.5c0.2,0,0.3-0.1,0.4-0.1c1.8-1.5,2.1-4.3,0.6-6.1
			c-0.7-0.9-1.8-1.5-2.8-1.6c-0.2,1-0.8,1.9-1.6,2.6c-0.9,0.8-2,1.1-3.1,1.1c-0.1,1,0,2,0.6,2.9C18.1,11.1,20.6,11.6,22.1,13.5z"/>
		<path class="st1" d="M16.7,20.7c0,0,0,0.1,0,0.1c0.1,0,0.2,0.1,0.4,0.1c2.3,0.6,4.6-0.9,5.2-3.2c0.3-1.1,0.1-2.3-0.5-3.2
			c-0.9,0.4-2,0.5-3,0.3c-1.1-0.3-2.1-0.9-2.7-1.8c-0.9,0.5-1.6,1.2-1.9,2.2C16.1,16.1,17.2,18.4,16.7,20.7z"/>
		<path class="st1" d="M7.8,21.2C7.8,21.2,7.8,21.2,7.8,21.2c-0.1,0.2,0,0.3,0.1,0.4c1.1,2.2,3.7,3,5.8,2c1.1-0.5,1.8-1.4,2.2-2.5
			c-0.9-0.5-1.7-1.2-2.1-2.2c-0.5-1.1-0.6-2.2-0.4-3.3c-0.9-0.4-2-0.4-2.9-0.1C11,17.7,10,20.1,7.8,21.2z"/>
		<path class="st1" d="M2,14.1C2,14.1,2,14.1,2,14.1c-0.2,0.1-0.2,0.2-0.3,0.3c-1,2.1-0.2,4.8,1.9,5.8c1,0.5,2.2,0.6,3.2,0.3
			c-0.2-1,0-2.1,0.4-3c0.5-1.1,1.4-1.8,2.3-2.3c-0.3-1-0.8-1.8-1.7-2.4C6.6,14.6,4.1,15.2,2,14.1z"/>
		<path class="st1" d="M3.7,5.4c0,0,0-0.1,0-0.1c-0.1,0-0.2,0-0.4,0.1C1,5.9-0.4,8.3,0.1,10.6c0.3,1.2,0.9,2.1,1.8,2.7
			c0.6-0.8,1.5-1.3,2.6-1.6c1.1-0.3,2.3-0.1,3.2,0.4c0.6-0.8,0.8-1.8,0.8-2.9C6.3,9.3,4.2,7.7,3.7,5.4z"/>
		<path class="st1" d="M11.7,1.3C11.7,1.3,11.7,1.3,11.7,1.3c0-0.2-0.1-0.2-0.2-0.3C9.7-0.5,7-0.3,5.5,1.5c-0.8,0.9-1.1,2-1,3.1
			c1,0.1,2,0.4,2.8,1.1c0.9,0.8,1.4,1.8,1.6,2.8c1,0,1.9-0.4,2.7-1.1C10.2,5.7,10.2,3.1,11.7,1.3z"/>
	</g>
</g>
</svg>
