<svg xmlns="http://www.w3.org/2000/svg" viewBox="0 0 92.74 95.64"><defs><style>.cls-1{stroke:#000;stroke-width:8.03px;}.cls-2{fill:#336791;}.cls-3,.cls-4{fill:none;stroke-linecap:round;stroke-width:2.68px;}.cls-3,.cls-4,.cls-5,.cls-6{stroke:#fff;}.cls-3{stroke-linejoin:round;}.cls-4{stroke-linejoin:bevel;}.cls-5,.cls-6{fill:#fff;}.cls-5{stroke-width:0.89px;}.cls-6{stroke-width:0.45px;}</style></defs><title>Ресурс 3</title><g id="Слой_2" data-name="Слой 2"><g id="Layer_1" data-name="Layer 1"><g id="Layer_3"><path class="cls-1" d="M69.3,69.62c.61-5.06.42-5.81,4.2-5l1,.09a22,22,0,0,0,8.93-1.5c4.8-2.23,7.65-5.95,2.91-5-10.8,2.23-11.54-1.42-11.54-1.42,11.4-16.93,16.17-38.41,12.06-43.67-11.23-14.34-30.66-7.56-31-7.38l-.11,0A38.38,38.38,0,0,0,48.53,5,17.81,17.81,0,0,0,37.12,8.45s-34.66-14.28-33,18C4.41,33.27,13.9,78.3,25.22,64.7c4.13-5,8.13-9.18,8.13-9.18a10.48,10.48,0,0,0,6.85,1.75l.19-.16A7.51,7.51,0,0,0,40.47,59c-2.91,3.26-2.06,3.83-7.89,5s-2.43,3.38-.17,4c2.74.68,9.09,1.65,13.37-4.35l-.17.69c1.15.91,1.07,6.57,1.23,10.62s.44,7.82,1.26,10,1.8,8,9.46,6.32C64,90,68.85,88,69.3,69.62"/><path class="cls-2" d="M86.3,58.24c-10.8,2.23-11.54-1.43-11.54-1.43,11.4-16.92,16.17-38.4,12.06-43.66-11.23-14.34-30.66-7.56-31-7.38l-.11,0A38.38,38.38,0,0,0,48.53,5,17.81,17.81,0,0,0,37.12,8.45s-34.66-14.28-33,18C4.41,33.27,13.9,78.3,25.21,64.7c4.14-5,8.14-9.18,8.14-9.18a10.48,10.48,0,0,0,6.85,1.75l.19-.16A7.51,7.51,0,0,0,40.47,59c-2.92,3.26-2.06,3.83-7.89,5s-2.43,3.38-.17,4c2.74.68,9.09,1.65,13.37-4.35l-.17.69c1.14.91,2,6,1.81,10.51s-.22,7.7.68,10.15,1.8,8,9.46,6.32C64,90,67.27,86.41,67.74,80.48c.32-4.22,1.06-3.59,1.11-7.36l.6-1.79c.68-5.71.1-7.55,4-6.7l1,.09a21.81,21.81,0,0,0,8.93-1.51c4.8-2.22,7.65-5.94,2.91-5Z"/><path class="cls-3" d="M46.25,61.52c-.3,10.63.07,21.34,1.11,23.94s3.27,7.67,10.93,6c6.4-1.37,8.73-4,9.74-9.88.75-4.32,2.18-16.29,2.37-18.75"/><path class="cls-3" d="M37.06,8.22S2.38-6,4,26.28c.34,6.86,9.83,51.89,21.15,38.29,4.13-5,7.87-8.88,7.87-8.88"/><path class="cls-3" d="M55.8,5.63C54.6,6,75.09-1.86,86.74,13c4.12,5.26-.65,26.74-12.06,43.66"/><path class="cls-4" d="M74.68,56.68s.75,3.66,11.55,1.43c4.73-1,1.88,2.74-2.92,5-3.94,1.83-12.77,2.3-12.91-.23C70,56.33,75,58.31,74.68,56.68c-.32-1.47-2.57-2.91-4.05-6.51C69.33,47,52.85,22.93,75.2,26.51,76,26.34,69.37,5.25,48.45,4.9S28.22,30.62,28.22,30.62"/><path class="cls-3" d="M40.39,58.91c-2.91,3.26-2.06,3.83-7.88,5s-2.44,3.38-.17,3.94c2.74.69,9.08,1.66,13.37-4.34,1.3-1.83,0-4.74-1.8-5.49-.87-.36-2-.81-3.52.86Z"/><path class="cls-3" d="M40.2,58.85c-.29-1.91.63-4.19,1.62-6.86,1.49-4,4.92-8,2.17-20.68-2-9.46-15.76-2-15.77-.69A64.45,64.45,0,0,1,28,43.19c-1.1,7.93,5.05,14.63,12.13,14"/><path class="cls-5" d="M36.94,30.43c-.06.44.8,1.6,1.93,1.76A2.07,2.07,0,0,0,41,31c.06-.44-.8-.92-1.92-1.08s-2.09.07-2.15.51Z"/><path class="cls-6" d="M71.17,29.54c.06.43-.8,1.6-1.92,1.76a2.07,2.07,0,0,1-2.15-1.2c-.06-.43.8-.92,1.93-1.07s2.08.07,2.14.51Z"/><path class="cls-3" d="M75.2,26.51c.18,3.43-.74,5.77-.86,9.43-.17,5.31,2.53,11.39-1.54,17.48"/></g></g></g></svg>