<svg xmlns="http://www.w3.org/2000/svg" xmlns:xlink="http://www.w3.org/1999/xlink" viewBox="0 0 205.38 60.48"><defs><style>.cls-1{fill:none;}.cls-2{clip-path:url(#clip-path);}.cls-3{fill:#ffa000;}.cls-4{opacity:0.12;fill:url(#linear-gradient);}.cls-11,.cls-4,.cls-6,.cls-9{isolation:isolate;}.cls-5{fill:#f57c00;}.cls-6,.cls-9{opacity:0.2;}.cls-6{fill:url(#linear-gradient-2);}.cls-7{fill:#ffca28;}.cls-8{fill:#fff;fill-opacity:0.2;}.cls-9{fill:#a52714;}.cls-10{fill:url(#linear-gradient-3);}.cls-11{opacity:0.54;}</style><clipPath id="clip-path"><path class="cls-1" d="M45.21,14.94a1.29,1.29,0,0,0-1.45-1,1.17,1.17,0,0,0-.68.36l-6.56,6.56L31.38,11a1.23,1.23,0,0,0-1.7-.52,1.3,1.3,0,0,0-.52.52l-2.82,5.35-7-13.16a1.23,1.23,0,0,0-1.69-.51,1.28,1.28,0,0,0-.67.92L10.08,47.26,28.32,57.49a3.84,3.84,0,0,0,3.69,0L50.4,47.26,45.21,14.94Z"/></clipPath><linearGradient id="linear-gradient" x1="-1240.88" y1="7421.6" x2="-1242.85" y2="7422.63" gradientTransform="matrix(1.28, 0, 0, -1.28, 1602.05, 9506.72)" gradientUnits="userSpaceOnUse"><stop offset="0" stop-color="#a52714"/><stop offset="0.4" stop-color="#a52714" stop-opacity="0.5"/><stop offset="0.8" stop-color="#a52714" stop-opacity="0"/></linearGradient><linearGradient id="linear-gradient-2" x1="-1232.49" y1="7424.47" x2="-1233.38" y2="7425.35" gradientTransform="matrix(1.28, 0, 0, -1.28, 1602.05, 9506.72)" gradientUnits="userSpaceOnUse"><stop offset="0" stop-color="#a52714" stop-opacity="0.8"/><stop offset="0.5" stop-color="#a52714" stop-opacity="0.21"/><stop offset="1" stop-color="#a52714" stop-opacity="0"/></linearGradient><linearGradient id="linear-gradient-3" x1="-649.03" y1="2990.75" x2="-636.67" y2="3003.1" gradientTransform="translate(2221.2 -10181.68) scale(3.41)" gradientUnits="userSpaceOnUse"><stop offset="0" stop-color="#fff" stop-opacity="0.1"/><stop offset="1" stop-color="#fff" stop-opacity="0"/></linearGradient></defs><title>Ресурс 4</title><g id="Слой_2" data-name="Слой 2"><g id="Layer_1" data-name="Layer 1"><g class="cls-2"><path class="cls-3" d="M10.08,47.26,16.91,3.59a1.23,1.23,0,0,1,1.45-1,1.3,1.3,0,0,1,.91.66l7.05,13.16L29.14,11a1.23,1.23,0,0,1,1.7-.52,1.3,1.3,0,0,1,.52.52l19,36.23Z"/><path class="cls-4" d="M33.39,2.83,0,0V60.48L10.08,47.26Z"/><path class="cls-5" d="M33.69,30.25,26.34,16.36,10.08,47.26Z"/><path class="cls-6" d="M0,0H60.48V60.48H0Z"/><path class="cls-7" d="M50.4,47.26,45.17,14.9a1.27,1.27,0,0,0-1.45-1,1.1,1.1,0,0,0-.68.35l-33,33L28.32,57.49a3.84,3.84,0,0,0,3.69,0L50.4,47.26Z"/><path class="cls-8" d="M45.21,14.94a1.29,1.29,0,0,0-1.45-1,1.17,1.17,0,0,0-.68.36l-6.56,6.56L31.38,11a1.23,1.23,0,0,0-1.7-.52,1.3,1.3,0,0,0-.52.52l-2.82,5.35-7-13.16a1.23,1.23,0,0,0-1.69-.51,1.28,1.28,0,0,0-.67.92L10.08,47.26h0l0,0,.19.1L36.52,21.13l6.56-6.56a1.25,1.25,0,0,1,1.8,0,1.18,1.18,0,0,1,.35.68L50.4,47.3l.06,0L45.21,14.94ZM10.15,47.2,16.91,3.91a1.23,1.23,0,0,1,1.45-1,1.3,1.3,0,0,1,.91.66L26.32,16.7l2.82-5.35a1.23,1.23,0,0,1,1.7-.53,1.33,1.33,0,0,1,.52.53l5,9.56Z"/><path class="cls-9" d="M32,57.18a3.89,3.89,0,0,1-3.69,0L10.12,47l0,.29L28.32,57.49a3.84,3.84,0,0,0,3.69,0L50.4,47.26l0-.29Z"/><path class="cls-10" d="M45.21,14.94a1.29,1.29,0,0,0-1.45-1,1.17,1.17,0,0,0-.68.36l-6.56,6.56L31.38,11a1.23,1.23,0,0,0-1.7-.52,1.3,1.3,0,0,0-.52.52l-2.82,5.35-7-13.16a1.23,1.23,0,0,0-1.69-.51,1.28,1.28,0,0,0-.67.92L10.08,47.26,28.32,57.49a3.84,3.84,0,0,0,3.69,0L50.4,47.26,45.21,14.94Z"/></g><path class="cls-11" d="M70.58,46H66.87V17.15H83.7V20.7H70.56v9.49H82.43v3.46H70.58V46ZM90.1,21.31a2.54,2.54,0,0,1-1.85.76,2.6,2.6,0,0,1-2.62-2.62,2.61,2.61,0,0,1,2.62-2.62,2.63,2.63,0,0,1,2.62,2.62A2.62,2.62,0,0,1,90.1,21.31ZM90.1,46H86.39V26.25H90.1Zm7.76,0H94.15V26.25H97.7v3.22h.16a5,5,0,0,1,2.32-2.66,6.77,6.77,0,0,1,3.4-1,7.13,7.13,0,0,1,2.77.47l-1.42,3.45a5.53,5.53,0,0,0-2-.29A4.79,4.79,0,0,0,99.38,31a5.73,5.73,0,0,0-1.54,4.16V46Zm17.44.66a9.63,9.63,0,0,1-7.29-3,10.59,10.59,0,0,1-2.81-7.54,11.09,11.09,0,0,1,2.71-7.44,8.89,8.89,0,0,1,7-3.13,9.07,9.07,0,0,1,7,2.87,11,11,0,0,1,2.65,7.66l0,.68h-15.6a6.78,6.78,0,0,0,2,4.73,6,6,0,0,0,4.28,1.74,5.35,5.35,0,0,0,5.41-3.4l3.3,1.38a8.57,8.57,0,0,1-3.19,3.85,9,9,0,0,1-5.42,1.58Zm5.33-12.9a5.42,5.42,0,0,0-1.55-3.23A5.53,5.53,0,0,0,114.83,29a5.35,5.35,0,0,0-3.56,1.29,6.51,6.51,0,0,0-2.07,3.46l11.43,0Zm17,12.9a8.3,8.3,0,0,1-4.07-1,6.79,6.79,0,0,1-2.67-2.42h-.16V46h-3.55V17.15h3.71v9.1L130.72,29h.16a6.94,6.94,0,0,1,2.67-2.42,8.65,8.65,0,0,1,4.07-1,8.75,8.75,0,0,1,6.62,3,10.65,10.65,0,0,1,2.77,7.5,10.65,10.65,0,0,1-2.77,7.5A8.67,8.67,0,0,1,137.62,46.65ZM137,43.26a5.87,5.87,0,0,0,4.43-2,7.16,7.16,0,0,0,1.86-5.17A7.21,7.21,0,0,0,141.4,31,5.92,5.92,0,0,0,137,29a5.79,5.79,0,0,0-4.43,1.91,7.41,7.41,0,0,0-1.84,5.2,7.21,7.21,0,0,0,1.84,5.19A5.79,5.79,0,0,0,137,43.26Zm19.26,3.39A7.68,7.68,0,0,1,151,44.82,6,6,0,0,1,148.86,40,6,6,0,0,1,151.34,35a10.09,10.09,0,0,1,6.18-1.84,10.89,10.89,0,0,1,5.35,1.19v-.56a4.5,4.5,0,0,0-1.49-3.5,5.33,5.33,0,0,0-3.65-1.33,5.84,5.84,0,0,0-2.93.76,3.83,3.83,0,0,0-1.8,2.11l-3.39-1.44a7.57,7.57,0,0,1,2.71-3.28,8.62,8.62,0,0,1,5.33-1.51A9.2,9.2,0,0,1,164,27.77,7.9,7.9,0,0,1,166.44,34V46h-3.55V43.24h-.16A7.3,7.3,0,0,1,156.23,46.65Zm.6-3.39a6,6,0,0,0,4.16-1.7,5.26,5.26,0,0,0,1.9-4.07,7.38,7.38,0,0,0-4.73-1.28,6,6,0,0,0-4.06,1.17,3.55,3.55,0,0,0-1.39,2.73A2.61,2.61,0,0,0,154,42.42a5,5,0,0,0,2.85.84Zm19.9,3.39a8.77,8.77,0,0,1-5.45-1.6,9.39,9.39,0,0,1-3.14-4l3.3-1.39a5.43,5.43,0,0,0,5.35,3.71,4.79,4.79,0,0,0,2.83-.76,2.39,2.39,0,0,0,1.1-2c0-1.29-.92-2.17-2.72-2.62l-4-1a9.57,9.57,0,0,1-3.6-1.84,4.43,4.43,0,0,1-1.69-3.65A5.06,5.06,0,0,1,171,27.24a9.91,9.91,0,0,1,10.17-.45,6.39,6.39,0,0,1,2.93,3.4l-3.22,1.33c-.72-1.74-2.25-2.62-4.51-2.62a5.16,5.16,0,0,0-2.77.69,2.08,2.08,0,0,0-1.14,1.85c0,1.13.88,1.89,2.62,2.31l3.91.91a7.64,7.64,0,0,1,4.12,2.21,5.38,5.38,0,0,1,1.32,3.55,5.55,5.55,0,0,1-2.16,4.44,8.41,8.41,0,0,1-5.57,1.79Zm19.37,0a9.61,9.61,0,0,1-7.28-3A10.67,10.67,0,0,1,186,36.13a11.09,11.09,0,0,1,2.71-7.44,8.88,8.88,0,0,1,7-3.13,9,9,0,0,1,7,2.87,10.92,10.92,0,0,1,2.66,7.66l0,.68h-15.6a6.78,6.78,0,0,0,2,4.73A6,6,0,0,0,196,43.24a5.35,5.35,0,0,0,5.41-3.4l3.3,1.38a8.57,8.57,0,0,1-3.19,3.85,9,9,0,0,1-5.43,1.58Zm5.34-12.9a5.42,5.42,0,0,0-1.55-3.23A5.55,5.55,0,0,0,195.64,29a5.35,5.35,0,0,0-3.56,1.29A6.51,6.51,0,0,0,190,33.73l11.43,0Z"/></g></g></svg>