<svg xmlns="http://www.w3.org/2000/svg" viewBox="0 0 195.3 65.62"><defs><style>.cls-1{fill:#00d8ff;}.cls-2{fill:#09d9fe;}</style></defs><title>Ресурс 5</title><g id="Слой_2" data-name="Слой 2"><g id="Layer_1" data-name="Layer 1"><circle class="cls-1" cx="36.88" cy="32.75" r="6.59"/><path class="cls-1" d="M36.88,47.85c-9.24,0-17.33-1.09-23.39-3.16a29.68,29.68,0,0,1-9.63-5.16C1.33,37.37,0,35,0,32.75s1.27-4.46,3.66-6.51a28.71,28.71,0,0,1,9.14-4.9c6.58-2.3,15.13-3.56,24.08-3.56a75.67,75.67,0,0,1,23.77,3.49A30.32,30.32,0,0,1,70,26.18c2.48,2.08,3.8,4.35,3.8,6.57,0,4.53-5.35,9.11-14,12C53.69,46.74,45.55,47.85,36.88,47.85Zm0-26.92c-8.48,0-16.88,1.23-23.05,3.38a26,26,0,0,0-8.12,4.32c-1.65,1.42-2.56,2.88-2.56,4.12s1,2.87,2.76,4.39a26.73,26.73,0,0,0,8.6,4.57c5.74,2,13.48,3,22.37,3,8.34,0,16.13-1.06,21.94-3,8.1-2.68,11.8-6.53,11.8-9,0-1.24-1-2.71-2.67-4.14a26.61,26.61,0,0,0-8.33-4.36A72.39,72.39,0,0,0,36.88,20.93Z"/><path class="cls-1" d="M21.92,65.6a7,7,0,0,1-3.52-.86c-3.78-2.18-5.08-8.45-3.5-16.79,1.31-6.83,4.49-14.87,9-22.64h0A75.66,75.66,0,0,1,38.75,6.46,29.72,29.72,0,0,1,47.67.84c3-1.12,5.65-1.12,7.58,0C59.17,3.1,60.47,10,58.65,18.9c-1.3,6.31-4.4,13.92-8.74,21.43-4.61,8-9.6,14.47-14.43,18.69a29.61,29.61,0,0,1-9.29,5.76A12.78,12.78,0,0,1,21.92,65.6Zm4.67-38.72C22.35,34.24,19.22,42.14,18,48.54,17,54.07,17.15,60.38,20,62c2.12,1.22,7.23.06,13.43-5.37,4.58-4,9.34-10.18,13.78-17.89,4.17-7.22,7.15-14.5,8.38-20.48C57,11.1,56.25,5.05,53.68,3.56c-1.08-.62-2.83-.54-4.92.23a27.06,27.06,0,0,0-7.94,5,72.68,72.68,0,0,0-14.23,18Z"/><path class="cls-1" d="M51.83,65.62c-3.57,0-8.1-2.16-12.82-6.21-5.26-4.53-10.64-11.29-15.14-19h0A75.5,75.5,0,0,1,15,18,30,30,0,0,1,14.57,7.5C15.12,4.31,16.43,2,18.35.92,22.28-1.35,28.93,1,35.7,7c4.82,4.27,9.86,10.76,14.19,18.27,4.65,8,7.76,15.58,9,21.83A29.66,29.66,0,0,1,59.23,58c-.6,3.27-2,5.6-3.94,6.73A6.81,6.81,0,0,1,51.83,65.62ZM26.6,38.77c4.27,7.36,9.54,14,14.46,18.25,4.27,3.66,9.84,6.64,12.66,5,2.11-1.22,3.66-6.21,2.06-14.31-1.16-5.91-4.14-13.13-8.61-20.86-4.18-7.23-9-13.44-13.56-17.5C27.23,3.69,22.05,2.43,19.93,3.65c-1.07.62-1.87,2.18-2.25,4.39a26.92,26.92,0,0,0,.4,9.39A72.54,72.54,0,0,0,26.6,38.77Z"/><path class="cls-2" d="M103,48,95.17,35.72H89V48H85.11V17.06H97.55c5.66,0,9.74,3.62,9.74,9.32a8.6,8.6,0,0,1-8.08,9L107.57,48Zm.27-21.61c0-3.54-2.54-5.9-6.22-5.9H89V32.33h8.11C100.74,32.33,103.28,29.88,103.28,26.4Zm7.25,10.38c0-6.5,4.64-11.74,11-11.74,6.77,0,10.76,5.29,10.76,12v.88h-18.1c.27,4.23,3.2,7.74,8,7.74a9.77,9.77,0,0,0,7-2.87l1.66,2.27a12.34,12.34,0,0,1-8.9,3.48c-6.67,0-11.45-4.77-11.45-11.78Zm11-8.86c-4.78,0-7.14,4-7.32,7.42h14.7C128.85,32.05,126.63,27.92,121.52,27.92ZM152,48V45.46a9.63,9.63,0,0,1-7.42,3.11c-3.75,0-7.8-2.54-7.8-7.42,0-5,4-7.38,7.8-7.38a9.48,9.48,0,0,1,7.42,3v-4c0-3-2.42-4.68-5.66-4.68a8.77,8.77,0,0,0-6.87,3.11l-1.63-2.42a11.74,11.74,0,0,1,9-3.71c4.78,0,8.68,2.14,8.68,7.56V48H152Zm0-4.73V39a7.57,7.57,0,0,0-6.12-2.73c-3.3,0-5.57,2-5.57,4.87s2.27,4.93,5.57,4.93a7.53,7.53,0,0,0,6.12-2.8Zm9.19-6.5c0-6.63,4.5-11.74,11.19-11.74a9.54,9.54,0,0,1,8.2,3.9L178.22,31a6.62,6.62,0,0,0-5.71-2.87c-4.73,0-7.75,3.66-7.75,8.62s3,8.68,7.75,8.68a6.75,6.75,0,0,0,5.71-2.93l2.32,2.14a9.56,9.56,0,0,1-8.2,3.9C165.65,48.57,161.15,43.41,161.15,36.78Zm25,6.54V28.67h-3.71V25.61h3.71V19.49h3.53v6.12h4.55v3.06h-4.55V42.59c0,1.66.75,2.87,2.24,2.87a3.27,3.27,0,0,0,2.36-1l1,2.64a5.63,5.63,0,0,1-4.13,1.44C187.83,48.57,186.15,46.67,186.15,43.32Z"/></g></g></svg>