<svg xmlns="http://www.w3.org/2000/svg" viewBox="0 0 70 70"><defs><style>.cls-1{fill:#65dbf8;}.cls-2{fill:#f2f2f2;}</style></defs><title>Ресурс 7</title><g id="Слой_2" data-name="Слой 2"><g id="Layer_1" data-name="Layer 1"><circle class="cls-1" cx="35" cy="35" r="35"/><path class="cls-2" d="M48.86,29.35a1.36,1.36,0,0,0,.29,0,1.06,1.06,0,0,0,.52-.13l5-2.81a1.07,1.07,0,0,0-.55-2,1.19,1.19,0,0,0-.46.15l-5.1,2.83a1.08,1.08,0,0,0-.5.65,1,1,0,0,0,.1.81A1.07,1.07,0,0,0,48.86,29.35Zm5.94-4.12Z"/><path class="cls-2" d="M43,25.36a1,1,0,0,0,.46.11,1.06,1.06,0,0,0,1-.6.62.62,0,0,0,.07-.18l1.13-3.38a1.13,1.13,0,0,0,0-.81,1.1,1.1,0,0,0-.6-.56,1.07,1.07,0,0,0-.47-.06h0a1.07,1.07,0,0,0-.9.73l-1.1,3.33A1.05,1.05,0,0,0,43,25.36Z"/><path class="cls-2" d="M15.24,26.42l5.09,2.82a1,1,0,0,0,.53.14,1.07,1.07,0,0,0,.93-.54,1,1,0,0,0,.1-.81,1.08,1.08,0,0,0-.5-.65l-5.07-2.81a1.07,1.07,0,1,0-1.08,1.85Z"/><path class="cls-2" d="M35,24.3h0a1,1,0,0,0,.74-.31,1.05,1.05,0,0,0,.33-.77V17.59a1,1,0,0,0-.29-.77,1,1,0,0,0-.73-.34h-.18a1,1,0,0,0-.93,1.08v5.64a1,1,0,0,0,.3.76A1.06,1.06,0,0,0,35,24.3Z"/><path class="cls-2" d="M54.23,41.39h-3.5a15.77,15.77,0,0,0-31.46,0H15.62a1.08,1.08,0,0,0-1,1.16,1.1,1.1,0,0,0,.39.73,1,1,0,0,0,.65.24H54.22a1.12,1.12,0,0,0,.76-.3,1.08,1.08,0,0,0,.33-.75,1.07,1.07,0,0,0-.31-.76A1,1,0,0,0,54.23,41.39Zm-5.64,0H21.41a13.63,13.63,0,0,1,27.18,0Z"/><path class="cls-2" d="M25.5,24.64a1.07,1.07,0,0,0,1,.83l.23,0a1.08,1.08,0,0,0,.81-1.28,1,1,0,0,0-.06-.17l-1.13-3.39a1.06,1.06,0,0,0-1.16-.73h0a1.07,1.07,0,0,0-.89,1.22.87.87,0,0,0,.05.19Zm1.16.32Z"/></g></g></svg>