<svg xmlns="http://www.w3.org/2000/svg" viewBox="0 0 70 70"><defs><style>.cls-1{fill:#65dbf8;}.cls-2{fill:#f2f2f2;}</style></defs><title>Ресурс 8</title><g id="Слой_2" data-name="Слой 2"><g id="Layer_1" data-name="Layer 1"><circle class="cls-1" cx="35" cy="35" r="35"/><path class="cls-2" d="M55.52,21.6V15.79h-41v5.8h2l0,21.82h-2v5.8l19.5,0v3.9a3.1,3.1,0,1,0,2,0v-3.9l19.5,0V43.42h-2l0-21.82ZM35,57.19a1.11,1.11,0,1,1,1.11-1.11A1.11,1.11,0,0,1,35,57.19ZM16.52,17.79h37V19.6h-37Zm37,29.48-37,0V45.42l37,0Zm-2-3.85h-33l0-21.82h33Z"/><polygon class="cls-2" points="30.33 35.5 26.47 33.19 30.38 30.61 29.28 28.94 22.7 33.27 29.31 37.21 30.33 35.5"/><polygon class="cls-2" points="39.66 35.51 40.68 37.23 47.3 33.3 40.73 28.96 39.63 30.63 43.53 33.21 39.66 35.51"/><rect class="cls-2" x="27.17" y="31.83" width="15.8" height="2" transform="translate(-9.85 49.84) rotate(-63.85)"/></g></g></svg>