<svg xmlns="http://www.w3.org/2000/svg" viewBox="0 0 70 70"><defs><style>.cls-1{fill:#65dbf8;}.cls-2{fill:#fff;}</style></defs><title>Ресурс 10</title><g id="Слой_2" data-name="Слой 2"><g id="Layer_1" data-name="Layer 1"><circle class="cls-1" cx="35" cy="35" r="35"/><path class="cls-2" d="M49.78,19.69c2.91,0,5.91,2.07,6.08,5.23a1.94,1.94,0,0,1-.11.68L51,38.88A7.69,7.69,0,0,1,50.54,40a9.92,9.92,0,0,1-2.92,3.68,12.55,12.55,0,0,1-7.54,2.63H15.19c-1,0-1.35-.91-.74-1.69L34.17,22.93a1.09,1.09,0,0,1,.92-.39l9.83.05.27-.33a5.18,5.18,0,0,1,4.59-2.57Zm.11,1.85a3.38,3.38,0,0,0-3.08,1.71c-1.16,1.47-2.47,3-3.69,4.43a4.34,4.34,0,0,1,.52-.07c.22,0,.45,0,.68,0a7,7,0,0,1,4.51,1.57,7.43,7.43,0,0,1,2.3,3.71L54,25a4,4,0,0,0-4.08-3.44ZM35.36,24.43l-18.17,20H40a11.43,11.43,0,0,0,6.44-2.23,8.06,8.06,0,0,0,2.42-3,7.49,7.49,0,0,0,.47-1.33,9.92,9.92,0,0,0,.29-2.59,6.21,6.21,0,0,0-2-4.67,5.21,5.21,0,0,0-3.82-1.12,5.7,5.7,0,0,0-3.56,1.62,4.65,4.65,0,0,0-1,3.52c.67,2.65,2.3,3.46,3.72,3.39a2.54,2.54,0,0,0,2.57-2.7,2.93,2.93,0,0,0-.82-2.07A1.24,1.24,0,0,0,43.56,33a1.21,1.21,0,0,0-.82.63A1.11,1.11,0,0,0,43,34.82a.95.95,0,1,1-1.55,1.07,3.13,3.13,0,0,1-.4-3,3.09,3.09,0,0,1,2.11-1.7,3.12,3.12,0,0,1,2.77.65,4.75,4.75,0,0,1,1.5,3.38v.06A4.56,4.56,0,0,1,43,39.89c-3.21,0-4.92-1.59-5.67-4.9a6.13,6.13,0,0,1,1.16-4.79l4.83-5.74Z"/></g></g></svg>