<svg xmlns="http://www.w3.org/2000/svg" viewBox="0 0 70 70"><defs><style>.cls-1{fill:#65dbf8;}.cls-2{fill:#f2f2f2;}</style></defs><title>Ресурс 12</title><g id="Слой_2" data-name="Слой 2"><g id="Layer_1" data-name="Layer 1"><circle class="cls-1" cx="35" cy="35" r="35"/><polygon class="cls-2" points="46 32.44 52.45 28.75 45.94 25.59 45.06 27.39 48.17 28.9 45 30.71 46 32.44"/><polygon class="cls-2" points="37.56 30.71 34.39 28.9 37.5 27.39 36.63 25.59 30.11 28.75 36.57 32.44 37.56 30.71"/><rect class="cls-2" x="36.8" y="27.58" width="9.79" height="2" transform="translate(-2.76 52.64) rotate(-62.86)"/><path class="cls-2" d="M56.5,18.75h-43V46H29.7l-4.46,5.28,1.53,1.29L32.27,46l-.07,0H34v8.3h2V46h1.64l5.43,6.44,1.53-1.29L40.23,46H56.5ZM54.5,44h-39V20.75h39Z"/><rect class="cls-2" x="17.89" y="22.42" width="10.12" height="2"/><rect class="cls-2" x="17.89" y="25.96" width="10.12" height="2"/><rect class="cls-2" x="17.89" y="29.5" width="10.12" height="2"/><rect class="cls-2" x="17.89" y="33.04" width="10.12" height="2"/><rect class="cls-2" x="17.89" y="36.58" width="15.24" height="2"/><rect class="cls-2" x="17.89" y="39.83" width="15.24" height="2"/><rect class="cls-2" x="36.49" y="36.58" width="14.97" height="2"/><rect class="cls-2" x="36.49" y="39.83" width="14.97" height="2"/></g></g></svg>