<?xml version="1.0" encoding="utf-8"?>
<!-- Generator: Adobe Illustrator 22.0.1, SVG Export Plug-In . SVG Version: 6.00 Build 0)  -->
<svg version="1.1" id="Layer_1" xmlns="http://www.w3.org/2000/svg" xmlns:xlink="http://www.w3.org/1999/xlink" x="0px" y="0px"
	 viewBox="0 0 24 24" style="enable-background:new 0 0 24 24;" xml:space="preserve">
<style type="text/css">
	.st0{fill:#36609F;}
</style>
<path class="st0" d="M12,0C5.4,0,0,5.4,0,12c0,6.6,5.4,12,12,12s12-5.4,12-12C24,5.4,18.6,0,12,0z M15.2,12h-2.1c0,3.3,0,7.4,0,7.4
	H10c0,0,0-4,0-7.4H8.6V9.4H10V7.7c0-1.2,0.6-3.1,3.1-3.1l2.3,0v2.5c0,0-1.4,0-1.7,0c-0.3,0-0.7,0.1-0.7,0.7v1.5h2.3L15.2,12z"/>
</svg>
