<?xml version="1.0" encoding="utf-8"?>
<!-- Generator: Adobe Illustrator 22.0.1, SVG Export Plug-In . SVG Version: 6.00 Build 0)  -->
<svg version="1.1" id="Layer_1" xmlns="http://www.w3.org/2000/svg" xmlns:xlink="http://www.w3.org/1999/xlink" x="0px" y="0px"
	 viewBox="0 0 98.3 80.6" style="enable-background:new 0 0 98.3 80.6;" xml:space="preserve">
<style type="text/css">
	.st0{fill:#65DBF8;}
	.st1{fill:#4520AB;}
	.st2{clip-path:url(#SVGID_2_);}
</style>
<circle class="st0" cx="51.7" cy="38.3" r="38.3"/>
<g>
	<path class="st1" d="M92.9,30.1H38.2c-3,0-5.4,2.4-5.4,5.4v39.7c0,3,2.4,5.4,5.4,5.4h54.7c3,0,5.4-2.4,5.4-5.4V35.5
		C98.3,32.5,95.9,30.1,92.9,30.1z M38.2,32.1h54.7c1.9,0,3.4,1.5,3.4,3.4v4.7H34.7v-4.7C34.7,33.6,36.3,32.1,38.2,32.1z M92.9,78.6
		H38.2c-1.9,0-3.4-1.5-3.4-3.4V42.2h61.6v32.9C96.3,77,94.8,78.6,92.9,78.6z"/>
	<path class="st1" d="M59,38.5h31.9c1.4,0,2.5-1.1,2.5-2.5s-1.1-2.5-2.5-2.5H59c-1.4,0-2.5,1.1-2.5,2.5S57.6,38.5,59,38.5z M59,35.5
		h31.9c0.3,0,0.5,0.2,0.5,0.5s-0.2,0.5-0.5,0.5H59c-0.3,0-0.5-0.2-0.5-0.5S58.7,35.5,59,35.5z"/>
	<path class="st1" d="M39.2,38.6c1.4,0,2.6-1.2,2.6-2.6s-1.2-2.6-2.6-2.6c-1.4,0-2.6,1.2-2.6,2.6S37.8,38.6,39.2,38.6z M39.2,35.5
		c0.3,0,0.6,0.3,0.6,0.6s-0.3,0.6-0.6,0.6s-0.6-0.3-0.6-0.6S38.9,35.5,39.2,35.5z"/>
	<path class="st1" d="M45.6,38.6c1.4,0,2.6-1.2,2.6-2.6s-1.2-2.6-2.6-2.6s-2.6,1.2-2.6,2.6S44.2,38.6,45.6,38.6z M45.6,35.5
		c0.3,0,0.6,0.3,0.6,0.6s-0.3,0.6-0.6,0.6s-0.6-0.3-0.6-0.6S45.3,35.5,45.6,35.5z"/>
	<path class="st1" d="M52,38.6c1.4,0,2.6-1.2,2.6-2.6s-1.2-2.6-2.6-2.6s-2.6,1.2-2.6,2.6S50.6,38.6,52,38.6z M52,35.5
		c0.3,0,0.6,0.3,0.6,0.6s-0.3,0.6-0.6,0.6c-0.3,0-0.6-0.3-0.6-0.6S51.7,35.5,52,35.5z"/>
	<path class="st1" d="M70.5,46.5c-0.5-0.2-1.1,0-1.3,0.6L58.9,72.9c-0.2,0.5,0,1.1,0.6,1.3c0.1,0,0.2,0.1,0.4,0.1
		c0.4,0,0.8-0.2,0.9-0.6L71,47.8C71.2,47.3,71,46.7,70.5,46.5z"/>
	<path class="st1" d="M72.4,52.3c-0.4-0.3-1.1-0.2-1.4,0.2c-0.3,0.4-0.2,1.1,0.2,1.4l8.1,6.1l-8.5,6.4c-0.4,0.3-0.5,1-0.2,1.4
		c0.2,0.3,0.5,0.4,0.8,0.4c0.2,0,0.4-0.1,0.6-0.2l9.5-7.2c0.2-0.2,0.4-0.5,0.4-0.8c0-0.3-0.1-0.6-0.4-0.8L72.4,52.3z"/>
	<path class="st1" d="M59.1,66.5l-8.5-6.4l8.1-6.1c0.4-0.3,0.5-1,0.2-1.4c-0.3-0.4-1-0.5-1.4-0.2l-9.2,6.9c-0.2,0.2-0.4,0.5-0.4,0.8
		c0,0.3,0.1,0.6,0.4,0.8l9.5,7.2c0.2,0.1,0.4,0.2,0.6,0.2c0.3,0,0.6-0.1,0.8-0.4C59.6,67.4,59.5,66.8,59.1,66.5z"/>
</g>
<g>
	<defs>
		<polygon id="SVGID_1_" points="33.7,30.8 71.3,30.8 71.3,15.2 0,15.2 0,69.9 33.7,69.9 		"/>
	</defs>
	<clipPath id="SVGID_2_">
		<use xlink:href="#SVGID_1_"  style="overflow:visible;"/>
	</clipPath>
	<g class="st2">
		<path class="st1" d="M8.9,32.1h5.8c0.6,0,1-0.4,1-1s-0.4-1-1-1H8.9c-0.6,0-1,0.4-1,1S8.3,32.1,8.9,32.1z"/>
		<path class="st1" d="M15.7,34.6c0-0.6-0.4-1-1-1H8.9c-0.6,0-1,0.4-1,1s0.4,1,1,1h5.8C15.2,35.6,15.7,35.2,15.7,34.6z"/>
		<path class="st1" d="M14.6,38.6c0,0.6,0.4,1,1,1h12.4c0.6,0,1-0.4,1-1s-0.4-1-1-1H15.6C15,37.6,14.6,38.1,14.6,38.6z"/>
		<path class="st1" d="M34.7,41.5H15.6c-0.6,0-1,0.4-1,1s0.4,1,1,1h19.2c0.6,0,1-0.4,1-1S35.3,41.5,34.7,41.5z"/>
		<path class="st1" d="M15.6,48.2h12.4c0.6,0,1-0.4,1-1s-0.4-1-1-1H15.6c-0.6,0-1,0.4-1,1S15,48.2,15.6,48.2z"/>
		<path class="st1" d="M34.7,50H15.6c-0.6,0-1,0.4-1,1s0.4,1,1,1h19.2c0.6,0,1-0.4,1-1S35.3,50,34.7,50z"/>
		<path class="st1" d="M15.6,56.8h12.4c0.6,0,1-0.4,1-1s-0.4-1-1-1H15.6c-0.6,0-1,0.4-1,1S15,56.8,15.6,56.8z"/>
		<path class="st1" d="M34.7,58.6H15.6c-0.6,0-1,0.4-1,1s0.4,1,1,1h19.2c0.6,0,1-0.4,1-1S35.3,58.6,34.7,58.6z"/>
		<path class="st1" d="M56.6,41.5H37.4c-0.6,0-1,0.4-1,1s0.4,1,1,1h19.2c0.6,0,1-0.4,1-1S57.1,41.5,56.6,41.5z"/>
		<path class="st1" d="M30.7,39.6h12.4c0.6,0,1-0.4,1-1s-0.4-1-1-1H30.7c-0.6,0-1,0.4-1,1S30.2,39.6,30.7,39.6z"/>
		<path class="st1" d="M58.3,37.6H45.9c-0.6,0-1,0.4-1,1s0.4,1,1,1h12.4c0.6,0,1-0.4,1-1S58.8,37.6,58.3,37.6z"/>
		<path class="st1" d="M63.7,15.6H9c-3,0-5.4,2.4-5.4,5.4v39.7c0,3,2.4,5.4,5.4,5.4h54.7c3,0,5.4-2.4,5.4-5.4V21.1
			C69.1,18.1,66.7,15.6,63.7,15.6z M5.5,21.1c0-1.9,1.5-3.4,3.4-3.4h54.7c1.9,0,3.4,1.5,3.4,3.4v4.7H5.5V21.1z M63.7,64.2H9
			c-1.9,0-3.4-1.5-3.4-3.4V27.8h61.6v32.9C67.1,62.6,65.6,64.2,63.7,64.2z"/>
		<path class="st1" d="M61.7,19.1H29.8c-1.4,0-2.5,1.1-2.5,2.5s1.1,2.5,2.5,2.5h31.9c1.4,0,2.5-1.1,2.5-2.5S63.1,19.1,61.7,19.1z
			 M61.7,22.1H29.8c-0.3,0-0.5-0.2-0.5-0.5s0.2-0.5,0.5-0.5h31.9c0.3,0,0.5,0.2,0.5,0.5S62,22.1,61.7,22.1z"/>
		<path class="st1" d="M10,19c-1.4,0-2.6,1.2-2.6,2.6s1.2,2.6,2.6,2.6s2.6-1.2,2.6-2.6S11.5,19,10,19z M10,22.2
			c-0.3,0-0.6-0.3-0.6-0.6S9.7,21,10,21s0.6,0.3,0.6,0.6S10.4,22.2,10,22.2z"/>
		<path class="st1" d="M16.4,19c-1.4,0-2.6,1.2-2.6,2.6s1.2,2.6,2.6,2.6c1.4,0,2.6-1.2,2.6-2.6S17.9,19,16.4,19z M16.4,22.2
			c-0.3,0-0.6-0.3-0.6-0.6s0.3-0.6,0.6-0.6s0.6,0.3,0.6,0.6S16.8,22.2,16.4,22.2z"/>
		<path class="st1" d="M22.8,19c-1.4,0-2.6,1.2-2.6,2.6s1.2,2.6,2.6,2.6s2.6-1.2,2.6-2.6S24.3,19,22.8,19z M22.8,22.2
			c-0.3,0-0.6-0.3-0.6-0.6s0.3-0.6,0.6-0.6s0.6,0.3,0.6,0.6S23.2,22.2,22.8,22.2z"/>
	</g>
</g>
</svg>
