<?xml version="1.0" encoding="utf-8"?>
<!-- Generator: Adobe Illustrator 22.0.1, SVG Export Plug-In . SVG Version: 6.00 Build 0)  -->
<svg version="1.1" id="Layer_1" xmlns="http://www.w3.org/2000/svg" xmlns:xlink="http://www.w3.org/1999/xlink" x="0px" y="0px"
	 viewBox="0 0 19 22.1" style="enable-background:new 0 0 19 22.1;" xml:space="preserve">
<style type="text/css">
	.st0{fill:#4520AB;}
</style>
<g>
	<g>
		<g>
			<path class="st0" d="M8.2,20.4c-0.2,0-0.8-0.2-0.9-0.2c-4.9-1.2-8-6.1-7-11C0.7,6.4,2.4,4,4.8,2.6l0.5,0.9
				C3.1,4.7,1.6,6.9,1.2,9.3c-0.9,4.5,1.9,8.8,6.3,9.9c0.2,0,0.7,0.2,0.9,0.2L8.2,20.4z"/>
		</g>
		<g>
			<polygon class="st0" points="5.6,22.1 5.1,21.3 7.7,19.7 6.2,17.1 7,16.6 9.1,20.1 			"/>
		</g>
	</g>
	<g>
		<g>
			<path class="st0" d="M14.5,19.5L14,18.6c2.1-1.3,3.6-3.5,3.9-5.9C18.6,8.2,15.7,4,11.2,3C11,3,10.5,2.9,10.4,2.8l0.2-1
				c0.1,0,0.7,0.1,0.9,0.2c5,1.1,8.3,5.8,7.5,10.8C18.5,15.6,16.8,18,14.5,19.5z"/>
		</g>
		<g>
			<polygon class="st0" points="11.8,5.6 9.6,2.2 13,0 13.5,0.8 11,2.5 12.6,5.1 			"/>
		</g>
	</g>
</g>
</svg>
