<?xml version="1.0" standalone="no"?>
<!DOCTYPE svg PUBLIC "-//W3C//DTD SVG 20010904//EN"
 "http://www.w3.org/TR/2001/REC-SVG-20010904/DTD/svg10.dtd">
<svg version="1.0" xmlns="http://www.w3.org/2000/svg"
 width="153.000000pt" height="153.000000pt" viewBox="0 0 153.000000 153.000000"
 preserveAspectRatio="xMidYMid meet">
<metadata>
Created by potrace 1.15, written by Peter Selinger 2001-2017
</metadata>
<g transform="translate(0.000000,153.000000) scale(0.100000,-0.100000)"
fill="#000000" stroke="none">
<path d="M0 1095 l0 -85 80 0 80 0 0 -310 0 -310 95 0 95 0 0 310 0 310 80 0
80 0 0 85 0 85 -255 0 -255 0 0 -85z"/>
<path d="M608 1155 c-69 -46 -94 -139 -64 -238 l14 -45 -45 -44 c-140 -135
-133 -339 14 -425 62 -36 147 -38 211 -5 36 19 43 20 48 7 5 -12 25 -15 105
-15 54 0 99 2 99 5 0 3 -18 41 -40 85 l-40 80 26 51 c28 56 54 161 54 222 l0
37 -80 0 -80 0 -1 -62 0 -63 -54 105 c-77 151 -72 199 20 187 l45 -7 0 75 0
75 -98 0 c-87 0 -101 -3 -134 -25z"/>
<path d="M1020 785 l0 -395 95 0 95 0 0 155 0 155 68 0 c165 0 265 111 249
280 -6 65 -25 108 -65 145 -46 43 -108 55 -284 55 l-158 0 0 -395z m296 213
c7 -7 16 -28 20 -45 9 -45 -38 -93 -90 -93 l-36 0 0 81 0 82 46 -6 c25 -2 52
-11 60 -19z"/>
</g>
</svg>
