<?xml version="1.0" encoding="UTF-8" standalone="no"?>
<svg xmlns:rdf="http://www.w3.org/1999/02/22-rdf-syntax-ns#" xmlns="http://www.w3.org/2000/svg" xml:space="preserve" height="97.757px" width="516px" version="1.0" xmlns:i="&amp;ns_ai;" y="0px" x="0px" xmlns:cc="http://creativecommons.org/ns#" enable-background="new 0 0 516 97.757" viewBox="0 0 516 97.757" xmlns:dc="http://purl.org/dc/elements/1.1/"><polyline points="-32.256 0 -32.256 0 546.01 0" clip-rule="evenodd" fill="none"/><path d="m36.677 45.366v-31.303h2.678c2.008 0 5.357-0.334 5.357 9.039v13.057c0 9.374-3.35 9.207-5.357 9.207h-2.678zm-20.59 37.496h-5.021v2.68h36.49c8.873 0 18.08-3.184 18.08-17.579 0-9.874-3.516-19.249-17.243-20.589v-1.172c6.697-0.5 16.071-3.682 16.071-17.574 0-15.736-12.221-17.41-16.236-17.41h-37.163v2.846h5.021v68.798h0.001zm20.59 0v-34.818h2.678c2.008 0 5.357-0.167 5.357 9.207v16.4c0 9.375-3.35 9.211-5.357 9.211h-2.678z" fill-rule="evenodd" clip-rule="evenodd" fill="#333"/><path d="m74.173 14.063h-5.19v-2.846h46.2v26.615h-1.674c-2.18-23.602-13.895-23.77-17.577-23.77h-1.339v32.642h1.003c6.696 0 9.375-8.368 9.04-15.902h1.841v34.315h-1.841c0.335-7.533-2.344-15.735-9.04-15.735h-1.003v33.479c14.06 0.336 18.915-12.723 20.087-25.945h1.84v28.625h-47.539v-2.68h5.19v-68.798h0.001z" fill-rule="evenodd" clip-rule="evenodd" fill="#333"/><path d="m141.3 14.063v68.799h-13.559c6.025-8.871 6.695-21.762 6.695-40.174v-22.597c0-5.859 1.842-6.027 3.348-6.027h3.516v-0.001zm-15.568-2.845v2.846h2.678c1.674 0 4.018 0.336 4.018 6.863v21.762c0 30.131-4.185 40.174-10.712 40.174h-1.005v14.895h1.674c0.334-11.043 4.353-12.215 13.224-12.215h17.743c8.873 0 12.89 1.172 13.225 12.215h1.674v-14.896h-6.361v-68.799h5.021v-2.846h-41.179v0.001z" fill-rule="evenodd" clip-rule="evenodd" fill="#333"/><path d="m189.17 19.253c0-4.687 1.507-6.695 4.018-6.695 2.344 0 4.017 2.009 4.017 6.695v58.59c0 4.516-1.673 6.527-4.017 6.527-2.511 0-4.018-2.012-4.018-6.527v-58.59zm-21.761 29.293c0 18.414 8.704 38.664 25.778 38.664 17.072 0 25.609-20.25 25.609-38.664 0-18.58-8.537-38.834-25.609-38.834-17.074 0-25.778 20.254-25.778 38.834z" fill-rule="evenodd" clip-rule="evenodd" fill="#333"/><path d="m227.84 19.755h-0.167v53.896c0 8.375 2.845 9.211 5.188 9.211h1.339v2.68h-13.726v-2.68c2.175 0.164 5.19-1.008 5.19-9.211v-59.588h-5.19v-2.846h25.778l6.527 30.299h0.336l6.695-30.299h25.779v2.846h-5.023v68.799h5.023v2.68h-30.634v-2.68h5.021v-62.771h-0.334l-14.563 65.451h-2.845l-14.394-65.787z" fill-rule="evenodd" clip-rule="evenodd" fill="#333"/><path d="m309.69 19.253c0-4.687 1.672-6.695 4.016-6.695 2.512 0 4.016 2.009 4.016 6.695v58.59c0 4.516-1.504 6.527-4.016 6.527-2.344 0-4.016-2.012-4.016-6.527v-58.59zm-21.595 29.293c0 18.414 8.537 38.664 25.611 38.664 17.07 0 25.777-20.25 25.777-38.664 0-18.58-8.707-38.834-25.777-38.834-17.074 0-25.611 20.254-25.611 38.834z" fill-rule="evenodd" clip-rule="evenodd" fill="#333"/><path d="m389.53 35.657h-1.84c-1.676-12.051-7.533-21.426-14.229-21.426-7.367 0-7.699 10.881-7.699 16.07v34.314c0 3.347 0.166 16.066 8.535 16.066 9.373 0 13.059-12.887 14.398-22.763l1.672 0.503c-1.506 12.389-6.193 28.787-20.59 28.787-17.242 0-25.611-21.087-25.611-38.83 0-21.26 10.381-38.668 25.611-38.668 3.016 0 7.531 1.004 11.719 4.854l5.523-6.528h1.676l0.835 27.621z" fill-rule="evenodd" clip-rule="evenodd" fill="#333"/><path d="m408.62 14.063c-9.543 0.837-12.891 15.736-13.559 23.77h-1.676v-26.615h51.055v26.615h-1.842c-0.67-8.033-4.02-22.933-13.4-23.77v68.799h6.031v2.68h-32.811v-2.68h6.193v-68.799h0.002z" fill-rule="evenodd" clip-rule="evenodd" fill="#333"/><polygon fill-rule="evenodd" points="473.57 63.11 473.9 63.11 481.6 19.085 481.6 14.063 479.09 14.063 479.09 11.218 507.21 11.218 507.21 14.063 502.19 14.063 502.19 82.862 507.21 82.862 507.21 85.542 479.09 85.542 479.09 82.862 481.6 82.862 481.6 30.803 481.27 30.803 473.57 74.659 473.57 82.862 476.08 82.862 476.08 85.542 447.95 85.542 447.95 82.862 452.98 82.862 452.98 14.063 452.98 14.063 447.95 14.063 447.95 11.218 476.08 11.218 476.08 14.063 473.57 14.063" clip-rule="evenodd" fill="#333"/></svg>
