<?xml version="1.0" encoding="utf-8"?>
<!-- Generator: Adobe Illustrator 22.0.1, SVG Export Plug-In . SVG Version: 6.00 Build 0)  -->
<svg version="1.1" id="Layer_1" xmlns="http://www.w3.org/2000/svg" xmlns:xlink="http://www.w3.org/1999/xlink" x="0px" y="0px"
	 viewBox="0 0 380.9 85" style="enable-background:new 0 0 380.9 85;" xml:space="preserve">
<style type="text/css">
	.st0{display:none;fill:#FFFFFF;}
	.st1{fill:#282828;}
	.st2{fill:#FFFFFF;}
</style>
<path class="st0" d="M118.9,13.3c-1.4-5.2-5.5-9.3-10.7-10.7C98.7,0,60.7,0,60.7,0s-38,0-47.5,2.5C8.1,3.9,3.9,8.1,2.5,13.3
	C0,22.8,0,42.5,0,42.5s0,19.8,2.5,29.2c1.4,5.2,5.5,9.3,10.7,10.7C22.8,85,60.7,85,60.7,85s38,0,47.5-2.5c5.2-1.4,9.3-5.5,10.7-10.7
	c2.5-9.5,2.5-29.2,2.5-29.2S121.5,22.8,118.9,13.3z M48.6,60.7V24.3l31.6,18.2L48.6,60.7z"/>
<path class="st0" d="M147.3,54.8L133.2,6.1h12l5.4,24.8l0.9,4c0.5,2.1,1,4.1,1.4,6.2h0.4l2.3-10.3l5.8-24.7h11.8l-13.9,48.7v24.2
	h-12.1V54.8z"/>
<path class="st0" d="M176.3,77.4c-2.4-1.6-4.1-4.1-5.1-7.6c-1-3.4-1.5-8-1.5-13.6v-7.7c0-5.7,0.6-10.3,1.7-13.8c1.2-3.5,3-6,5.4-7.6
	c2.5-1.6,5.7-2.4,9.7-2.4c3.9,0,7.1,0.8,9.5,2.4c2.4,1.6,4.1,4.2,5.2,7.6c1.1,3.4,1.7,8,1.7,13.8v7.7c0,5.7-0.5,10.2-1.6,13.7
	c-1.1,3.4-2.8,6-5.2,7.6c-2.4,1.6-5.7,2.4-9.8,2.4C182.1,79.8,178.7,79,176.3,77.4z M189.8,69.1c0.7-1.7,1-4.6,1-8.5V44
	c0-3.8-0.3-6.6-1-8.4c-0.7-1.8-1.8-2.6-3.5-2.6c-1.6,0-2.8,0.9-3.4,2.6c-0.7,1.8-1,4.6-1,8.4v16.6c0,3.9,0.3,6.8,1,8.5
	c0.6,1.7,1.8,2.6,3.5,2.6C188,71.7,189.1,70.8,189.8,69.1z"/>
<path class="st0" d="M241.4,25.8V79H232l-1-6.5h-0.3c-2.4,4.9-6.1,7.4-11.1,7.4c-3.6,0-6.2-1.1-7.9-3.4c-1.7-2.3-2.6-5.9-2.6-10.9
	V25.8h12v39.1c0,2.3,0.3,4,0.8,5c0.5,1,1.4,1.6,2.6,1.6c1,0,2-0.3,2.9-1c0.9-0.7,1.6-1.5,2-2.6v-42H241.4z"/>
<path class="st0" d="M274,15.9h-11.6V79h-12.2V15.9h-11.6V6.1H274V15.9z"/>
<path class="st0" d="M303.2,25.8V79h-9.4l-1-6.5h-0.3c-2.4,4.9-6.1,7.4-11.1,7.4c-3.6,0-6.2-1.1-7.9-3.4c-1.7-2.3-2.6-5.9-2.6-10.9
	V25.8h12v39.1c0,2.3,0.3,4,0.8,5c0.5,1,1.4,1.6,2.6,1.6c1,0,2-0.3,2.9-1c0.9-0.7,1.6-1.5,2-2.6v-42H303.2z"/>
<path class="st0" d="M360.7,56.4v2.7c0,3.4,0.1,6,0.3,7.7c0.2,1.7,0.6,3,1.3,3.7c0.6,0.8,1.6,1.2,3,1.2c1.8,0,3-0.7,3.7-2.1
	c0.7-1.4,1-3.7,1.1-7l10.3,0.6c0.1,0.5,0.1,1.1,0.1,1.9c0,4.9-1.3,8.6-4,11c-2.7,2.4-6.5,3.6-11.4,3.6c-5.9,0-10-1.9-12.4-5.6
	c-2.4-3.7-3.6-9.4-3.6-17.2v-9.3c0-8,1.2-13.8,3.7-17.5c2.5-3.7,6.7-5.5,12.6-5.5c4.1,0,7.3,0.8,9.5,2.3c2.2,1.5,3.7,3.9,4.6,7
	c0.9,3.2,1.3,7.6,1.3,13.2v9.1H360.7z M362.2,34c-0.6,0.8-1,2-1.2,3.7c-0.2,1.7-0.3,4.3-0.3,7.8v3.8h8.8v-3.8c0-3.4-0.1-6-0.3-7.8
	c-0.2-1.8-0.7-3-1.3-3.7c-0.6-0.7-1.6-1.1-2.8-1.1C363.8,32.9,362.8,33.3,362.2,34z"/>
<path class="st0" d="M342.9,34.3c-0.7-3.4-1.9-5.8-3.5-7.3c-1.6-1.5-3.9-2.3-6.7-2.3c-2.2,0-4.3,0.6-6.2,1.9
	c-1.9,1.2-3.4,2.9-4.4,4.9H322l0-28.1h-11.3V79h9.6l1.2-5h0.3c0.9,1.8,2.3,3.2,4.2,4.3c1.9,1,3.9,1.6,6.2,1.6c4.1,0,7-1.9,8.9-5.6
	c1.9-3.7,2.9-9.6,2.9-17.5v-8.4C343.9,42.3,343.6,37.6,342.9,34.3z M331.9,56c0,3.9-0.2,6.9-0.5,9.1c-0.3,2.2-0.9,3.8-1.6,4.7
	c-0.8,0.9-1.8,1.4-3,1.4c-1,0-1.9-0.2-2.7-0.7c-0.8-0.5-1.5-1.2-2-2.1V38.2c0.4-1.4,1.1-2.6,2.1-3.6c1-0.9,2.1-1.4,3.2-1.4
	c1.2,0,2.2,0.5,2.8,1.4c0.7,1,1.1,2.6,1.4,4.8c0.3,2.3,0.4,5.5,0.4,9.6V56z"/>
<g>
	<g>
		<g>
			<path class="st1" d="M176.3,77.4c-2.4-1.6-4.1-4.1-5.1-7.6c-1-3.4-1.5-8-1.5-13.6v-7.7c0-5.7,0.6-10.3,1.7-13.8
				c1.2-3.5,3-6,5.4-7.6c2.5-1.6,5.7-2.4,9.7-2.4c3.9,0,7.1,0.8,9.5,2.4c2.4,1.6,4.1,4.2,5.2,7.6c1.1,3.4,1.7,8,1.7,13.8v7.7
				c0,5.7-0.5,10.2-1.6,13.7c-1.1,3.4-2.8,6-5.2,7.6c-2.4,1.6-5.7,2.4-9.8,2.4C182.1,79.8,178.7,79,176.3,77.4z M189.8,69
				c0.7-1.7,1-4.6,1-8.5V43.9c0-3.8-0.3-6.6-1-8.4c-0.7-1.8-1.8-2.6-3.5-2.6c-1.6,0-2.8,0.9-3.4,2.6c-0.7,1.8-1,4.6-1,8.4v16.6
				c0,3.9,0.3,6.8,1,8.5c0.6,1.7,1.8,2.6,3.5,2.6C188,71.6,189.1,70.8,189.8,69z"/>
			<path class="st1" d="M360.9,56.3V59c0,3.4,0.1,6,0.3,7.7c0.2,1.7,0.6,3,1.3,3.7c0.6,0.8,1.6,1.2,3,1.2c1.8,0,3-0.7,3.7-2.1
				c0.7-1.4,1-3.7,1.1-7l10.3,0.6c0.1,0.5,0.1,1.1,0.1,1.9c0,4.9-1.3,8.6-4,11c-2.7,2.4-6.5,3.6-11.4,3.6c-5.9,0-10-1.9-12.4-5.6
				c-2.4-3.7-3.6-9.4-3.6-17.2v-9.3c0-8,1.2-13.8,3.7-17.5c2.5-3.7,6.7-5.5,12.6-5.5c4.1,0,7.3,0.8,9.5,2.3c2.2,1.5,3.7,3.9,4.6,7
				c0.9,3.2,1.3,7.6,1.3,13.2v9.1H360.9z M362.4,33.9c-0.6,0.8-1,2-1.2,3.7c-0.2,1.7-0.3,4.3-0.3,7.8v3.8h8.8v-3.8
				c0-3.4-0.1-6-0.3-7.8c-0.2-1.8-0.7-3-1.3-3.7c-0.6-0.7-1.6-1.1-2.8-1.1C363.9,32.7,363,33.1,362.4,33.9z"/>
			<path class="st1" d="M147.1,55.3L133.5,6h11.9l4.8,22.3c1.2,5.5,2.1,10.2,2.7,14.1h0.3c0.4-2.8,1.3-7.4,2.7-14l5-22.4h11.9
				L159,55.3v23.6h-11.8V55.3z"/>
			<path class="st1" d="M241.6,25.7v53.3h-9.4l-1-6.5h-0.3c-2.5,4.9-6.4,7.4-11.5,7.4c-3.5,0-6.1-1.2-7.8-3.5
				c-1.7-2.3-2.5-5.9-2.5-10.9V25.7h12v39.1c0,2.4,0.3,4.1,0.8,5.1c0.5,1,1.4,1.5,2.6,1.5c1,0,2-0.3,3-1c1-0.6,1.7-1.4,2.1-2.4V25.7
				H241.6z"/>
			<path class="st1" d="M303.1,25.7v53.3h-9.4l-1-6.5h-0.3c-2.5,4.9-6.4,7.4-11.5,7.4c-3.5,0-6.1-1.2-7.8-3.5
				c-1.7-2.3-2.5-5.9-2.5-10.9V25.7h12v39.1c0,2.4,0.3,4.1,0.8,5.1c0.5,1,1.4,1.5,2.6,1.5c1,0,2-0.3,3-1c1-0.6,1.7-1.4,2.1-2.4V25.7
				H303.1z"/>
			<path class="st1" d="M274.2,15.7h-11.9v63.2h-11.7V15.7h-11.9V6h35.5V15.7z"/>
			<path class="st1" d="M342.8,34.2c-0.7-3.4-1.9-5.8-3.5-7.3c-1.6-1.5-3.9-2.3-6.7-2.3c-2.2,0-4.3,0.6-6.2,1.9
				c-1.9,1.2-3.4,2.9-4.4,4.9h-0.1l0-28.1h-11.6v75.6h9.9l1.2-5h0.3c0.9,1.8,2.3,3.2,4.2,4.3c1.9,1,3.9,1.6,6.2,1.6
				c4.1,0,7-1.9,8.9-5.6c1.9-3.7,2.9-9.6,2.9-17.5v-8.4C343.8,42.2,343.5,37.5,342.8,34.2z M331.8,55.9c0,3.9-0.2,6.9-0.5,9.1
				c-0.3,2.2-0.9,3.8-1.6,4.7c-0.8,0.9-1.8,1.4-3,1.4c-1,0-1.9-0.2-2.7-0.7c-0.8-0.5-1.5-1.2-2-2.1V38.1c0.4-1.4,1.1-2.6,2.1-3.6
				c1-0.9,2.1-1.4,3.2-1.4c1.2,0,2.2,0.5,2.8,1.4c0.7,1,1.1,2.6,1.4,4.8c0.3,2.3,0.4,5.5,0.4,9.6V55.9z"/>
		</g>
	</g>
	<g>
		<path class="st1" d="M118.9,13.3c-1.4-5.2-5.5-9.3-10.7-10.7C98.7,0,60.7,0,60.7,0s-38,0-47.5,2.5C8.1,3.9,3.9,8.1,2.5,13.3
			C0,22.8,0,42.5,0,42.5s0,19.8,2.5,29.2c1.4,5.2,5.5,9.3,10.7,10.7C22.8,85,60.7,85,60.7,85s38,0,47.5-2.5
			c5.2-1.4,9.3-5.5,10.7-10.7c2.5-9.5,2.5-29.2,2.5-29.2S121.5,22.8,118.9,13.3z"/>
		<polygon class="st2" points="48.6,60.7 48.6,24.3 80.2,42.5 		"/>
	</g>
</g>
</svg>
