<svg xmlns="http://www.w3.org/2000/svg" viewBox="0 0 192.74 55.82"><defs><style>.cls-1{fill:#222;}</style></defs><title>Ресурс 1</title><g id="Слой_2" data-name="Слой 2"><g id="Layer_1" data-name="Layer 1"><path class="cls-1" d="M1.25,43.53V22.08H28V20.82H1.25V1.25H29.73V0H0V44.78H30V43.53Zm52.88-31L43,27.16,32.18,12.54H30.54L42.27,28.1,29.42,44.78h1.5L43,29,55.19,44.78h1.57L43.84,28.1,55.63,12.54Zm6.39,43.28V35.75h.13a12.9,12.9,0,0,0,4.45,7.06,13.16,13.16,0,0,0,8.47,2.66,12.24,12.24,0,0,0,10.19-5,17,17,0,0,0,2.64-5.39,23.78,23.78,0,0,0,0-13.17,15.88,15.88,0,0,0-2.72-5.33,12.53,12.53,0,0,0-4.33-3.51,12.74,12.74,0,0,0-5.74-1.26,14,14,0,0,0-4.55.72,12.15,12.15,0,0,0-3.73,2,14.17,14.17,0,0,0-4.64,7h-.13v-9H59.27V55.82Zm13-11.54a12,12,0,0,1-9.47-4.05q-3.57-4-3.58-11.63a20.12,20.12,0,0,1,.88-6,15.46,15.46,0,0,1,2.54-4.95,12.3,12.3,0,0,1,4.11-3.39,11.87,11.87,0,0,1,5.52-1.25,11.46,11.46,0,0,1,5.49,1.25A11.23,11.23,0,0,1,83,17.72a16.13,16.13,0,0,1,2.32,5,22,22,0,0,1,.78,5.93,22.37,22.37,0,0,1-.72,5.61,15.86,15.86,0,0,1-2.23,5,12.08,12.08,0,0,1-3.85,3.64,10.85,10.85,0,0,1-5.68,1.41Zm20.63.5V26.53A17.82,17.82,0,0,1,95,21.39,12.38,12.38,0,0,1,97.28,17a10.75,10.75,0,0,1,4-3,11.93,11.93,0,0,1,5.74-.91V11.79a15.59,15.59,0,0,0-5,.63,12.32,12.32,0,0,0-3.73,1.88,9.49,9.49,0,0,0-2.51,2.79,12.53,12.53,0,0,0-1.38,3.42H94.2v-8H93V44.78Zm14.37-15.87h27a22.54,22.54,0,0,0-.66-6.39,15.88,15.88,0,0,0-2.51-5.46,12.84,12.84,0,0,0-4.45-3.83,13.75,13.75,0,0,0-6.49-1.44,13.23,13.23,0,0,0-9.79,4.42,16.64,16.64,0,0,0-3.13,5.3,19.92,19.92,0,0,0-1.2,7.15,26.35,26.35,0,0,0,.82,6.68,15.63,15.63,0,0,0,2.51,5.4A11.39,11.39,0,0,0,115,44.28a14.38,14.38,0,0,0,6.43,1.19,14.11,14.11,0,0,0,9.28-3.1,12.85,12.85,0,0,0,4.45-8.75h-1.25q-.82,5.33-4.17,8a13.14,13.14,0,0,1-8.44,2.67,13,13,0,0,1-5.83-1.19,10.58,10.58,0,0,1-3.89-3.26A14.09,14.09,0,0,1,109.35,35a26.14,26.14,0,0,1-.78-6.06Zm25.71-1.25H108.57a19.19,19.19,0,0,1,1.25-6.08A15,15,0,0,1,112.61,17a11.61,11.61,0,0,1,4-2.92,12.06,12.06,0,0,1,4.92-1,12.38,12.38,0,0,1,5.52,1.16,11.35,11.35,0,0,1,4,3.16,14.05,14.05,0,0,1,2.42,4.68,19.12,19.12,0,0,1,.81,5.61Zm27.29-5.58h1.25q0-5.4-3.14-7.84t-8.53-2.45a15,15,0,0,0-5.08.75,10.19,10.19,0,0,0-3.38,2,6.87,6.87,0,0,0-1.88,2.63,7.49,7.49,0,0,0-.57,2.76,8.07,8.07,0,0,0,.94,4.2,6.21,6.21,0,0,0,2.95,2.45,22.71,22.71,0,0,0,3.14,1.13c1.17.33,2.53.69,4.07,1.07,1.38.33,2.74.66,4.08,1A14.18,14.18,0,0,1,159,31.08a7.54,7.54,0,0,1,2.51,2.16,5.66,5.66,0,0,1,1,3.45,6.11,6.11,0,0,1-1,3.51A7.88,7.88,0,0,1,159,42.56a11.1,11.1,0,0,1-3.35,1.31,16.87,16.87,0,0,1-3.61.41q-5.7,0-8.75-2.54t-3-8H139q0,6.09,3.29,8.91c2.19,1.88,5.45,2.82,9.75,2.82A19.25,19.25,0,0,0,156.2,45,11.39,11.39,0,0,0,160,43.46a8.51,8.51,0,0,0,2.69-2.75,7.8,7.8,0,0,0,1-4.14,7,7,0,0,0-.91-3.77,7.72,7.72,0,0,0-2.38-2.38A12.57,12.57,0,0,0,157.08,29c-1.24-.36-2.48-.71-3.73-1l-4.61-1.19a28.73,28.73,0,0,1-3.67-1.19,6.19,6.19,0,0,1-2.6-2,6,6,0,0,1-1-3.67,8.5,8.5,0,0,1,.25-1.57A5.55,5.55,0,0,1,142.94,16,8,8,0,0,1,145.82,14a12.78,12.78,0,0,1,5.33-.91,16.5,16.5,0,0,1,4.24.5,8.79,8.79,0,0,1,3.29,1.6,7.23,7.23,0,0,1,2.13,2.79,10.2,10.2,0,0,1,.76,4.14Zm29,0h1.26q0-5.4-3.14-7.84t-8.53-2.45a15,15,0,0,0-5.08.75,10.09,10.09,0,0,0-3.38,2,7,7,0,0,0-1.89,2.63,7.68,7.68,0,0,0-.56,2.76,8.07,8.07,0,0,0,.94,4.2,6.21,6.21,0,0,0,2.95,2.45,23,23,0,0,0,3.13,1.13c1.18.33,2.53.69,4.08,1.07,1.38.33,2.74.66,4.08,1A14.18,14.18,0,0,1,188,31.08a7.54,7.54,0,0,1,2.51,2.16,5.66,5.66,0,0,1,1,3.45,6.11,6.11,0,0,1-1,3.51A7.88,7.88,0,0,1,188,42.56a11.1,11.1,0,0,1-3.35,1.31,16.94,16.94,0,0,1-3.61.41q-5.7,0-8.75-2.54t-3-8H168q0,6.09,3.29,8.91t9.75,2.82a19.25,19.25,0,0,0,4.17-.47A11.39,11.39,0,0,0,189,43.46a8.51,8.51,0,0,0,2.69-2.75,7.8,7.8,0,0,0,1-4.14,7,7,0,0,0-.91-3.77,7.65,7.65,0,0,0-2.39-2.38A12.36,12.36,0,0,0,186.12,29c-1.24-.36-2.48-.71-3.73-1l-4.61-1.19a28.73,28.73,0,0,1-3.67-1.19,6.13,6.13,0,0,1-2.6-2,6,6,0,0,1-1-3.67,8.8,8.8,0,0,1,.26-1.57A5.55,5.55,0,0,1,172,16,7.94,7.94,0,0,1,174.86,14a12.78,12.78,0,0,1,5.33-.91,16.5,16.5,0,0,1,4.24.5,8.79,8.79,0,0,1,3.29,1.6,7.23,7.23,0,0,1,2.13,2.79,10.2,10.2,0,0,1,.76,4.14Z"/></g></g></svg>