<svg xmlns="http://www.w3.org/2000/svg" xmlns:xlink="http://www.w3.org/1999/xlink" viewBox="0 0 158.45 97.04"><defs><style>.cls-1{fill:none;}.cls-2{fill:#689f63;}.cls-3{fill:#333;}.cls-4{clip-path:url(#clip-path);}.cls-5{fill:url(#linear-gradient);}.cls-6{clip-path:url(#clip-path-2);}.cls-7{fill:url(#linear-gradient-2);}.cls-8{clip-path:url(#clip-path-3);}.cls-9{fill:url(#linear-gradient-3);}</style><clipPath id="clip-path"><path class="cls-1" d="M57.57,22.42,42.48,31.13a1.81,1.81,0,0,0-.91,1.58V50.14a1.82,1.82,0,0,0,.91,1.58l15.09,8.71a1.8,1.8,0,0,0,1.82,0l15.09-8.71a1.82,1.82,0,0,0,.91-1.58V32.71a1.81,1.81,0,0,0-.91-1.58L59.39,22.42a1.85,1.85,0,0,0-.91-.24,1.82,1.82,0,0,0-.91.24"/></clipPath><linearGradient id="linear-gradient" x1="-406.96" y1="892.04" x2="-406.53" y2="892.04" gradientTransform="matrix(-50.75, 103.54, 103.54, 50.75, -112943.29, -3120.12)" gradientUnits="userSpaceOnUse"><stop offset="0.3" stop-color="#3e863d"/><stop offset="0.5" stop-color="#55934f"/><stop offset="0.8" stop-color="#5aad45"/></linearGradient><clipPath id="clip-path-2"><path class="cls-1" d="M41.94,51.25a2,2,0,0,0,.54.47l12.94,7.47,2.16,1.24a1.77,1.77,0,0,0,1.05.24l.36-.06L74.9,31.46a1.7,1.7,0,0,0-.42-.33L64.6,25.42l-5.22-3a1.66,1.66,0,0,0-.48-.19Z"/></clipPath><linearGradient id="linear-gradient-2" x1="-403.41" y1="890.66" x2="-403.13" y2="890.66" gradientTransform="matrix(142.41, -105.22, -105.22, -142.41, 151204.47, 84444.74)" gradientUnits="userSpaceOnUse"><stop offset="0.57" stop-color="#3e863d"/><stop offset="0.72" stop-color="#619857"/><stop offset="1" stop-color="#76ac64"/></linearGradient><clipPath id="clip-path-3"><path class="cls-1" d="M58.3,22.19a1.78,1.78,0,0,0-.73.23l-15,8.68L58.75,60.66a1.75,1.75,0,0,0,.65-.23l15.09-8.71a1.86,1.86,0,0,0,.88-1.25L58.83,22.21a2.31,2.31,0,0,0-.37,0h-.15"/></clipPath><linearGradient id="linear-gradient-3" x1="-402.73" y1="891.99" x2="-402.47" y2="891.99" gradientTransform="matrix(129.89, 0, 0, -129.89, 52352.23, 115900.99)" gradientUnits="userSpaceOnUse"><stop offset="0.16" stop-color="#6bbf47"/><stop offset="0.38" stop-color="#79b461"/><stop offset="0.47" stop-color="#75ac64"/><stop offset="0.7" stop-color="#659e5a"/><stop offset="0.9" stop-color="#3e863d"/></linearGradient></defs><title>Ресурс 2</title><g id="Слой_2" data-name="Слой 2"><g id="Layer_1" data-name="Layer 1"><path class="cls-2" d="M78.32,97a2.91,2.91,0,0,1-1.5-.4L72,93.81c-.71-.39-.37-.54-.13-.62a9.9,9.9,0,0,0,2.16-1,.36.36,0,0,1,.35,0l3.67,2.18a.51.51,0,0,0,.45,0l14.31-8.26a.45.45,0,0,0,.22-.39V69.25a.45.45,0,0,0-.23-.39l-14.3-8.25a.43.43,0,0,0-.44,0L63.8,68.86a.45.45,0,0,0-.23.39V85.76a.44.44,0,0,0,.22.38l3.92,2.27c2.13,1.06,3.43-.19,3.43-1.45V70.66a.41.41,0,0,1,.42-.41h1.81a.41.41,0,0,1,.41.41V87c0,2.84-1.55,4.47-4.24,4.47a6.18,6.18,0,0,1-3.3-.89l-3.75-2.17A3,3,0,0,1,61,85.76V69.25a3,3,0,0,1,1.5-2.61l14.32-8.26a3.15,3.15,0,0,1,3,0l14.31,8.26a3,3,0,0,1,1.5,2.61V85.76a3,3,0,0,1-1.5,2.61L79.82,96.64a3,3,0,0,1-1.5.4"/><path class="cls-2" d="M82.74,85.67c-6.26,0-7.58-2.88-7.58-5.29a.41.41,0,0,1,.42-.41h1.85a.41.41,0,0,1,.4.35c.28,1.88,1.11,2.83,4.9,2.83,3,0,4.3-.68,4.3-2.28,0-.92-.37-1.6-5-2.06-3.92-.39-6.34-1.25-6.34-4.39,0-2.88,2.43-4.6,6.51-4.6,4.59,0,6.86,1.59,7.14,5a.4.4,0,0,1-.11.31.41.41,0,0,1-.3.14H87a.41.41,0,0,1-.4-.32c-.45-2-1.53-2.62-4.47-2.62-3.29,0-3.68,1.15-3.68,2,0,1,.45,1.34,4.89,1.93s6.49,1.41,6.49,4.5-2.6,4.9-7.13,4.9m17.43-17.51h.48a.42.42,0,0,0,.47-.44c0-.42-.3-.42-.46-.42h-.49Zm-.59-1.35h1.07c.36,0,1.08,0,1.08.81a.71.71,0,0,1-.59.76c.43,0,.46.31.52.71a2.58,2.58,0,0,0,.16.81h-.66c0-.14-.12-.93-.12-1s-.1-.26-.32-.26h-.54v1.24h-.6Zm-1.28,1.54a2.32,2.32,0,1,0,2.31-2.31,2.32,2.32,0,0,0-2.31,2.31m5.07,0a2.76,2.76,0,1,1-2.76-2.75,2.77,2.77,0,0,1,2.76,2.75"/><path class="cls-3" d="M34,32.43a1.83,1.83,0,0,0-.92-1.59L17.92,22.11a1.81,1.81,0,0,0-.84-.24h-.15a1.81,1.81,0,0,0-.84.24L.92,30.84A1.85,1.85,0,0,0,0,32.44L0,56a.9.9,0,0,0,.46.79.88.88,0,0,0,.91,0l9-5.17A1.83,1.83,0,0,0,11.33,50V39a1.83,1.83,0,0,1,.92-1.59l3.84-2.21a1.8,1.8,0,0,1,1.83,0l3.84,2.21A1.84,1.84,0,0,1,22.67,39V50a1.84,1.84,0,0,0,.92,1.59l9,5.16a.89.89,0,0,0,.92,0,.91.91,0,0,0,.46-.79ZM105.6,44.68a.45.45,0,0,1-.23.39l-5.21,3a.47.47,0,0,1-.46,0l-5.21-3a.43.43,0,0,1-.23-.39v-6a.46.46,0,0,1,.22-.4l5.21-3a.47.47,0,0,1,.46,0l5.21,3a.45.45,0,0,1,.23.4ZM107,.12a.9.9,0,0,0-.91,0,.9.9,0,0,0-.45.79V24.2a.62.62,0,0,1-.32.55.61.61,0,0,1-.64,0l-3.8-2.18a1.82,1.82,0,0,0-1.83,0L83.87,31.32A1.84,1.84,0,0,0,83,32.91V50.43A1.83,1.83,0,0,0,83.87,52l15.18,8.76a1.82,1.82,0,0,0,1.83,0L116.06,52a1.84,1.84,0,0,0,.91-1.58V6.76a1.82,1.82,0,0,0-.94-1.6ZM157.54,38.5a1.82,1.82,0,0,0,.91-1.58V32.67a1.83,1.83,0,0,0-.91-1.58l-15.08-8.76a1.83,1.83,0,0,0-1.84,0l-15.17,8.76a1.83,1.83,0,0,0-.92,1.59V50.19a1.86,1.86,0,0,0,.93,1.6l15.07,8.59a1.83,1.83,0,0,0,1.8,0l9.12-5.07a.91.91,0,0,0,.47-.79.93.93,0,0,0-.46-.8L136.19,45a.94.94,0,0,1-.46-.8V38.68a.89.89,0,0,1,.46-.79l4.75-2.74a.88.88,0,0,1,.91,0l4.75,2.74a.89.89,0,0,1,.46.79V43a.92.92,0,0,0,.46.79.94.94,0,0,0,.92,0Z"/><path class="cls-2" d="M141.32,37.68a.36.36,0,0,1,.35,0l2.91,1.68a.35.35,0,0,1,.18.31V43a.35.35,0,0,1-.18.3L141.67,45a.32.32,0,0,1-.35,0l-2.91-1.68a.35.35,0,0,1-.18-.3V39.67a.33.33,0,0,1,.18-.31Z"/><g class="cls-4"><path class="cls-5" d="M90.64,29.65,48.12,8.81,26.32,53.28,68.84,74.13Z"/></g><g class="cls-6"><path class="cls-7" d="M23.56,35.81l30,40.64L93.29,47.11l-30-40.63Z"/></g><g class="cls-8"><path class="cls-9" d="M42.52,22.18V60.66H75.36V22.18Z"/></g></g></g></svg>