<svg xmlns="http://www.w3.org/2000/svg" viewBox="0 0 154.38 64.5"><defs><style>.cls-1{fill:#362701;}.cls-2{fill:#f03c2e;}</style></defs><title>Ресурс 6</title><g id="Слой_2" data-name="Слой 2"><g id="Layer_1" data-name="Layer 1"><path class="cls-1" d="M92.52,22c-3.38,0-5.91,1.65-5.91,5.66,0,3,1.66,5.11,5.73,5.11,3.44,0,5.79-2,5.79-5.22C98.13,23.88,96,22,92.52,22ZM85.74,50.21a5.42,5.42,0,0,0-1.59,3.26c0,2.46,3.14,3.2,7.45,3.2,3.57,0,8.43-.25,8.43-3.57,0-2-2.34-2.09-5.3-2.28l-9-.61Zm18.23-28a9.73,9.73,0,0,1,2.28,6.21c0,6.83-5.36,10.82-13.11,10.82a19.2,19.2,0,0,1-4.85-.55l-2.05,3.27,6,.37c10.65.67,16.92,1,16.92,9.17,0,7.07-6.21,11.08-16.92,11.08-11.12,0-15.37-2.83-15.37-7.69,0-2.77,1.24-4.25,3.38-6.27a4.09,4.09,0,0,1-2.7-4.06,5.46,5.46,0,0,1,1.78-3.74c1.11-1.18,2.33-2.33,3.81-3.7-3-1.48-5.29-4.68-5.29-9.23,0-7.08,4.68-11.93,14.09-11.93a21.19,21.19,0,0,1,5.66.61h12v5.22l-5.66.42M120.47,11c-3.51,0-5.54-2-5.54-5.55S117,0,120.47,0s5.59,1.91,5.59,5.42S124,11,120.47,11Zm-8,37V43.1l3.14-.43c.87-.13,1-.31,1-1.24V23.33c0-.67-.18-1.1-.81-1.28l-3.32-1.18.67-5h12.74V41.43c0,1,.06,1.11,1,1.24l3.13.43V48H112.52m41.86-2.4a24.67,24.67,0,0,1-10,2.46c-7.32,0-10.09-2.94-10.09-9.91V22c0-.37,0-.61-.49-.61h-4.31V15.91c5.42-.62,7.57-3.33,8.25-10h5.85V14.6c0,.44,0,.61.5.61h8.67v6.16h-9.17v14.7c0,3.64.87,5,4.18,5a14.82,14.82,0,0,0,5-1l1.65,5.42"/><path class="cls-2" d="M63.21,29.41,35.07,1.29a4.13,4.13,0,0,0-5.87,0L23.36,7.12l7.42,7.42A4.92,4.92,0,0,1,37,20.81L44.16,28a4.92,4.92,0,1,1-3,2.78l-6.66-6.66V41.6a4.74,4.74,0,0,1,1.3.94,4.94,4.94,0,1,1-7,0,4.78,4.78,0,0,1,1.63-1.08V23.77a4.93,4.93,0,0,1-2.69-6.48L20.5,10,1.22,29.29a4.13,4.13,0,0,0,0,5.87L29.35,63.28a4.13,4.13,0,0,0,5.87,0l28-28a4.13,4.13,0,0,0,0-5.87"/></g></g></svg>