<svg xmlns="http://www.w3.org/2000/svg" viewBox="0 0 35.48 43.13"><defs><style>.cls-1{fill:none;stroke:#4520ab;stroke-linecap:round;stroke-linejoin:round;stroke-width:1.48px;}.cls-2{fill:#4520ab;}</style></defs><title>Ресурс 3</title><g id="Слой_2" data-name="Слой 2"><g id="Layer_1" data-name="Layer 1"><path class="cls-1" d="M27.09,12.49v-.84C27.09,5.38,24,.74,17.74.74S8.39,5.43,8.39,11.65v.84"/><rect class="cls-1" x="0.74" y="15.19" width="34" height="27.2" rx="5.1"/><path class="cls-2" d="M13.18,24.36h0l-2.37,1.28-.36-1.4,3-1.6H15V36.28H13.18Z"/><path class="cls-2" d="M27.13,29.32c0,4.63-1.72,7.19-4.74,7.19-2.67,0-4.47-2.49-4.52-7s2-7.09,4.75-7.09S27.13,25,27.13,29.32Zm-7.41.21c0,3.54,1.09,5.56,2.77,5.56,1.89,0,2.79-2.21,2.79-5.69s-.86-5.56-2.77-5.56C20.9,23.84,19.72,25.81,19.72,29.53Z"/></g></g></svg>