<svg xmlns="http://www.w3.org/2000/svg" viewBox="0 0 70 70"><defs><style>.cls-1{fill:#65dbf8;}.cls-2{fill:#f2f2f2;}</style></defs><title>Ресурс 11</title><g id="Слой_2" data-name="Слой 2"><g id="Layer_1" data-name="Layer 1"><circle class="cls-1" cx="35" cy="35" r="35"/><path class="cls-2" d="M24.85,27.5a6.19,6.19,0,1,0-6.19-6.19A6.2,6.2,0,0,0,24.85,27.5Zm0-10.38a4.19,4.19,0,1,1-4.19,4.19A4.2,4.2,0,0,1,24.85,17.12Z"/><path class="cls-2" d="M45,27.5a6.19,6.19,0,1,0-6.19-6.19A6.2,6.2,0,0,0,45,27.5Zm0-10.38a4.19,4.19,0,1,1-4.19,4.19A4.2,4.2,0,0,1,45,17.12Z"/><rect class="cls-2" x="30.68" y="46.57" width="10.6" height="2" transform="translate(-22.13 61) rotate(-65.91)"/><polygon class="cls-2" points="39.34 45.81 41.14 47.57 39.34 49.34 40.75 50.76 43.98 47.57 40.75 44.38 39.34 45.81"/><polygon class="cls-2" points="31.2 44.38 27.97 47.57 31.2 50.76 32.61 49.34 30.82 47.57 32.61 45.81 31.2 44.38"/><path class="cls-2" d="M58.08,43V41.36c-.12-3.27-.49-6.7-.54-7.16A6.53,6.53,0,0,0,56.6,31a5.73,5.73,0,0,0-3-2.53l-4.73-1.71-3.69,6.91h-.09l-3.7-6.84-4.7,1.7a5.12,5.12,0,0,0-1.7,1,5.06,5.06,0,0,0-1.69-1l-4.72-1.71-3.7,6.84h-.08l-3.63-6.85-4.74,1.72a5.75,5.75,0,0,0-3,2.53,6.47,6.47,0,0,0-.94,3.12l0,.22c-.27,2.62-.44,5-.52,7.07V43H25.64a11.31,11.31,0,1,0,20.67,0ZM37.33,30.41l3.1-1.13,3.45,6.38h2.47l3.45-6.44,3.09,1.12a3.76,3.76,0,0,1,2,1.65,4.67,4.67,0,0,1,.67,2.26v.11s.37,3.38.52,6.65H45.17l-.12-.15q-.28-.39-.6-.75l-.28-.31c-.19-.19-.38-.38-.58-.56l-.34-.31c-.23-.19-.46-.37-.7-.54L42,38c-.23-.15-.47-.29-.72-.43l-.48-.23c-.21-.1-.42-.2-.64-.28a5,5,0,0,0-.5-.18,5.83,5.83,0,0,0-.71-.22l-.47-.13-.83-.15-.41-.06c-.41,0-.83-.07-1.26-.07h-.14V31.42A3.66,3.66,0,0,1,37.33,30.41ZM26.78,41H13.94c.08-1.89.25-4,.49-6.41,0-.21,0-.33,0-.35a4.73,4.73,0,0,1,.67-2.2,3.81,3.81,0,0,1,2-1.64l3.1-1.12,3.38,6.37h2.48l3.44-6.38,3.13,1.14a3.27,3.27,0,0,1,1.21.74v5.32l-.36.07-.48.13a6.43,6.43,0,0,0-.71.22,4.84,4.84,0,0,0-.49.18c-.22.08-.44.18-.65.28l-.48.23L30,38l-.55.37c-.23.17-.47.35-.69.54l-.35.31c-.2.18-.39.37-.57.56l-.29.31q-.32.36-.6.75ZM36,56.88a9.3,9.3,0,0,1-7.81-14.36,10.41,10.41,0,0,1,.68-.92l0,0a9,9,0,0,1,.67-.71l.25-.23c.18-.16.36-.31.55-.45l.3-.23c.23-.15.46-.3.69-.43l.23-.14c.29-.15.58-.29.88-.41l.34-.12c.22-.08.45-.16.67-.22l.37-.1c.24-.05.48-.1.73-.13l.33-.06A9.51,9.51,0,0,1,36,38.27a9.77,9.77,0,0,1,1.08.06l.33.06c.24,0,.48.08.72.13l.37.1c.23.06.45.14.67.22l.34.12a8.82,8.82,0,0,1,.88.41l.23.14c.23.13.47.28.69.43l.3.23c.19.14.37.29.55.45l.25.23a7.5,7.5,0,0,1,.67.71l0,0a10.31,10.31,0,0,1,.67.92,9.22,9.22,0,0,1,1.5,5A9.32,9.32,0,0,1,36,56.88Z"/></g></g></svg>