<svg xmlns="http://www.w3.org/2000/svg" viewBox="0 0 126.52 147.92"><defs><style>.cls-1{fill:#4520ab;}.cls-2{fill:#65dbf8;}.cls-3{fill:none;stroke:#4520ab;stroke-linecap:round;stroke-linejoin:round;stroke-width:2px;}</style></defs><title>Ресурс 14</title><g id="Слой_2" data-name="Слой 2"><g id="Layer_1" data-name="Layer 1"><path class="cls-1" d="M14.67,133.9a5.31,5.31,0,0,1,.62,2.62,6.06,6.06,0,0,1-.74,3,5.28,5.28,0,0,1-2.09,2,6.16,6.16,0,0,1-3.05.75h-7v-19.6H9a6.25,6.25,0,0,1,3,.73,5.23,5.23,0,0,1,2.09,2,5.57,5.57,0,0,1,.74,2.84,4.87,4.87,0,0,1-.51,2.27,4.1,4.1,0,0,1-1.45,1.59A4.55,4.55,0,0,1,14.67,133.9Zm-9-8.05v4.9h2.8a3.36,3.36,0,0,0,2.28-.67,2.23,2.23,0,0,0,.77-1.79,2.19,2.19,0,0,0-.77-1.76,3.36,3.36,0,0,0-2.28-.68Zm5.52,12.63a2.55,2.55,0,0,0,.75-2,2.52,2.52,0,0,0-.75-1.93,3.28,3.28,0,0,0-2.3-.7H5.71v5.29H8.93A3.28,3.28,0,0,0,11.23,138.48Z" transform="translate(-2.41)"/><path class="cls-1" d="M27.48,128.82a5.87,5.87,0,0,1,2.42,2.44,9.42,9.42,0,0,1,0,8.12,5.84,5.84,0,0,1-2.42,2.43,6.8,6.8,0,0,1-6.36,0,5.9,5.9,0,0,1-2.42-2.43,9.42,9.42,0,0,1,0-8.12,5.93,5.93,0,0,1,2.42-2.44,6.87,6.87,0,0,1,6.36,0Zm-.8,9.59a4.86,4.86,0,0,0,.84-3.09,4.64,4.64,0,0,0-.9-3.08,3.13,3.13,0,0,0-4.7,0,4.88,4.88,0,0,0-.84,3.1,4.66,4.66,0,0,0,.9,3.08,2.88,2.88,0,0,0,2.32,1.06A2.87,2.87,0,0,0,26.68,138.41Z" transform="translate(-2.41)"/><path class="cls-1" d="M43.54,128.82A5.93,5.93,0,0,1,46,131.26a9.42,9.42,0,0,1,0,8.12,5.9,5.9,0,0,1-2.42,2.43,6.8,6.8,0,0,1-6.36,0,5.84,5.84,0,0,1-2.42-2.43,9.33,9.33,0,0,1,0-8.12,5.87,5.87,0,0,1,2.42-2.44,6.87,6.87,0,0,1,6.36,0Zm-.8,9.59a4.86,4.86,0,0,0,.84-3.09,4.64,4.64,0,0,0-.9-3.08,3.13,3.13,0,0,0-4.7,0,4.88,4.88,0,0,0-.84,3.1A4.71,4.71,0,0,0,38,138.4a2.91,2.91,0,0,0,2.33,1.06A2.87,2.87,0,0,0,42.74,138.41Z" transform="translate(-2.41)"/><path class="cls-1" d="M63.39,141.37a6.89,6.89,0,0,1-2.28.92,12.7,12.7,0,0,1-2.73.31A5.46,5.46,0,0,1,54.12,141a6.18,6.18,0,0,1-1.48-4.34v-5.18h-3.5v-3.13h3.5a9,9,0,0,0,1-4h2.29v4h7v3.13h-7v4.93c0,2.05.94,3.08,2.8,3.08a8.05,8.05,0,0,0,2.06-.29,7.51,7.51,0,0,0,2-.89Z" transform="translate(-2.41)"/><path class="cls-1" d="M78.94,139.24a9.16,9.16,0,0,1-2.7,2.56,6.55,6.55,0,0,1-3.32.8,7.28,7.28,0,0,1-3.31-.8A6.38,6.38,0,0,1,67,139.36a7.5,7.5,0,0,1-1-4,8,8,0,0,1,.94-4.08,6,6,0,0,1,2.43-2.42,6.86,6.86,0,0,1,3.21-.78,6.93,6.93,0,0,1,3.19.68A9.32,9.32,0,0,1,78.44,131L76,132.91a6.14,6.14,0,0,0-1.47-1.32,3.47,3.47,0,0,0-1.78-.42,3.13,3.13,0,0,0-2.49,1.05,4.54,4.54,0,0,0-.93,3.1,4.14,4.14,0,0,0,1.08,3.06,3.66,3.66,0,0,0,2.7,1.08,3.3,3.3,0,0,0,1.75-.47,6,6,0,0,0,1.58-1.57Z" transform="translate(-2.41)"/><path class="cls-1" d="M92,142.32c-.06-.64-.1-1.79-.14-3.47a7.17,7.17,0,0,1-2.09,2.77,5.29,5.29,0,0,1-3.31,1,6,6,0,0,1-2.57-.51,3.8,3.8,0,0,1-1.62-1.33,3.23,3.23,0,0,1-.55-1.8,4.49,4.49,0,0,1,.94-2.86,5.64,5.64,0,0,1,2.49-1.75,9.75,9.75,0,0,1,3.38-.57,12.3,12.3,0,0,1,2.32.22,2.77,2.77,0,0,0-.75-2.11,2.74,2.74,0,0,0-2-.72,7,7,0,0,0-3.92,1.18l-2-2.41a11.18,11.18,0,0,1,3-1.48,10.76,10.76,0,0,1,3-.42,5.69,5.69,0,0,1,4.34,1.59c1,1.07,1.52,2.91,1.52,5.55v.95a23.21,23.21,0,0,0,1.14,6.19Zm-2.67-3.5a3.09,3.09,0,0,0,1.52-2v0a10.54,10.54,0,0,0-2-.17,6,6,0,0,0-2.78.55c-.69.36-1,.81-1,1.33a.77.77,0,0,0,.52.7,2.93,2.93,0,0,0,1.3.25A5,5,0,0,0,89.3,138.82Z" transform="translate(-2.41)"/><path class="cls-1" d="M111.77,129.26a7.8,7.8,0,0,1,.76,4v9.08h-3.31v-8.54a7.81,7.81,0,0,0-.18-2.05.68.68,0,0,0-.66-.56c-.5,0-.85.47-1,1.42A24.62,24.62,0,0,0,107,137v5.29h-3.3v-8.54a7.69,7.69,0,0,0-.19-2.05.68.68,0,0,0-.65-.56c-.51,0-.86.47-1.05,1.42a23.51,23.51,0,0,0-.3,4.44v5.29h-3.3v-7.87a13.92,13.92,0,0,0-.3-2.9c-.19-.94-.48-2-.85-3.23h3.3a21.93,21.93,0,0,1,.2,2.83,5.36,5.36,0,0,1,1.22-2.29,2.63,2.63,0,0,1,2-.82,3.22,3.22,0,0,1,1.75.43,2.68,2.68,0,0,1,1,1.39,2.94,2.94,0,0,1,2.69-1.82A2.68,2.68,0,0,1,111.77,129.26Z" transform="translate(-2.41)"/><path class="cls-1" d="M125.81,128.83a6.28,6.28,0,0,1,2.23,2.45,9.61,9.61,0,0,1,0,8.08,6.17,6.17,0,0,1-2.26,2.44,5.34,5.34,0,0,1-2.73.8,4.6,4.6,0,0,1-3.5-1.43v6.75h-3.3V136.13a27.1,27.1,0,0,0-1.15-7.81h3.3c0,.72,0,1.68.09,2.85a5.26,5.26,0,0,1,1.8-2.32,4.88,4.88,0,0,1,2.85-.81A5.17,5.17,0,0,1,125.81,128.83Zm-1,9.58a5,5,0,0,0,.81-3.09,4.75,4.75,0,0,0-.88-3.08,2.81,2.81,0,0,0-2.26-1.07,2.47,2.47,0,0,0-2.17,1.18,5.33,5.33,0,0,0-.77,3,5.16,5.16,0,0,0,.79,3,2.59,2.59,0,0,0,2.29,1.16A2.63,2.63,0,0,0,124.82,138.41Z" transform="translate(-2.41)"/><circle class="cls-2" cx="59.63" cy="44.21" r="43.8"/><line class="cls-3" x1="66.06" y1="24.66" x2="55.03" y2="52.51"/><polyline class="cls-3" points="69.28 30.78 79.76 38.72 68.9 46.97"/><polyline class="cls-3" points="51.42 30.78 40.94 38.72 51.81 46.97"/><rect class="cls-3" x="31.96" y="17.99" width="57.59" height="41.67"/><polyline class="cls-3" points="56.6 59.65 56.6 65.22 96.18 65.22 96.18 23.29 90.28 23.29"/><polyline class="cls-3" points="96.92 28.6 109 28.6 101.15 49.72 109.16 70.27 80.71 70.27 80.71 65.14"/><line class="cls-3" x1="31.96" y1="12.73" x2="31.96" y2="103.18"/><circle class="cls-3" cx="32.02" cy="6.44" r="5.44"/></g></g></svg>