<?xml version="1.0" encoding="utf-8"?>
<!-- Generator: Adobe Illustrator 22.0.1, SVG Export Plug-In . SVG Version: 6.00 Build 0)  -->
<svg version="1.1" id="Layer_1" xmlns="http://www.w3.org/2000/svg" xmlns:xlink="http://www.w3.org/1999/xlink" x="0px" y="0px"
	 viewBox="0 0 86.1 89.9" style="enable-background:new 0 0 86.1 89.9;" xml:space="preserve">
<style type="text/css">
	.st0{fill:#65DBF8;}
	.st1{fill:#4520AB;}
</style>
<g>
	<circle class="st0" cx="38.3" cy="43.1" r="38.3"/>
	<path class="st1" d="M85.9,61.8C85.9,61.7,85.9,61.7,85.9,61.8c0.1-0.1,0.1-0.2,0.1-0.2c0,0,0-0.1,0-0.1c0,0,0-0.1,0-0.1
		c0,0,0-0.1,0-0.1c0,0,0,0,0-0.1c0,0,0,0,0,0c0,0,0-0.1,0-0.1c0,0,0-0.1,0-0.1c0,0,0,0,0,0l-5.4-18l5.4-18c0,0,0,0,0,0
		c0,0,0-0.1,0-0.1c0,0,0-0.1,0-0.1c0,0,0,0,0,0c0,0,0,0,0-0.1c0,0,0-0.1,0-0.1c0,0,0-0.1,0-0.1c0,0,0-0.1,0-0.1c0,0,0-0.1,0-0.1
		c0,0,0-0.1,0-0.1c0,0,0-0.1-0.1-0.1c0,0,0-0.1-0.1-0.1c0,0,0,0-0.1-0.1c0,0-0.1,0-0.1-0.1c0,0-0.1,0-0.1-0.1c0,0-0.1,0-0.1,0
		c0,0-0.1,0-0.1,0c0,0,0,0-0.1,0c0,0,0,0,0,0c0,0-0.1,0-0.1,0c0,0-0.1,0-0.1,0c0,0,0,0,0,0H73v-3.7c0-0.6-0.5-1.1-1.1-1.1h-12v-3.7
		c0-0.6-0.5-1.1-1.1-1.1H33.7v-3.6c2.4-0.5,4.2-2.6,4.2-5.1c0-2.9-2.4-5.3-5.3-5.3c-2.9,0-5.3,2.4-5.3,5.3c0,2.5,1.8,4.7,4.2,5.1
		v78.4c0,0.6,0.5,1.1,1.1,1.1s1.1-0.5,1.1-1.1v-36h11v3.7c0,0.6,0.5,1.1,1.1,1.1h12v3.7c0,0.6,0.5,1.1,1.1,1.1H85c0,0,0,0,0,0
		c0.1,0,0.1,0,0.2,0c0,0,0,0,0.1,0c0,0,0,0,0.1,0c0,0,0,0,0,0c0,0,0.1,0,0.1,0c0,0,0.1,0,0.1,0c0,0,0.1,0,0.1-0.1c0,0,0.1,0,0.1-0.1
		c0,0,0,0,0.1-0.1C85.8,61.9,85.8,61.9,85.9,61.8C85.9,61.8,85.9,61.8,85.9,61.8z M29.5,5.3c0-1.7,1.4-3.1,3.1-3.1
		c1.7,0,3.1,1.4,3.1,3.1c0,1.7-1.4,3.1-3.1,3.1c0,0,0,0,0,0c0,0,0,0,0,0C30.9,8.4,29.5,7,29.5,5.3z M33.7,16.2h24v34.5h-24V16.2z
		 M46.8,52.8h12c0,0,0,0,0,0c0.6,0,1.1-0.5,1.1-1.1V24.6c0,0,0,0,0,0v-3.7h11v34.5h-24L46.8,52.8L46.8,52.8z M59.9,57.5h12
		c0.6,0,1.1-0.5,1.1-1.1V25.6h10.6l-5.1,16.9c-0.1,0.2-0.1,0.4,0,0.6l5.1,16.9H59.9V57.5z"/>
</g>
</svg>
