<?xml version="1.0" encoding="utf-8"?>
<!-- Generator: Adobe Illustrator 22.0.1, SVG Export Plug-In . SVG Version: 6.00 Build 0)  -->
<svg version="1.1" id="Layer_1" xmlns="http://www.w3.org/2000/svg" xmlns:xlink="http://www.w3.org/1999/xlink" x="0px" y="0px"
	 viewBox="0 0 87.3 82.7" style="enable-background:new 0 0 87.3 82.7;" xml:space="preserve">
<style type="text/css">
	.st0{fill:#65DBF8;}
	.st1{fill:#4520AB;}
</style>
<circle class="st0" cx="38.3" cy="38.3" r="38.3"/>
<g>
	<g>
		<path class="st1" d="M86.3,82.7H18.5c-0.6,0-1-0.4-1-1V13.8c0-0.6,0.4-1,1-1h67.9c0.6,0,1,0.4,1,1v67.9
			C87.3,82.3,86.9,82.7,86.3,82.7z M19.5,80.7h65.9V14.8H19.5V80.7z"/>
	</g>
	<g>
		<path class="st1" d="M70.5,77.4c-5.7,0-10.2-2.6-12.5-7.1c-0.2-0.5-0.1-1,0.4-1.3l5.2-3c0.5-0.3,1.1-0.1,1.4,0.3
			c1.5,2.4,3.1,3.4,5.4,3.4c2,0,3.3-0.9,3.3-2.1c0-1.4-1-2-4-3.3l-1.6-0.7c-4.3-1.8-8.3-4.4-8.3-10.5c0-5.5,4.3-9.4,10.3-9.4
			c4.6,0,7.8,1.8,9.9,5.6c0.3,0.5,0.1,1-0.3,1.3l-5,3.2c-0.2,0.1-0.5,0.2-0.8,0.1c-0.3-0.1-0.5-0.2-0.6-0.5c-1-1.9-2-2.2-3.2-2.2
			c-1.2,0-2.1,0.7-2.1,1.7c0,1.2,0.5,1.7,3.3,3l1.6,0.7c5.6,2.4,9.1,5.1,9.1,10.9C82.1,73.5,77.5,77.4,70.5,77.4z M60.2,70.3
			c2.1,3.3,5.7,5.2,10.3,5.2c4.6,0,9.6-2.1,9.6-7.9c0-4.8-2.8-6.9-7.9-9.1l-1.6-0.7c-2.7-1.1-4.5-2.2-4.5-4.8c0-2.2,1.7-3.7,4.1-3.7
			c1.9,0,3.3,0.7,4.4,2.3l3.3-2.1c-1.8-2.6-4.1-3.8-7.7-3.8c-4.9,0-8.3,3.1-8.3,7.4c0,4.7,2.8,6.9,7.1,8.7l1.6,0.7
			c2.9,1.3,5.2,2.3,5.2,5.2c0,2.4-2.2,4.1-5.3,4.1c-3.4,0-5.4-1.8-6.6-3.5L60.2,70.3z M45.9,77.4c-4.8,0-8.5-2.3-10.5-6.4
			c-0.2-0.5-0.1-1,0.4-1.3l5.2-3.1c0.2-0.1,0.5-0.2,0.8-0.1c0.3,0.1,0.5,0.2,0.6,0.5c1.1,1.9,1.7,2.8,3.2,2.8c1.4,0,2.4-0.2,2.4-3
			V45c0-0.6,0.4-1,1-1h6.4c0.6,0,1,0.4,1,1v21.8C56.4,73.5,52.6,77.4,45.9,77.4z M37.7,70.9c1.3,2.2,3.7,4.5,8.2,4.5
			c3.9,0,8.5-1.5,8.5-8.6V46h-4.4v20.7c0,3.4-1.4,5-4.4,5c-2.4,0-3.6-1.4-4.5-2.9L37.7,70.9z"/>
	</g>
</g>
</svg>
