<svg xmlns="http://www.w3.org/2000/svg" viewBox="0 0 28.91 28.91"><defs><style>.cls-1{fill:#4520ab;}</style></defs><title>Ресурс 11</title><g id="Слой_2" data-name="Слой 2"><g id="Layer_1" data-name="Layer 1"><path class="cls-1" d="M20.73,26.5a6.73,6.73,0,0,1-4.59,1.88c-4.49,0-7.36-3.07-7.36-7.76,0-4.32,3.5-7.75,8.35-7.75a12.26,12.26,0,0,1,6.24,1.68v11h.69c2.77,0,4.52-2.8,4.52-6.43,0-5.88-4.65-10.5-11.65-10.5s-12.31,4.85-12.31,12c0,6.87,5.38,12,12.31,12a15.82,15.82,0,0,0,3.57-.39l.16,2.44a17.47,17.47,0,0,1-3.73.43c-8.55,0-14.78-6.2-14.78-14.46,0-8,6.23-14.45,14.78-14.45,8.05,0,14.13,5.25,14.13,12.94,0,4.48-2.54,8.94-7.59,8.94H20.73Zm0-2.54V16.3a7.31,7.31,0,0,0-3.63-1,5.31,5.31,0,0,0-5.52,5.42c0,3.23,2.05,5.14,5,5.14A5.91,5.91,0,0,0,20.73,24Z" transform="translate(-2.15 -6.17)"/></g></g></svg>