<?xml version="1.0" encoding="utf-8"?>
<!-- Generator: Adobe Illustrator 22.1.0, SVG Export Plug-In . SVG Version: 6.00 Build 0)  -->
<svg version="1.1" id="Слой_1" xmlns="http://www.w3.org/2000/svg" xmlns:xlink="http://www.w3.org/1999/xlink" x="0px" y="0px"
	 viewBox="0 0 31.9 55.7" style="enable-background:new 0 0 31.9 55.7;" xml:space="preserve">
<style type="text/css">
	.st0{fill:none;stroke:#4520AB;stroke-width:1.76;stroke-linecap:round;stroke-linejoin:round;}
	.st1{clip-path:url(#SVGID_2_);}
	.st2{fill:#4520AB;}
</style>
<title>Ресурс 10</title>
<g id="Слой_2_1_">
	<g id="Layer_1">
		<path class="st0" d="M6,0.9h20c2.8,0,5,2.2,5,5v43.9c0,2.8-2.2,5-5,5H6c-2.8,0-5-2.2-5-5V5.9C1,3.1,3.3,0.9,6,0.9z"/>
		<line class="st0" x1="1" y1="42.9" x2="31" y2="42.9"/>
		<line class="st0" x1="1" y1="7.9" x2="31" y2="7.9"/>
		<circle class="st0" cx="16" cy="48.9" r="2"/>
		<g>
			<defs>
				<rect id="SVGID_1_" x="5.1" y="11.5" width="21.9" height="28.7"/>
			</defs>
			<clipPath id="SVGID_2_">
				<use xlink:href="#SVGID_1_"  style="overflow:visible;"/>
			</clipPath>
			<g class="st1">
				<path class="st2" d="M-10.6,14.5c0.1,0.1,0.1,0.3,0.1,0.4c0,0.2-0.1,0.4-0.3,0.6c-0.2,0.1-0.4,0.2-0.7,0.2c-0.2,0-0.5,0-0.7-0.1
					c-0.2-0.1-0.4-0.2-0.5-0.4l0.4-0.4c0.2,0.2,0.5,0.3,0.8,0.3c0.1,0,0.2,0,0.3-0.1c0.1,0,0.1-0.1,0.1-0.1c0,0,0-0.1-0.1-0.1
					c0,0-0.1-0.1-0.1-0.1l-0.8-0.2c-0.4-0.1-0.6-0.3-0.6-0.7c0-0.2,0.1-0.4,0.3-0.6c0.2-0.1,0.5-0.2,0.8-0.2c0.2,0,0.4,0,0.6,0.1
					c0.2,0,0.3,0.1,0.4,0.3l-0.4,0.4c-0.1-0.1-0.2-0.1-0.3-0.1c-0.1,0-0.2,0-0.3,0c-0.3,0-0.4,0-0.4,0.2c0,0,0,0.1,0.1,0.1l0.2,0.1
					l0.8,0.2C-10.9,14.3-10.7,14.4-10.6,14.5z"/>
				<path class="st2" d="M-6.9,13.1l-0.6,2.5h-0.6l-0.3-1.3l-0.3,1.3h-0.6l-0.6-2.5h0.6l0.3,1.8l0.3-1.3h0.4l0.3,1.3l0.3-1.8
					L-6.9,13.1z"/>
				<path class="st2" d="M-3.9,15.1v0.6h-2.2v-0.6h0.9v-1.4h-0.8v-0.6h1.4v1.9H-3.9z M-5.3,12c0.1-0.1,0.2-0.1,0.3-0.1
					c0.1,0,0.2,0,0.3,0.1c0.1,0.1,0.1,0.2,0.1,0.3c0,0.1,0,0.2-0.1,0.3c-0.1,0.1-0.2,0.1-0.3,0.1c-0.1,0-0.2,0-0.3-0.1
					c-0.1-0.1-0.1-0.2-0.1-0.3C-5.4,12.2-5.3,12.1-5.3,12z"/>
				<path class="st2" d="M-0.9,15.5c-0.1,0.1-0.3,0.1-0.4,0.2c-0.2,0-0.3,0.1-0.5,0.1c-0.3,0-0.6-0.1-0.8-0.3
					c-0.2-0.2-0.3-0.5-0.3-0.8v-0.9h-0.6v-0.6h0.6c0.1-0.2,0.2-0.5,0.2-0.7h0.4v0.7H-1v0.6h-1.3v0.9c0,0.4,0.2,0.6,0.5,0.6
					c0.3,0,0.5-0.1,0.7-0.2L-0.9,15.5z"/>
				<path class="st2" d="M2.2,15.1c-0.1,0.2-0.3,0.3-0.5,0.4c-0.2,0.1-0.4,0.2-0.6,0.1c-0.2,0-0.4-0.1-0.6-0.1
					c-0.2-0.1-0.4-0.2-0.5-0.4c-0.1-0.2-0.2-0.5-0.2-0.7c0-0.3,0-0.5,0.2-0.7c0.1-0.2,0.3-0.3,0.4-0.4c0.2-0.1,0.4-0.1,0.6-0.1
					c0.2,0,0.4,0,0.6,0.1c0.2,0.1,0.3,0.2,0.5,0.4l-0.4,0.4c-0.1-0.1-0.2-0.2-0.3-0.2c-0.1,0-0.2-0.1-0.3-0.1
					c-0.2,0-0.3,0.1-0.4,0.2c-0.1,0.2-0.2,0.4-0.2,0.6c0,0.2,0.1,0.4,0.2,0.6c0.1,0.1,0.3,0.2,0.5,0.2c0.1,0,0.2,0,0.3-0.1
					c0.1-0.1,0.2-0.2,0.3-0.3L2.2,15.1z"/>
				<path class="st2" d="M5.2,14.4v1.2H4.6v-1.1c0-0.2,0-0.4-0.1-0.6c0-0.1-0.1-0.1-0.1-0.2c-0.1,0-0.1,0-0.2,0
					c-0.2,0-0.4,0.1-0.4,0.3c-0.1,0.3-0.1,0.6-0.1,0.8v0.9H3.2v-3.5h0.6l-0.1,1.4c0.1-0.3,0.4-0.4,0.7-0.4c0.3,0,0.6,0.2,0.7,0.5
					C5.2,13.9,5.2,14.1,5.2,14.4z"/>
				<path class="st2" d="M10.6,15.2c0.2,0.3,0.5,0.6,0.8,0.8l-0.3,0.4c-0.4-0.2-0.7-0.5-1-0.9c-0.3-0.5-0.4-1-0.4-1.5
					c0-0.5,0.1-1.1,0.4-1.5c0.3-0.4,0.6-0.7,1-0.9l0.3,0.4c-0.3,0.2-0.6,0.5-0.8,0.8c-0.2,0.4-0.3,0.8-0.3,1.2
					C10.3,14.4,10.4,14.9,10.6,15.2z"/>
				<path class="st2" d="M14.7,15.5c-0.1,0.1-0.2,0.1-0.4,0.2c-0.2,0-0.3,0.1-0.5,0.1c-0.3,0-0.5-0.1-0.7-0.3
					c-0.2-0.2-0.3-0.5-0.2-0.8v-1.9h-1v-0.6h1.5v2.4c0,0.2,0,0.3,0.1,0.4c0.1,0.1,0.2,0.2,0.3,0.2c0.2,0,0.5-0.1,0.7-0.2L14.7,15.5z
					"/>
				<path class="st2" d="M17.8,15.1v0.6h-2.2v-0.6h0.9v-1.4h-0.8v-0.6h1.4v1.9H17.8z M16.5,12c0.1-0.1,0.2-0.1,0.3-0.1
					c0.1,0,0.2,0,0.3,0.1c0.1,0.1,0.1,0.2,0.1,0.3c0,0.1,0,0.2-0.1,0.3c-0.1,0.1-0.2,0.1-0.3,0.1c-0.1,0-0.2,0-0.3-0.1
					c-0.1-0.1-0.1-0.2-0.1-0.3C16.3,12.2,16.4,12.1,16.5,12z"/>
				<path class="st2" d="M21,13.7h-1.4v1.9H19v-1.9h-0.7v-0.6H19V13c0-0.3,0.1-0.5,0.3-0.7c0.2-0.2,0.5-0.3,0.7-0.2
					c0.3,0,0.5,0.1,0.8,0.2l-0.2,0.5c-0.2-0.1-0.4-0.1-0.6-0.1c-0.1,0-0.2,0-0.3,0.1c-0.1,0.1-0.1,0.2-0.1,0.3v0.1H21V13.7z"/>
				<path class="st2" d="M24,14.6h-1.8c0,0.2,0.1,0.3,0.2,0.4c0.1,0.1,0.3,0.1,0.5,0.1c0.1,0,0.2,0,0.4-0.1c0.1,0,0.2-0.1,0.3-0.2
					l0.3,0.4c-0.1,0.1-0.3,0.2-0.4,0.3c-0.2,0.1-0.4,0.1-0.5,0.1c-0.2,0-0.5,0-0.7-0.1c-0.2-0.1-0.4-0.3-0.5-0.4
					c-0.1-0.2-0.2-0.5-0.2-0.7c0-0.3,0-0.5,0.2-0.7c0.1-0.2,0.2-0.3,0.4-0.4c0.2-0.1,0.4-0.1,0.6-0.1c0.3,0,0.6,0.1,0.9,0.3
					c0.2,0.3,0.4,0.6,0.3,1C24,14.5,24,14.5,24,14.6z M22.5,13.8c-0.1,0.1-0.2,0.2-0.2,0.4h1.2c0-0.1-0.1-0.3-0.2-0.4
					c-0.1-0.1-0.3-0.2-0.4-0.1C22.7,13.6,22.6,13.7,22.5,13.8z"/>
				<path class="st2" d="M25.8,12.5c0.3,0.5,0.4,1,0.4,1.5c0,0.5-0.1,1.1-0.4,1.5c-0.3,0.4-0.6,0.7-1,0.9L24.5,16
					c1.1-0.7,1.4-2.1,0.8-3.3c-0.2-0.3-0.5-0.6-0.8-0.8l0.3-0.4C25.2,11.8,25.5,12.1,25.8,12.5z"/>
				<path class="st2" d="M31.6,14c0.3,0.1,0.5,0.3,0.4,0.6v1c0,0.1,0,0.2,0.1,0.3c0,0.1,0.1,0.1,0.2,0.1h0.4v0.5h-0.5
					c-0.2,0-0.4-0.1-0.6-0.2c-0.2-0.2-0.2-0.5-0.2-0.7v-1.1c0-0.1,0-0.1-0.1-0.2c-0.1,0-0.1-0.1-0.2-0.1H31v-0.5h0.3
					c0.1,0,0.1,0,0.2-0.1c0,0,0.1-0.1,0.1-0.2v-1.1c0-0.3,0.1-0.5,0.2-0.7c0.2-0.2,0.4-0.2,0.6-0.2h0.5V12h-0.4
					c-0.1,0-0.2,0-0.2,0.1c-0.1,0.1-0.1,0.2-0.1,0.3v1C32.1,13.7,31.9,13.9,31.6,14z"/>
				<path class="st2" d="M-4.3,22.1v0.6h-2.2v-0.6h0.9v-1.4h-0.8v-0.6h1.4v1.9L-4.3,22.1z M-5.6,19c0.1-0.1,0.2-0.1,0.3-0.1
					c0.1,0,0.2,0,0.3,0.1c0.1,0.1,0.1,0.2,0.1,0.3c0,0.1,0,0.2-0.1,0.3c-0.1,0.1-0.2,0.1-0.3,0.1c-0.1,0-0.2,0-0.3-0.1
					c-0.1-0.1-0.1-0.2-0.1-0.3C-5.7,19.2-5.7,19.1-5.6,19z"/>
				<path class="st2" d="M-1.2,20.7h-1.4v1.9h-0.6v-1.9h-0.6v-0.6h0.6V20c0-0.3,0.1-0.5,0.3-0.7c0.2-0.2,0.5-0.3,0.7-0.2
					c0.3,0,0.5,0.1,0.8,0.2l-0.2,0.5c-0.2-0.1-0.4-0.1-0.6-0.1c-0.1,0-0.2,0-0.3,0.1c-0.1,0.1-0.1,0.2-0.1,0.3v0.1h1.4V20.7z"/>
				<path class="st2" d="M3.9,22.2c0.2,0.3,0.5,0.6,0.8,0.8l-0.3,0.4c-0.4-0.2-0.7-0.5-1-0.9c-0.3-0.5-0.4-1-0.4-1.5
					c0-0.5,0.1-1.1,0.4-1.5c0.3-0.4,0.6-0.7,1-0.9L4.8,19c-0.3,0.2-0.6,0.5-0.8,0.8C3.6,20.5,3.6,21.5,3.9,22.2L3.9,22.2z"/>
				<path class="st2" d="M7.7,22.1v0.6H5.5v-0.6h0.9v-1.4H5.6v-0.6h1.4v1.9L7.7,22.1z M6.3,19c0.1-0.1,0.2-0.1,0.3-0.1
					c0.1,0,0.2,0,0.3,0.1c0.1,0.1,0.1,0.2,0.1,0.3c0,0.1,0,0.2-0.1,0.3c-0.1,0.1-0.2,0.1-0.3,0.1c-0.1,0-0.2,0-0.3-0.1
					c-0.1-0.1-0.1-0.2-0.1-0.3C6.3,19.2,6.3,19.1,6.3,19z"/>
				<path class="st2" d="M10.7,21.4v1.2h-0.6v-1.1c0-0.2,0-0.4-0.1-0.6c0-0.1-0.1-0.1-0.1-0.2c0,0-0.1-0.1-0.2,0
					c-0.2,0-0.4,0.1-0.4,0.3c-0.1,0.3-0.1,0.6-0.1,0.8v0.9H8.7v-1.1c0-0.5-0.1-0.9-0.2-1.4h0.6c0,0.1,0,0.3,0,0.6
					c0.1-0.2,0.2-0.4,0.3-0.5c0.1-0.1,0.3-0.2,0.5-0.2c0.3,0,0.6,0.2,0.7,0.5C10.7,20.8,10.7,21.1,10.7,21.4z"/>
				<path class="st2" d="M13.5,22.6c0-0.1,0-0.2,0-0.5c-0.1,0.3-0.4,0.6-0.8,0.5c-0.2,0-0.4,0-0.5-0.1c-0.2-0.1-0.3-0.3-0.4-0.4
					c-0.1-0.2-0.2-0.5-0.1-0.7c0-0.2,0-0.5,0.2-0.7c0.1-0.2,0.2-0.3,0.4-0.5c0.1-0.1,0.3-0.1,0.5-0.1c0.3,0,0.5,0.1,0.7,0.3l0-1.3
					h0.6v2c0,0.5,0.1,1,0.2,1.5H13.5z M13.2,21.9c0.1-0.2,0.1-0.3,0.1-0.5c0-0.2,0-0.4-0.1-0.5c-0.1-0.1-0.2-0.2-0.4-0.2
					c-0.2,0-0.3,0.1-0.4,0.2c-0.1,0.2-0.2,0.4-0.2,0.5c0,0.2,0,0.4,0.1,0.5c0.1,0.1,0.2,0.2,0.4,0.2C12.9,22.1,13.1,22,13.2,21.9z"
					/>
				<path class="st2" d="M17.3,22.1v0.6H15v-0.6h0.9v-1.4h-0.8v-0.6h1.4v1.9L17.3,22.1z M15.9,19c0.1-0.1,0.2-0.1,0.3-0.1
					c0.1,0,0.2,0,0.3,0.1c0.1,0.1,0.1,0.2,0.1,0.3c0,0.1,0,0.2-0.1,0.3c-0.1,0.1-0.2,0.1-0.3,0.1c-0.1,0-0.2,0-0.3-0.1
					c-0.1-0.1-0.1-0.2-0.1-0.3C15.8,19.2,15.9,19.1,15.9,19z"/>
				<path class="st2" d="M20.2,21.5c0.1,0.1,0.1,0.3,0.1,0.4c0,0.2-0.1,0.4-0.3,0.5c-0.2,0.1-0.4,0.2-0.7,0.2c-0.2,0-0.5,0-0.7-0.1
					c-0.2-0.1-0.4-0.2-0.5-0.4l0.4-0.4c0.2,0.2,0.5,0.3,0.9,0.3c0.1,0,0.2,0,0.3-0.1c0.1,0,0.1-0.1,0.1-0.1c0,0,0-0.1,0-0.1
					c0,0-0.1-0.1-0.2-0.1l-0.8-0.2c-0.4-0.1-0.6-0.3-0.6-0.7c0-0.2,0.1-0.4,0.3-0.6c0.2-0.1,0.5-0.2,0.8-0.2c0.2,0,0.4,0,0.6,0.1
					c0.2,0,0.3,0.1,0.4,0.3l-0.4,0.4c-0.1-0.1-0.2-0.1-0.3-0.1c-0.1,0-0.2-0.1-0.3,0c-0.3,0-0.5,0-0.5,0.2c0,0,0,0.1,0,0.1L19,21
					l0.8,0.2C19.9,21.2,20.1,21.3,20.2,21.5z"/>
				<path class="st2" d="M23.1,20.2c0.2,0.1,0.3,0.3,0.4,0.4c0.1,0.2,0.2,0.5,0.2,0.7c0,0.2,0,0.5-0.2,0.7c-0.1,0.2-0.2,0.3-0.4,0.4
					c-0.1,0.1-0.3,0.1-0.5,0.1c-0.2,0-0.5-0.1-0.6-0.3v1.2h-0.6v-2.1c0-0.5-0.1-0.9-0.2-1.4h0.6c0,0.1,0,0.3,0,0.5
					c0.1-0.2,0.2-0.3,0.3-0.4c0.2-0.1,0.3-0.1,0.5-0.1C22.8,20.1,23,20.1,23.1,20.2z M23,21.9c0.1-0.2,0.2-0.4,0.1-0.5
					c0-0.2,0-0.4-0.2-0.5c-0.1-0.1-0.2-0.2-0.4-0.2c-0.2,0-0.3,0.1-0.4,0.2C22,21,22,21.2,22,21.4c0,0.2,0,0.4,0.1,0.5
					c0.1,0.1,0.2,0.2,0.4,0.2C22.7,22.1,22.9,22.1,23,21.9z"/>
				<path class="st2" d="M26.8,21.6h-1.8c0,0.2,0.1,0.3,0.2,0.4c0.1,0.1,0.3,0.1,0.5,0.1c0.1,0,0.2,0,0.4-0.1c0.1,0,0.2-0.1,0.3-0.2
					l0.3,0.4c-0.1,0.1-0.3,0.2-0.4,0.3c-0.2,0.1-0.4,0.1-0.6,0.1c-0.2,0-0.4,0-0.7-0.1c-0.2-0.1-0.4-0.2-0.5-0.4
					c-0.1-0.2-0.2-0.5-0.2-0.7c0-0.3,0.1-0.5,0.2-0.7c0.1-0.2,0.2-0.3,0.4-0.4c0.2-0.1,0.4-0.1,0.6-0.1c0.3,0,0.6,0.1,0.9,0.3
					c0.2,0.3,0.3,0.6,0.3,1C26.9,21.5,26.9,21.5,26.8,21.6z M25.3,20.8c-0.1,0.1-0.2,0.2-0.2,0.4h1.2c0-0.1-0.1-0.3-0.2-0.4
					c-0.1-0.1-0.3-0.2-0.4-0.1C25.6,20.6,25.4,20.7,25.3,20.8z"/>
				<path class="st2" d="M30,21.4v1.2h-0.6v-1.1c0-0.2,0-0.4,0-0.6c0-0.1-0.1-0.1-0.1-0.2c0,0-0.1-0.1-0.2,0c-0.2,0-0.4,0.1-0.4,0.3
					c-0.1,0.3-0.1,0.6-0.1,0.8v0.9H28v-1.1c0-0.5-0.1-0.9-0.2-1.4h0.6c0,0.1,0,0.3,0,0.6c0.1-0.2,0.2-0.4,0.3-0.5
					c0.1-0.1,0.3-0.2,0.5-0.2c0.3,0,0.6,0.2,0.7,0.5C29.9,20.8,30,21.1,30,21.4z"/>
				<path class="st2" d="M33,21.5c0.1,0.1,0.1,0.3,0.1,0.4c0,0.2-0.1,0.4-0.3,0.5c-0.2,0.1-0.4,0.2-0.7,0.2c-0.2,0-0.5,0-0.7-0.1
					c-0.2-0.1-0.3-0.2-0.5-0.4l0.4-0.4c0.2,0.2,0.5,0.3,0.8,0.3c0.1,0,0.2,0,0.3-0.1c0.1,0,0.1-0.1,0.1-0.1c0,0,0-0.1,0-0.1
					c0,0-0.1-0.1-0.2-0.1l-0.8-0.2c-0.4-0.1-0.6-0.3-0.6-0.7c0-0.2,0.1-0.4,0.3-0.6c0.2-0.1,0.5-0.2,0.8-0.2c0.2,0,0.4,0,0.6,0.1
					c0.2,0,0.3,0.1,0.4,0.3l-0.4,0.4c-0.1-0.1-0.2-0.1-0.3-0.1c-0.1,0-0.2-0.1-0.3,0c-0.3,0-0.5,0-0.5,0.2c0,0,0,0.1,0,0.1l0.2,0.1
					l0.8,0.2C32.7,21.3,32.9,21.4,33,21.5z"/>
				<path class="st2" d="M35.9,22.6c0-0.1,0-0.3,0-0.6c-0.1,0.2-0.2,0.4-0.4,0.5c-0.2,0.1-0.4,0.2-0.6,0.2c-0.2,0-0.3,0-0.5-0.1
					c-0.1,0-0.2-0.1-0.3-0.2C34.1,22.3,34,22.1,34,22c0-0.2,0.1-0.4,0.2-0.5c0.1-0.1,0.3-0.3,0.4-0.3c0.2-0.1,0.4-0.1,0.6-0.1
					c0.1,0,0.3,0,0.4,0c0-0.2-0.1-0.5-0.4-0.5c0,0-0.1,0-0.1,0c-0.2,0-0.5,0.1-0.7,0.2l-0.4-0.4c0.3-0.2,0.7-0.4,1.1-0.3
					c0.3,0,0.6,0.1,0.8,0.3c0.2,0.3,0.3,0.6,0.3,1v0.2c0,0.4,0.1,0.8,0.2,1.1L35.9,22.6z M35.4,22c0.1-0.1,0.2-0.2,0.3-0.4l0,0
					c-0.1,0-0.2,0-0.4,0c-0.2,0-0.3,0-0.5,0.1c-0.1,0.1-0.2,0.1-0.2,0.2s0,0.1,0.1,0.1c0.1,0,0.2,0.1,0.2,0
					C35.1,22.1,35.2,22.1,35.4,22z"/>
				<path class="st2" d="M39.2,20.2c0.2,0.1,0.3,0.3,0.4,0.4c0.1,0.2,0.2,0.5,0.2,0.7c0,0.2-0.1,0.5-0.2,0.7
					c-0.1,0.2-0.2,0.3-0.4,0.4c-0.1,0.1-0.3,0.1-0.5,0.1c-0.4,0-0.7-0.2-0.8-0.5c0,0.3,0,0.4,0,0.5h-0.6c0.1-0.5,0.2-1,0.2-1.5v-2
					h0.6l0,1.3c0.2-0.2,0.4-0.3,0.7-0.3C38.9,20.1,39,20.1,39.2,20.2z M39,21.9c0.2-0.3,0.2-0.8,0-1.1c-0.1-0.1-0.3-0.2-0.4-0.2
					c-0.2,0-0.3,0.1-0.4,0.2C38.1,21,38,21.2,38,21.4c0,0.2,0,0.4,0.1,0.5c0.1,0.1,0.2,0.2,0.4,0.2C38.7,22.1,38.9,22.1,39,21.9z"/>
				<path class="st2" d="M42.8,22.5c-0.1,0.1-0.2,0.1-0.4,0.2c-0.2,0-0.3,0.1-0.5,0.1c-0.3,0-0.5-0.1-0.7-0.3
					c-0.2-0.2-0.2-0.5-0.2-0.8v-1.9h-1v-0.6h1.6v2.4c0,0.2,0,0.3,0.1,0.5c0.1,0.1,0.2,0.2,0.3,0.2c0.2,0,0.5-0.1,0.7-0.2L42.8,22.5z
					"/>
				<path class="st2" d="M45.6,20.1l-0.9,2.7c-0.2,0.6-0.5,0.9-1,0.9c-0.3,0-0.5-0.1-0.7-0.3l0.1-0.5c0.1,0.1,0.2,0.1,0.3,0.2
					c0.1,0,0.2,0.1,0.3,0.1c0.1,0,0.2,0,0.3-0.1c0.1-0.1,0.1-0.2,0.2-0.3v-0.1l-1-2.5h0.7l0.7,1.8l0.5-1.8L45.6,20.1z"/>
				<path class="st2" d="M47.3,19.5c0.3,0.5,0.4,1,0.4,1.5c0,0.5-0.1,1.1-0.4,1.5c-0.3,0.4-0.6,0.7-1,0.9L46,23
					c1.1-0.7,1.4-2.1,0.8-3.3c-0.2-0.3-0.5-0.6-0.8-0.8l0.3-0.4C46.6,18.8,47,19.1,47.3,19.5z"/>
				<path class="st2" d="M1.9,27.1c-0.1,0.5-0.2,0.9-0.2,1.4v0.8c0,0.4-0.1,0.7-0.3,1c-0.2,0.2-0.5,0.3-0.8,0.3
					c-0.2,0-0.4,0-0.5-0.1c-0.2,0-0.3-0.1-0.4-0.2l0.1-0.5C-0.1,29.9,0,30,0.2,30c0.1,0,0.3,0.1,0.4,0.1c0.2,0,0.3-0.1,0.4-0.2
					c0.1-0.2,0.2-0.3,0.1-0.5v-0.1c-0.2,0.2-0.4,0.3-0.6,0.3c-0.2,0-0.3-0.1-0.5-0.1c-0.2-0.1-0.3-0.2-0.4-0.4c-0.2-0.4-0.2-1,0-1.4
					c0.1-0.2,0.2-0.3,0.4-0.4c0.1-0.1,0.3-0.1,0.5-0.1c0.2,0,0.4,0.1,0.5,0.2c0.2,0.1,0.3,0.3,0.3,0.5c0-0.1,0-0.2,0-0.3v-0.3
					L1.9,27.1z M0.9,28.8c0.1-0.1,0.1-0.3,0.1-0.5c0-0.2,0-0.4-0.1-0.5c-0.1-0.1-0.2-0.2-0.4-0.2c-0.2,0-0.3,0.1-0.4,0.2
					C0,28,0,28.1,0,28.3c0,0.2,0,0.4,0.1,0.5C0.2,29,0.4,29,0.5,29C0.7,29,0.9,28.9,0.9,28.8z"/>
				<path class="st2" d="M4.4,27.2c0.2,0.1,0.3,0.2,0.4,0.4C5,27.9,5,28.1,5,28.4c0,0.2,0,0.5-0.2,0.7c-0.1,0.2-0.2,0.3-0.4,0.4
					c-0.4,0.2-0.8,0.2-1.1,0c-0.2-0.1-0.3-0.3-0.4-0.4c-0.1-0.2-0.2-0.5-0.2-0.7c0-0.3,0.1-0.5,0.2-0.7c0.1-0.2,0.2-0.3,0.4-0.4
					C3.7,27,4.1,27,4.4,27.2z M4.3,28.9c0.1-0.2,0.2-0.4,0.1-0.5c0-0.2,0-0.4-0.2-0.5c-0.1-0.1-0.3-0.2-0.4-0.2
					c-0.2,0-0.3,0.1-0.4,0.2c-0.1,0.2-0.2,0.4-0.1,0.6c0,0.2,0,0.4,0.2,0.5c0.1,0.1,0.3,0.2,0.4,0.2C4,29.1,4.2,29.1,4.3,28.9z"/>
				<path class="st2" d="M7.1,29.2c0.2,0.3,0.5,0.6,0.8,0.8l-0.3,0.4c-0.4-0.2-0.7-0.5-1-0.9c-0.3-0.5-0.4-1-0.4-1.5
					c0-0.5,0.1-1.1,0.4-1.5c0.3-0.4,0.6-0.7,1-0.9L7.9,26c-0.3,0.2-0.6,0.5-0.8,0.8C6.7,27.5,6.7,28.5,7.1,29.2L7.1,29.2z"/>
				<path class="st2" d="M10.7,29.6h-0.6v-1.8l-0.9,1.8H8.5v-2.5h0.6v1.8l0.9-1.8h0.8L10.7,29.6z"/>
				<path class="st2" d="M13.6,28.5c0.1,0.1,0.1,0.2,0.1,0.3c0,0.2-0.1,0.4-0.3,0.6c-0.2,0.2-0.5,0.3-0.9,0.2c-0.2,0-0.5,0-0.7-0.1
					c-0.2-0.1-0.4-0.2-0.5-0.4l0.5-0.3c0.1,0.1,0.2,0.2,0.3,0.2c0.1,0,0.3,0.1,0.4,0.1c0.1,0,0.3,0,0.4-0.1c0.1,0,0.1-0.1,0.1-0.2
					c0-0.1,0-0.1-0.1-0.2c-0.1,0-0.1-0.1-0.2-0.1h-0.6v-0.5h0.5c0.1,0,0.2,0,0.2-0.1c0,0,0.1-0.1,0.1-0.2c0-0.2-0.1-0.2-0.4-0.2
					c-0.1,0-0.2,0-0.3,0.1c-0.1,0.1-0.2,0.1-0.3,0.2l-0.4-0.4c0.3-0.3,0.6-0.5,1-0.5c0.3,0,0.5,0,0.8,0.2c0.2,0.1,0.2,0.3,0.2,0.5
					c0,0.1,0,0.2-0.1,0.3c0,0.1-0.1,0.2-0.2,0.2C13.5,28.3,13.6,28.4,13.6,28.5z"/>
				<path class="st2" d="M17,29.6h-0.6v-1.8l-0.4,1h-0.5l-0.4-1v1.8h-0.6v-2.5h0.8l0.4,1.1l0.4-1.1H17V29.6z"/>
				<path class="st2" d="M20,28.6h-1.8c0,0.1,0.1,0.3,0.2,0.4c0.1,0.1,0.3,0.1,0.5,0.1c0.1,0,0.2,0,0.4-0.1c0.1,0,0.2-0.1,0.3-0.2
					l0.3,0.4c-0.3,0.2-0.6,0.4-1,0.4c-0.2,0-0.4,0-0.7-0.1c-0.2-0.1-0.4-0.2-0.5-0.4c-0.1-0.2-0.2-0.5-0.2-0.7
					c0-0.3,0.1-0.5,0.2-0.7c0.1-0.2,0.2-0.3,0.4-0.4c0.2-0.1,0.4-0.1,0.6-0.1c0.3,0,0.6,0.1,0.9,0.3c0.2,0.3,0.4,0.6,0.3,1
					C20,28.4,20,28.5,20,28.6z M18.5,27.8c-0.1,0.1-0.2,0.2-0.2,0.4h1.2c0-0.1-0.1-0.3-0.2-0.4c-0.1-0.1-0.3-0.2-0.4-0.1
					C18.7,27.6,18.6,27.7,18.5,27.8z"/>
				<path class="st2" d="M23,27.1v2.5h-0.6v-1h-1v1h-0.6v-2.5h0.6v0.9h1v-0.9H23z"/>
				<path class="st2" d="M26.2,29.6h-0.6v-1.8l-0.9,1.8H24v-2.5h0.6v1.8l0.9-1.8h0.8V29.6z"/>
				<path class="st2" d="M32.4,29.1c-0.1,0.2-0.3,0.3-0.5,0.5c-0.2,0.1-0.4,0.2-0.6,0.1c-0.2,0-0.4-0.1-0.6-0.1
					c-0.2-0.1-0.4-0.2-0.5-0.4c-0.1-0.2-0.2-0.5-0.2-0.7c0-0.3,0.1-0.5,0.2-0.7c0.1-0.2,0.2-0.3,0.4-0.4c0.2-0.1,0.4-0.1,0.6-0.1
					c0.2,0,0.4,0,0.6,0.1c0.2,0.1,0.3,0.2,0.5,0.4L31.8,28c-0.1-0.1-0.2-0.2-0.3-0.2c-0.1-0.1-0.2-0.1-0.3-0.1
					c-0.2,0-0.3,0.1-0.4,0.2c-0.1,0.2-0.2,0.4-0.2,0.6c0,0.2,0.1,0.4,0.2,0.5c0.1,0.1,0.3,0.2,0.5,0.2c0.1,0,0.2,0,0.3-0.1
					c0.1-0.1,0.2-0.2,0.3-0.3L32.4,29.1z"/>
				<path class="st2" d="M35.2,28.5c0.1,0.1,0.1,0.2,0.1,0.3c0,0.1,0,0.2-0.1,0.4c-0.1,0.1-0.2,0.2-0.3,0.3
					c-0.1,0.1-0.3,0.1-0.5,0.1h-1.3v-2.5h1.2c0.2,0,0.4,0.1,0.6,0.2c0.1,0.1,0.2,0.3,0.2,0.5c0,0.2-0.1,0.4-0.3,0.5
					C35,28.4,35.1,28.4,35.2,28.5z M33.7,27.7v0.4h0.6c0.2,0,0.3-0.1,0.3-0.2c0-0.1,0-0.1-0.1-0.2c-0.1,0-0.1,0-0.2,0L33.7,27.7z
					 M34.6,29c0-0.1,0.1-0.1,0.1-0.2c0-0.1,0-0.1-0.1-0.2c-0.1,0-0.1-0.1-0.2-0.1h-0.7v0.5h0.7C34.5,29.1,34.6,29,34.6,29z"/>
				<path class="st2" d="M37.8,27.2c0.2,0.1,0.3,0.2,0.4,0.4c0.1,0.2,0.2,0.5,0.2,0.7c0,0.2,0,0.5-0.2,0.7c-0.1,0.2-0.2,0.3-0.4,0.4
					c-0.4,0.2-0.8,0.2-1.1,0c-0.2-0.1-0.3-0.3-0.4-0.4c-0.1-0.2-0.2-0.5-0.2-0.7c0-0.3,0.1-0.5,0.2-0.7c0.1-0.2,0.2-0.3,0.4-0.4
					C37,27,37.4,27,37.8,27.2z M37.6,28.9c0.1-0.2,0.2-0.4,0.2-0.5c0-0.2,0-0.4-0.2-0.5c-0.1-0.1-0.3-0.2-0.4-0.2
					c-0.2,0-0.3,0.1-0.4,0.2c-0.1,0.2-0.2,0.4-0.2,0.6c0,0.2,0,0.4,0.2,0.5c0.1,0.1,0.3,0.2,0.4,0.2C37.4,29.1,37.5,29.1,37.6,28.9z
					"/>
				<path class="st2" d="M41.4,27.4c0.2,0.3,0.3,0.7,0.2,1c0,0.3-0.1,0.7-0.2,1c-0.1,0.2-0.4,0.4-0.6,0.3c-0.2,0-0.5-0.1-0.6-0.3
					c-0.2-0.2-0.3-0.5-0.3-0.8h-0.2v1h-0.6v-2.5h0.6v0.9H40c0-0.3,0.1-0.5,0.3-0.7c0.1-0.2,0.4-0.3,0.6-0.2
					C41,27.1,41.3,27.2,41.4,27.4z M41.1,28.4c0-0.2,0-0.4-0.1-0.5c-0.1-0.1-0.1-0.2-0.2-0.2s-0.3,0.2-0.3,0.7c0,0.2,0,0.4,0.1,0.5
					c0,0.1,0.1,0.2,0.2,0.2S41.1,28.9,41.1,28.4L41.1,28.4z"/>
				<path class="st2" d="M47,28.6h-0.2v1h-0.6v-1H46l-0.3,1H45l0.5-1.3l-0.5-1.2h0.6l0.2,0.9h0.2v-0.9h0.6v0.9H47l0.3-0.9h0.6
					l-0.5,1.2l0.5,1.3h-0.7L47,28.6z"/>
				<path class="st2" d="M50.7,29.6h-0.6v-1.8l-0.9,1.8h-0.8v-2.5h0.6v1.8l0.9-1.8h0.8L50.7,29.6z"/>
				<path class="st2" d="M53.6,28.5c0.1,0.1,0.1,0.2,0.1,0.3c0,0.2-0.1,0.4-0.3,0.6c-0.2,0.2-0.5,0.3-0.8,0.2c-0.2,0-0.5,0-0.7-0.1
					c-0.2-0.1-0.4-0.2-0.5-0.4l0.4-0.3c0.1,0.1,0.2,0.2,0.3,0.2c0.1,0,0.3,0.1,0.4,0.1c0.1,0,0.3,0,0.4-0.1c0.1,0,0.1-0.1,0.1-0.2
					c0-0.1,0-0.1-0.1-0.2c-0.1,0-0.1-0.1-0.2-0.1h-0.6v-0.5h0.5c0.1,0,0.2,0,0.2-0.1c0,0,0.1-0.1,0.1-0.2c0-0.2-0.1-0.2-0.4-0.2
					c-0.1,0-0.2,0-0.3,0.1c-0.1,0-0.2,0.1-0.3,0.2l-0.4-0.4c0.3-0.3,0.6-0.5,1-0.5c0.3,0,0.5,0.1,0.8,0.2c0.2,0.1,0.2,0.3,0.2,0.5
					c0,0.1,0,0.2-0.1,0.3c0,0.1-0.1,0.2-0.2,0.2C53.4,28.3,53.6,28.4,53.6,28.5z"/>
				<path class="st2" d="M56.8,27.1v2.5h-0.6v-1h-1v1h-0.6v-2.5h0.6v0.9h1v-0.9H56.8z"/>
				<path class="st2" d="M59.5,28c0.1,0.1,0.2,0.2,0.3,0.3c0.1,0.1,0.1,0.3,0.1,0.4c0,0.1,0,0.3-0.1,0.4c-0.1,0.1-0.2,0.2-0.3,0.3
					c-0.1,0.1-0.3,0.1-0.5,0.1h-1.3v-2.5h0.6v0.8H59C59.2,27.9,59.4,28,59.5,28z M59.2,29c0-0.1,0.1-0.1,0.1-0.2
					c0-0.1-0.1-0.3-0.2-0.3c0,0,0,0,0,0h-0.6v0.6H59C59,29.1,59.1,29.1,59.2,29L59.2,29z"/>
				<path class="st2" d="M61.5,26.5c0.3,0.4,0.4,1,0.4,1.5c0,0.5-0.1,1.1-0.4,1.5c-0.3,0.4-0.6,0.7-1,0.9L60.2,30
					c0.3-0.2,0.6-0.5,0.8-0.8c0.4-0.8,0.4-1.7,0-2.5c-0.2-0.3-0.5-0.6-0.8-0.8l0.3-0.4C60.9,25.8,61.3,26.1,61.5,26.5z"/>
				<path class="st2" d="M63.5,27.2c0.1-0.1,0.2-0.1,0.3-0.1c0.1,0,0.2,0,0.3,0.1c0.1,0.1,0.1,0.2,0.1,0.3c0,0.2-0.2,0.4-0.4,0.4
					c0,0,0,0,0,0c-0.1,0-0.2,0-0.3-0.1c-0.1-0.1-0.1-0.2-0.1-0.3C63.4,27.4,63.4,27.3,63.5,27.2z M64.1,28.9
					c0.1,0.1,0.1,0.2,0.1,0.4c0,0.2,0,0.4-0.1,0.6c-0.1,0.2-0.3,0.4-0.5,0.5l-0.2-0.2c0.1-0.1,0.2-0.1,0.3-0.2
					c0.1-0.1,0.1-0.2,0.1-0.3l0,0c-0.1,0-0.2,0-0.3-0.1c-0.1-0.1-0.1-0.2-0.1-0.3c0-0.1,0-0.2,0.1-0.3c0.1-0.1,0.2-0.1,0.3-0.1
					C63.9,28.8,64,28.9,64.1,28.9z"/>
				<path class="st2" d="M-0.2,34.5c-0.1-0.1-0.1-0.2-0.1-0.4c0-0.2,0-0.4,0.1-0.6c0.1-0.2,0.3-0.4,0.5-0.5l0.2,0.2
					c-0.1,0.1-0.2,0.1-0.3,0.2c-0.1,0.1-0.1,0.2-0.1,0.3l0,0c0.1,0,0.2,0,0.3,0.1c0.1,0.1,0.1,0.2,0.1,0.3c0,0.1,0,0.2-0.1,0.3
					c-0.1,0.1-0.2,0.1-0.3,0.1C0,34.7-0.1,34.6-0.2,34.5z M0.9,34.5c-0.1-0.1-0.1-0.2-0.1-0.4c0-0.2,0-0.4,0.1-0.6
					c0.1-0.2,0.3-0.4,0.5-0.5l0.2,0.2c-0.1,0.1-0.2,0.1-0.2,0.2c-0.1,0.1-0.1,0.2-0.1,0.3l0,0c0.1,0,0.2,0,0.3,0.1
					c0.1,0.1,0.1,0.2,0.1,0.3c0,0.1,0,0.2-0.1,0.3c-0.1,0.1-0.2,0.1-0.3,0.1C1.1,34.7,1,34.6,0.9,34.5L0.9,34.5z"/>
				<path class="st2" d="M5.1,34.7H3.8v1.9H3.2v-1.9H2.6v-0.6h0.6V34c0-0.3,0.1-0.5,0.3-0.7C3.7,33.1,3.9,33,4.2,33
					c0.3,0,0.5,0.1,0.8,0.2l-0.2,0.5c-0.2-0.1-0.4-0.1-0.5-0.1c-0.1,0-0.2,0-0.3,0.1c-0.1,0.1-0.1,0.2-0.1,0.3v0.1h1.4L5.1,34.7z"/>
				<path class="st2" d="M7.7,36.6V36c-0.1,0.2-0.2,0.4-0.3,0.5c-0.1,0.1-0.3,0.2-0.5,0.2c-0.3,0-0.6-0.2-0.7-0.5
					C6,35.9,6,35.6,6,35.3v-1.2h0.6v1.1c0,0.2,0,0.4,0.1,0.7c0,0.1,0.1,0.1,0.1,0.2c0,0,0.1,0.1,0.2,0.1c0.2,0,0.4-0.1,0.4-0.3
					c0.1-0.3,0.1-0.6,0.1-0.9v-0.8h0.6v1c0,0.5,0.1,1,0.2,1.5L7.7,36.6z"/>
				<path class="st2" d="M11.3,36.5c-0.1,0.1-0.2,0.1-0.4,0.2c-0.1,0-0.3,0.1-0.5,0.1c-0.3,0-0.5-0.1-0.7-0.3
					c-0.2-0.2-0.2-0.5-0.2-0.8v-1.9h-1v-0.6h1.6v2.4c0,0.2,0,0.3,0.1,0.5c0.1,0.1,0.2,0.2,0.3,0.2c0.2,0,0.5-0.1,0.7-0.2L11.3,36.5z
					"/>
				<path class="st2" d="M14.2,36.5c-0.1,0.1-0.2,0.1-0.4,0.2c-0.2,0-0.3,0.1-0.5,0.1c-0.3,0-0.5-0.1-0.7-0.3
					c-0.2-0.2-0.2-0.5-0.2-0.8v-1.9h-1v-0.6H13v2.4c0,0.2,0,0.3,0.1,0.5c0.1,0.1,0.2,0.2,0.3,0.2c0.2,0,0.5-0.1,0.7-0.2L14.2,36.5z"
					/>
				<path class="st2" d="M17.1,35.5c0.1,0.1,0.1,0.3,0.1,0.4c0,0.2-0.1,0.4-0.3,0.5c-0.2,0.1-0.5,0.2-0.7,0.2c-0.2,0-0.5,0-0.7-0.1
					c-0.2-0.1-0.4-0.2-0.5-0.4l0.4-0.4c0.2,0.2,0.5,0.3,0.8,0.3c0.1,0,0.2,0,0.3-0.1c0.1,0,0.1-0.1,0.1-0.2c0,0,0-0.1,0-0.1
					c0,0-0.1-0.1-0.1-0.1l-0.8-0.2c-0.4-0.1-0.6-0.3-0.6-0.7c0-0.2,0.1-0.4,0.3-0.6c0.2-0.1,0.5-0.2,0.8-0.2c0.2,0,0.4,0,0.6,0.1
					c0.2,0.1,0.3,0.1,0.4,0.3l-0.4,0.4c-0.1-0.1-0.2-0.1-0.3-0.2c-0.1,0-0.2,0-0.3,0c-0.3,0-0.4,0-0.4,0.2c0,0,0,0.1,0,0.1
					c0,0,0.1,0.1,0.2,0.1l0.7,0.2C16.8,35.3,17,35.4,17.1,35.5z"/>
				<path class="st2" d="M20.6,36.5c-0.1,0.1-0.3,0.1-0.4,0.2c-0.2,0-0.3,0.1-0.5,0.1c-0.3,0-0.6-0.1-0.8-0.3
					c-0.2-0.2-0.3-0.5-0.3-0.8v-0.9H18v-0.6h0.6c0.1-0.2,0.2-0.5,0.2-0.7h0.4v0.7h1.2v0.6h-1.2v0.9c0,0.4,0.2,0.5,0.5,0.5
					c0.1,0,0.2,0,0.4-0.1c0.1,0,0.3-0.1,0.4-0.2L20.6,36.5z"/>
				<path class="st2" d="M23.2,36.6c0-0.1,0-0.3,0-0.6c-0.1,0.2-0.2,0.4-0.4,0.5c-0.2,0.1-0.4,0.2-0.6,0.2c-0.2,0-0.3,0-0.5-0.1
					c-0.1-0.1-0.2-0.1-0.3-0.2c-0.1-0.1-0.1-0.2-0.1-0.3c0-0.2,0-0.4,0.2-0.5c0.1-0.1,0.2-0.2,0.4-0.3c0.2-0.1,0.4-0.1,0.6-0.1
					c0.1,0,0.3,0,0.4,0c0-0.1,0-0.3-0.1-0.4c-0.1-0.1-0.2-0.1-0.3-0.1c-0.2,0-0.5,0.1-0.7,0.2l-0.3-0.4c0.2-0.1,0.3-0.2,0.5-0.3
					c0.2,0,0.4-0.1,0.5-0.1c0.3,0,0.6,0.1,0.8,0.3c0.2,0.3,0.3,0.6,0.3,1v0.2c0,0.4,0.1,0.8,0.2,1.1L23.2,36.6z M22.7,36
					c0.1-0.1,0.2-0.2,0.3-0.3l0,0c-0.1,0-0.2,0-0.4,0c-0.2,0-0.3,0-0.5,0.1C22,35.8,22,35.9,22,36c0,0.1,0,0.1,0.1,0.1
					c0.1,0,0.2,0,0.2,0C22.4,36.1,22.6,36.1,22.7,36z"/>
				<path class="st2" d="M27,36.1c-0.1,0.2-0.3,0.3-0.5,0.5c-0.2,0.1-0.4,0.2-0.6,0.2c-0.2,0-0.4-0.1-0.6-0.2
					c-0.2-0.1-0.4-0.2-0.5-0.4c-0.1-0.2-0.2-0.5-0.2-0.7c0-0.3,0-0.5,0.2-0.7c0.1-0.2,0.3-0.3,0.4-0.4c0.2-0.1,0.4-0.1,0.6-0.1
					c0.2,0,0.4,0,0.6,0.1c0.2,0.1,0.3,0.2,0.5,0.4L26.4,35c-0.1-0.1-0.2-0.2-0.3-0.2c-0.1-0.1-0.2-0.1-0.3-0.1
					c-0.2,0-0.3,0.1-0.4,0.2c-0.1,0.2-0.2,0.4-0.2,0.6c0,0.2,0.1,0.4,0.2,0.5c0.1,0.1,0.3,0.2,0.5,0.2c0.1,0,0.2,0,0.3-0.1
					c0.1-0.1,0.2-0.2,0.3-0.3L27,36.1z"/>
				<path class="st2" d="M28.7,35.5l-0.3,0.3v0.8h-0.6v-3.5h0.6v2l0.9-1h0.7l-1,1l1,1.5h-0.7L28.7,35.5z"/>
				<path class="st2" d="M32.4,34.9v0.6h-1.6v-0.6H32.4z"/>
				<path class="st2" d="M35.2,34.2c0.2,0.1,0.3,0.3,0.4,0.4c0.1,0.2,0.2,0.5,0.2,0.7c0,0.2-0.1,0.5-0.2,0.7
					c-0.1,0.2-0.2,0.3-0.4,0.4c-0.1,0.1-0.3,0.1-0.5,0.2c-0.2,0-0.5-0.1-0.6-0.3v1.2h-0.6v-2.1c0-0.5-0.1-0.9-0.2-1.4h0.6
					c0,0.1,0,0.3,0,0.5c0.1-0.2,0.2-0.3,0.3-0.4c0.2-0.1,0.3-0.1,0.5-0.1C34.9,34.1,35,34.1,35.2,34.2z M35,35.9
					c0.2-0.3,0.2-0.8,0-1.1c-0.1-0.1-0.2-0.2-0.4-0.2c-0.2,0-0.3,0.1-0.4,0.2c-0.1,0.2-0.1,0.3-0.1,0.5c0,0.2,0,0.4,0.1,0.5
					c0.1,0.1,0.2,0.2,0.4,0.2C34.8,36.1,34.9,36.1,35,35.9z"/>
				<path class="st2" d="M38.2,36.6c0-0.1,0-0.3,0-0.6c-0.1,0.2-0.2,0.4-0.4,0.5c-0.2,0.1-0.4,0.2-0.6,0.2c-0.2,0-0.3,0-0.5-0.1
					c-0.1,0-0.2-0.1-0.3-0.2c-0.1-0.1-0.1-0.2-0.1-0.3c0-0.2,0.1-0.4,0.2-0.5c0.1-0.1,0.2-0.2,0.4-0.3c0.2-0.1,0.4-0.1,0.6-0.1
					c0.1,0,0.3,0,0.4,0c0-0.2-0.1-0.5-0.4-0.5c0,0-0.1,0-0.1,0c-0.2,0-0.5,0.1-0.7,0.2l-0.4-0.4c0.3-0.2,0.7-0.4,1.1-0.3
					c0.3,0,0.6,0.1,0.8,0.3c0.2,0.3,0.3,0.6,0.3,1v0.2c0,0.4,0.1,0.8,0.2,1.1L38.2,36.6z M37.7,36c0.1-0.1,0.2-0.2,0.3-0.3l0,0
					c-0.1,0-0.2,0-0.4,0c-0.2,0-0.3,0-0.5,0.1C37,35.8,37,35.9,37,36c0,0.1,0,0.1,0.1,0.1c0.1,0,0.2,0,0.2,0
					C37.5,36.1,37.6,36.1,37.7,36z"/>
				<path class="st2" d="M41.6,35.5c0.1,0.1,0.1,0.2,0.1,0.3c0,0.2-0.1,0.4-0.2,0.6c-0.2,0.2-0.5,0.3-0.8,0.2c-0.2,0-0.5,0-0.7-0.1
					c-0.2-0.1-0.4-0.2-0.5-0.4l0.5-0.3c0.1,0.1,0.2,0.2,0.3,0.2c0.1,0.1,0.3,0.1,0.4,0.1c0.1,0,0.3,0,0.4-0.1
					c0.1-0.1,0.1-0.1,0.1-0.2c0-0.1,0-0.1-0.1-0.2c-0.1,0-0.1-0.1-0.2-0.1h-0.6v-0.5h0.5c0.1,0,0.2,0,0.2-0.1c0,0,0.1-0.1,0.1-0.2
					c0-0.2-0.1-0.2-0.4-0.2c-0.2,0-0.5,0.1-0.6,0.3l-0.4-0.3c0.3-0.3,0.6-0.5,1-0.5c0.3,0,0.5,0.1,0.8,0.2c0.1,0.1,0.2,0.3,0.2,0.5
					c0,0.1,0,0.2-0.1,0.3c0,0.1-0.1,0.2-0.2,0.2C41.5,35.3,41.6,35.4,41.6,35.5z"/>
				<path class="st2" d="M44.4,34.2c0.2,0.1,0.3,0.3,0.4,0.4c0.1,0.2,0.2,0.5,0.2,0.7c0,0.2-0.1,0.5-0.2,0.7
					c-0.1,0.2-0.2,0.3-0.4,0.4c-0.1,0.1-0.3,0.1-0.5,0.2c-0.2,0-0.5-0.1-0.6-0.3v1.2h-0.6v-2.1c0-0.5-0.1-0.9-0.2-1.4H43
					c0,0.1,0,0.3,0,0.5c0.1-0.2,0.2-0.3,0.3-0.4c0.1-0.1,0.3-0.1,0.5-0.1C44,34.1,44.2,34.1,44.4,34.2z M44.2,35.9
					c0.1-0.2,0.2-0.4,0.2-0.5c0-0.2,0-0.4-0.2-0.5c-0.1-0.1-0.2-0.2-0.4-0.2c-0.2,0-0.3,0.1-0.4,0.2c-0.1,0.2-0.1,0.3-0.1,0.5
					c0,0.2,0,0.4,0.1,0.5c0.1,0.1,0.2,0.2,0.4,0.2C43.9,36.1,44.1,36.1,44.2,35.9z"/>
				<path class="st2" d="M47.4,36.6c0-0.1,0-0.3,0-0.6c-0.1,0.2-0.2,0.4-0.4,0.5c-0.2,0.1-0.4,0.2-0.6,0.2c-0.2,0-0.3,0-0.5-0.1
					c-0.1-0.1-0.2-0.1-0.3-0.2c-0.1-0.1-0.1-0.2-0.1-0.3c0-0.2,0.1-0.4,0.2-0.5c0.1-0.1,0.3-0.3,0.5-0.3c0.2-0.1,0.4-0.1,0.6-0.1
					c0.1,0,0.3,0,0.4,0c0-0.2-0.1-0.5-0.4-0.5c0,0-0.1,0-0.1,0c-0.2,0-0.5,0.1-0.7,0.2l-0.4-0.4c0.2-0.1,0.3-0.2,0.5-0.3
					c0.2,0,0.4-0.1,0.5-0.1c0.3,0,0.6,0.1,0.8,0.3c0.2,0.3,0.3,0.6,0.3,1v0.2c0,0.4,0.1,0.8,0.2,1.1H47.4z M47,36
					c0.1-0.1,0.2-0.2,0.3-0.3l0,0c-0.1,0-0.2,0-0.4,0c-0.2,0-0.3,0-0.5,0.1c-0.1,0.1-0.2,0.1-0.2,0.2s0,0.1,0.1,0.1
					c0.1,0,0.2,0,0.2,0C46.7,36.1,46.8,36.1,47,36z"/>
				<path class="st2" d="M50.4,34.3c0.2,0.1,0.3,0.2,0.4,0.4c0.1,0.2,0.1,0.4,0.1,0.7c0,0.2-0.1,0.5-0.2,0.7
					c-0.1,0.2-0.2,0.3-0.4,0.4c-0.2,0.1-0.4,0.1-0.6,0.1c-0.2,0-0.4-0.1-0.6-0.2c-0.2-0.1-0.3-0.3-0.4-0.5c-0.1-0.3-0.2-0.6-0.2-0.9
					c0-0.3,0-0.7,0.1-1c0.1-0.2,0.2-0.4,0.4-0.5c0.2-0.1,0.4-0.2,0.6-0.2l0.5-0.1c0.2,0,0.4-0.1,0.6-0.2v0.6
					c-0.2,0.1-0.4,0.1-0.6,0.2l-0.5,0.1c-0.1,0-0.2,0.1-0.3,0.1c-0.1,0.1-0.2,0.2-0.2,0.3c-0.1,0.2-0.1,0.3-0.1,0.5
					c0.1-0.2,0.2-0.4,0.3-0.5c0.2-0.1,0.4-0.1,0.6-0.1C50.1,34.2,50.3,34.3,50.4,34.3z M50.2,35.9c0.1-0.1,0.2-0.3,0.2-0.5
					c0-0.2,0-0.4-0.2-0.5c-0.1-0.1-0.3-0.2-0.4-0.2c-0.2,0-0.3,0.1-0.4,0.2c-0.1,0.2-0.2,0.3-0.2,0.5c0,0.2,0,0.3,0.2,0.5
					c0.1,0.1,0.3,0.2,0.4,0.2C50,36.1,50.1,36.1,50.2,35.9z"/>
				<path class="st2" d="M53.4,34.2c0.2,0.1,0.3,0.2,0.4,0.4c0.1,0.2,0.2,0.5,0.2,0.7c0,0.2,0,0.5-0.2,0.7c-0.1,0.2-0.2,0.3-0.4,0.4
					c-0.4,0.2-0.8,0.2-1.1,0c-0.2-0.1-0.3-0.3-0.4-0.4c-0.1-0.2-0.2-0.5-0.2-0.7c0-0.3,0.1-0.5,0.2-0.7c0.1-0.2,0.2-0.3,0.4-0.4
					C52.6,34,53.1,34,53.4,34.2z M53.3,35.9c0.1-0.2,0.2-0.4,0.2-0.5c0-0.2,0-0.4-0.2-0.5c-0.1-0.1-0.3-0.2-0.4-0.2
					c-0.2,0-0.3,0.1-0.4,0.2c-0.1,0.2-0.2,0.4-0.2,0.6c0,0.2,0,0.4,0.2,0.5c0.1,0.1,0.3,0.2,0.4,0.2C53,36.1,53.2,36.1,53.3,35.9z"
					/>
				<path class="st2" d="M57.1,34.7h-0.9v1.9h-0.6v-1.9h-0.9v-0.6h2.4L57.1,34.7z"/>
				<path class="st2" d="M60,34.1v2.5h-0.6v-0.9c-0.2,0-0.4,0.1-0.6,0.1c-0.2,0-0.4-0.1-0.6-0.2c-0.1-0.1-0.2-0.3-0.2-0.5v-0.9h0.6
					v0.8c0,0.1,0,0.2,0.1,0.2c0.1,0,0.1,0.1,0.2,0.1c0.2,0,0.4,0,0.6-0.1v-1L60,34.1z"/>
				<path class="st2" d="M63.1,36.6h-0.6v-1.8l-0.9,1.8h-0.8v-2.5h0.6v1.8l0.9-1.8h0.8V36.6z"/>
				<path class="st2" d="M64.9,35.6h-0.3v1h-0.6v-2.5h0.6v0.9h0.3l0.7-0.9h0.6l-0.9,1.2l0.9,1.3h-0.7L64.9,35.6z"/>
				<path class="st2" d="M1.6,42.5c0.1,0.1,0.1,0.2,0.1,0.3c0,0.2-0.1,0.4-0.3,0.6c-0.2,0.2-0.5,0.3-0.9,0.2c-0.2,0-0.5,0-0.7-0.1
					c-0.2-0.1-0.4-0.2-0.5-0.4l0.4-0.3C0,42.9,0.1,43,0.2,43c0.1,0,0.3,0.1,0.4,0.1c0.1,0,0.3,0,0.4-0.1c0.1,0,0.1-0.1,0.1-0.2
					c0-0.1,0-0.1-0.1-0.2c-0.1,0-0.1-0.1-0.2-0.1H0.2v-0.5h0.5c0.1,0,0.2,0,0.2-0.1C1,42,1,41.9,1,41.8c0-0.2-0.1-0.2-0.4-0.2
					c-0.1,0-0.2,0-0.3,0.1c-0.1,0-0.2,0.1-0.3,0.2l-0.4-0.3c0.3-0.3,0.6-0.5,1.1-0.5c0.3,0,0.5,0.1,0.8,0.2c0.2,0.1,0.2,0.3,0.2,0.5
					c0,0.1,0,0.2-0.1,0.3c0,0.1-0.1,0.2-0.2,0.2C1.5,42.3,1.6,42.4,1.6,42.5z"/>
				<path class="st2" d="M4.3,43.6c0-0.1,0-0.3,0-0.6c-0.1,0.2-0.2,0.4-0.4,0.5c-0.2,0.1-0.4,0.2-0.6,0.2c-0.2,0-0.3,0-0.4-0.1
					c-0.1,0-0.2-0.1-0.3-0.2c-0.1-0.1-0.1-0.2-0.1-0.3c0-0.2,0.1-0.4,0.2-0.5c0.1-0.1,0.3-0.3,0.4-0.3c0.2-0.1,0.4-0.1,0.6-0.1
					c0.1,0,0.3,0,0.4,0c0-0.1,0-0.3-0.1-0.4c-0.1-0.1-0.2-0.1-0.4-0.1c-0.2,0-0.5,0.1-0.7,0.2l-0.4-0.4c0.2-0.1,0.3-0.2,0.5-0.3
					c0.2,0,0.4-0.1,0.5-0.1c0.3,0,0.6,0.1,0.8,0.3c0.2,0.3,0.3,0.6,0.3,1v0.2c0,0.4,0.1,0.8,0.2,1.1L4.3,43.6z M3.8,43
					c0.1-0.1,0.2-0.2,0.3-0.3l0,0c-0.1,0-0.2,0-0.4,0c-0.2,0-0.3,0-0.5,0.1c-0.1,0-0.2,0.1-0.2,0.2c0,0.1,0,0.1,0.1,0.1
					c0.1,0,0.2,0,0.2,0C3.5,43.1,3.7,43.1,3.8,43z"/>
				<path class="st2" d="M10.9,42.5c0,0.2,0,0.4-0.2,0.6c-0.1,0.2-0.2,0.3-0.4,0.4c-0.2,0.1-0.4,0.1-0.6,0.1c-0.2,0-0.5-0.1-0.7-0.2
					c-0.2-0.1-0.4-0.3-0.5-0.5L9,42.7c0.1,0.3,0.4,0.5,0.7,0.5c0.1,0,0.3,0,0.4-0.1c0.1-0.1,0.2-0.3,0.2-0.4c0-0.2,0-0.3-0.1-0.4
					C10,42.1,9.9,42,9.7,42c-0.2,0-0.4,0-0.5,0.1l-0.1-0.3l0.8-1.1H8.7v-0.6h2v0.3l-0.8,1c0.1,0,0.2,0,0.3,0.1
					c0.1,0,0.2,0.1,0.3,0.2C10.8,41.9,10.9,42.2,10.9,42.5z"/>
				<path class="st2" d="M17.1,43.6h-0.6v-1.8l-0.4,1h-0.4l-0.4-1v1.8h-0.6v-2.5h0.8l0.4,1.1l0.4-1.1h0.8V43.6z"/>
				<path class="st2" d="M20.2,42.6h-1.8c0,0.2,0.1,0.3,0.2,0.4c0.1,0.1,0.3,0.1,0.5,0.1c0.1,0,0.2,0,0.4-0.1c0.1,0,0.2-0.1,0.3-0.2
					l0.3,0.4c-0.1,0.1-0.3,0.2-0.4,0.3c-0.2,0.1-0.4,0.1-0.6,0.1c-0.2,0-0.4,0-0.7-0.1c-0.2-0.1-0.4-0.2-0.5-0.4
					c-0.1-0.2-0.2-0.5-0.2-0.7c0-0.3,0.1-0.5,0.2-0.7c0.1-0.2,0.2-0.3,0.4-0.4c0.2-0.1,0.4-0.1,0.6-0.1c0.3,0,0.6,0.1,0.9,0.3
					c0.2,0.3,0.3,0.6,0.3,1C20.2,42.5,20.2,42.5,20.2,42.6z M18.6,41.8c-0.1,0.1-0.2,0.2-0.2,0.4h1.2c0-0.1-0.1-0.3-0.2-0.3
					c-0.1-0.1-0.3-0.2-0.4-0.1C18.9,41.6,18.8,41.7,18.6,41.8z"/>
				<path class="st2" d="M23.3,43.1c-0.1,0.2-0.3,0.3-0.5,0.5c-0.2,0.1-0.4,0.2-0.6,0.2c-0.2,0-0.4-0.1-0.6-0.2
					c-0.2-0.1-0.4-0.2-0.5-0.4C21,42.9,21,42.6,21,42.4c0-0.3,0.1-0.5,0.2-0.7c0.1-0.2,0.2-0.3,0.4-0.4c0.2-0.1,0.4-0.1,0.6-0.1
					c0.2,0,0.4,0,0.6,0.1c0.2,0.1,0.3,0.2,0.5,0.4L22.8,42c-0.1-0.1-0.2-0.2-0.3-0.2c-0.1-0.1-0.2-0.1-0.3-0.1
					c-0.2,0-0.3,0.1-0.5,0.2c-0.1,0.2-0.2,0.4-0.2,0.6c0,0.2,0.1,0.4,0.2,0.5c0.1,0.1,0.3,0.2,0.5,0.2c0.1,0,0.2-0.1,0.3-0.2
					c0.1-0.1,0.2-0.2,0.3-0.3L23.3,43.1z"/>
				<path class="st2" d="M26.1,43.6h-0.6v-0.9h-0.4l-0.5,0.9h-0.7l0.6-0.9c-0.2-0.1-0.3-0.2-0.4-0.3C24,42.3,24,42.1,24,42
					c0-0.1,0-0.3,0.1-0.4c0.1-0.1,0.2-0.2,0.3-0.3c0.1-0.1,0.3-0.1,0.5-0.1h1.3V43.6z M25.5,42.2v-0.5h-0.6c-0.1,0-0.2,0-0.2,0.1
					c-0.1,0-0.1,0.1-0.1,0.2c0,0.1,0,0.1,0.1,0.2c0.1,0.1,0.1,0.1,0.2,0.1H25.5z"/>
				<path class="st2" d="M29.4,44.3h-0.5v-0.6H27v-2.5h0.6v1.9h0.9v-1.9h0.6v1.9h0.3V44.3z"/>
				<path class="st2" d="M31.9,43.6c0-0.1,0-0.3,0-0.6c-0.1,0.2-0.2,0.4-0.4,0.5c-0.2,0.1-0.4,0.2-0.6,0.2c-0.2,0-0.3,0-0.5-0.1
					c-0.1-0.1-0.2-0.1-0.3-0.2c-0.1-0.1-0.1-0.2-0.1-0.4c0-0.2,0-0.4,0.2-0.5c0.1-0.1,0.3-0.3,0.5-0.3c0.2-0.1,0.4-0.1,0.6-0.1
					c0.1,0,0.3,0,0.4,0c0-0.1,0-0.3-0.1-0.4c-0.1-0.1-0.2-0.1-0.3-0.1c-0.2,0-0.5,0.1-0.7,0.2l-0.3-0.4c0.2-0.1,0.3-0.2,0.5-0.3
					c0.2,0,0.4-0.1,0.5-0.1c0.3,0,0.6,0.1,0.8,0.3c0.2,0.3,0.3,0.6,0.3,1v0.2c0,0.4,0.1,0.8,0.2,1.1L31.9,43.6z M31.4,43
					c0.1-0.1,0.2-0.2,0.3-0.3l0,0c-0.1,0-0.2,0-0.4,0c-0.2,0-0.3,0-0.5,0.1c-0.1,0-0.2,0.1-0.2,0.2c0,0.1,0,0.1,0.1,0.1
					c0.1,0,0.2,0,0.2,0C31.1,43.1,31.3,43.1,31.4,43z"/>
				<path class="st2" d="M33.8,40.2c0.1,0.1,0.1,0.2,0.1,0.4c0,0.2,0,0.4-0.1,0.6c-0.1,0.2-0.3,0.4-0.5,0.5l-0.2-0.2
					c0.1-0.1,0.2-0.1,0.3-0.2c0.1-0.1,0.1-0.2,0.1-0.2l0,0c-0.1,0-0.2,0-0.3-0.1c-0.2-0.2-0.2-0.5,0-0.6c0.1-0.1,0.2-0.1,0.3-0.1
					C33.7,40.1,33.8,40.1,33.8,40.2z M34.9,40.2c0.1,0.1,0.1,0.2,0.1,0.4c0,0.2,0,0.4-0.1,0.6c-0.1,0.2-0.3,0.4-0.5,0.5l-0.2-0.2
					c0.1-0.1,0.2-0.1,0.3-0.2c0.1-0.1,0.1-0.2,0.1-0.3l0,0c-0.1,0-0.2,0-0.3-0.1c-0.2-0.2-0.2-0.5,0-0.6c0.1-0.1,0.2-0.1,0.3-0.1
					C34.8,40.1,34.9,40.1,34.9,40.2L34.9,40.2z"/>
				<path class="st2" d="M1.9,55.1c-0.1,0.5-0.2,0.9-0.2,1.4v0.8c0,0.4-0.1,0.7-0.3,1c-0.2,0.2-0.5,0.3-0.8,0.3
					c-0.2,0-0.4,0-0.5-0.1c-0.2,0-0.3-0.1-0.4-0.2l0.1-0.5C-0.1,57.9,0,58,0.2,58c0.1,0,0.3,0.1,0.4,0.1c0.2,0,0.3-0.1,0.4-0.2
					c0.1-0.2,0.2-0.3,0.1-0.5v-0.1c-0.2,0.2-0.4,0.3-0.6,0.3c-0.2,0-0.3-0.1-0.5-0.1c-0.2-0.1-0.3-0.2-0.4-0.4c-0.2-0.4-0.2-1,0-1.4
					c0.1-0.2,0.2-0.3,0.4-0.4c0.1-0.1,0.3-0.1,0.5-0.1c0.2,0,0.4,0.1,0.5,0.2c0.2,0.1,0.3,0.3,0.3,0.5c0-0.1,0-0.2,0-0.3v-0.3
					L1.9,55.1z M0.9,56.8c0.1-0.1,0.1-0.3,0.1-0.5c0-0.2,0-0.4-0.1-0.5c-0.1-0.1-0.2-0.2-0.4-0.2c-0.2,0-0.3,0.1-0.4,0.2
					C0,56,0,56.1,0,56.3c0,0.2,0,0.4,0.1,0.5C0.2,57,0.4,57,0.5,57C0.7,57,0.9,56.9,0.9,56.8z"/>
				<path class="st2" d="M4.4,55.2c0.2,0.1,0.3,0.2,0.4,0.4C5,55.9,5,56.1,5,56.4c0,0.2,0,0.5-0.2,0.7c-0.1,0.2-0.2,0.3-0.4,0.4
					c-0.4,0.2-0.8,0.2-1.1,0c-0.2-0.1-0.3-0.3-0.4-0.4c-0.1-0.2-0.2-0.5-0.2-0.7c0-0.3,0.1-0.5,0.2-0.7c0.1-0.2,0.2-0.3,0.4-0.4
					C3.7,55,4.1,55,4.4,55.2z M4.3,56.9c0.1-0.2,0.2-0.4,0.1-0.5c0-0.2,0-0.4-0.2-0.5c-0.1-0.1-0.3-0.2-0.4-0.2
					c-0.2,0-0.3,0.1-0.4,0.2c-0.1,0.2-0.2,0.4-0.1,0.6c0,0.2,0,0.4,0.2,0.5c0.1,0.1,0.3,0.2,0.4,0.2C4,57.1,4.2,57.1,4.3,56.9z"/>
				<path class="st2" d="M7.1,57.2c0.2,0.3,0.5,0.6,0.8,0.8l-0.3,0.4c-0.4-0.2-0.7-0.5-1-0.9c-0.3-0.5-0.4-1-0.4-1.5
					c0-0.5,0.1-1.1,0.4-1.5c0.3-0.4,0.6-0.7,1-0.9L7.9,54c-0.3,0.2-0.6,0.5-0.8,0.8C6.7,55.5,6.7,56.5,7.1,57.2L7.1,57.2z"/>
				<path class="st2" d="M10.7,56.4v1.2h-0.6v-1.1c0-0.2,0-0.4-0.1-0.7c0-0.1-0.1-0.1-0.1-0.2c-0.1,0-0.1,0-0.2,0
					c-0.2,0-0.4,0.1-0.4,0.3c-0.1,0.3-0.1,0.6-0.1,0.8v0.8H8.7v-3.5h0.6l-0.1,1.4c0.1-0.3,0.4-0.4,0.7-0.4c0.3,0,0.6,0.2,0.7,0.5
					C10.7,55.9,10.7,56.1,10.7,56.4z"/>
				<path class="st2" d="M14.1,57.5c-0.1,0.1-0.3,0.1-0.4,0.2c-0.2,0-0.3,0.1-0.5,0.1c-0.3,0-0.6-0.1-0.8-0.3
					c-0.2-0.2-0.3-0.5-0.3-0.8v-0.9h-0.6v-0.6h0.6c0.1-0.2,0.2-0.5,0.2-0.7h0.4v0.7H14v0.6h-1.2v0.9c0,0.4,0.2,0.5,0.5,0.5
					c0.1,0,0.3,0,0.4-0.1c0.1,0,0.2-0.1,0.4-0.2L14.1,57.5z"/>
				<path class="st2" d="M17.4,57.5c-0.1,0.1-0.3,0.1-0.4,0.2c-0.2,0-0.3,0.1-0.5,0.1c-0.3,0-0.6-0.1-0.8-0.3
					c-0.2-0.2-0.3-0.5-0.3-0.8v-0.9h-0.6v-0.6h0.6c0.1-0.2,0.2-0.5,0.2-0.7H16v0.7h1.2v0.6H16v0.9c0,0.4,0.2,0.5,0.5,0.5
					c0.1,0,0.3,0,0.4-0.1c0.1,0,0.2-0.1,0.4-0.2L17.4,57.5z"/>
				<path class="st2" d="M20.1,55.2c0.2,0.1,0.3,0.3,0.4,0.4c0.1,0.2,0.2,0.5,0.2,0.7c0,0.2,0,0.5-0.2,0.7c-0.1,0.2-0.2,0.3-0.4,0.4
					c-0.1,0.1-0.3,0.1-0.5,0.2c-0.2,0-0.5-0.1-0.6-0.3v1.2h-0.6v-2.1c0-0.5-0.1-0.9-0.2-1.4h0.6c0,0.1,0,0.3,0,0.5
					c0.1-0.2,0.2-0.3,0.3-0.4C19.4,55,19.8,55,20.1,55.2L20.1,55.2z M19.9,56.9c0.1-0.2,0.2-0.4,0.2-0.5c0-0.2,0-0.4-0.2-0.5
					c-0.1-0.1-0.2-0.2-0.4-0.2c-0.2,0-0.3,0.1-0.4,0.2C19,56,18.9,56.2,19,56.4c0,0.2,0,0.4,0.1,0.5c0.1,0.1,0.2,0.2,0.4,0.2
					C19.6,57.1,19.8,57.1,19.9,56.9z"/>
				<path class="st2" d="M21.9,55.2c0.1-0.1,0.2-0.1,0.3-0.1c0.1,0,0.2,0,0.3,0.1c0.1,0.1,0.1,0.2,0.1,0.3c0,0.1,0,0.2-0.1,0.3
					c-0.1,0.1-0.2,0.1-0.3,0.1c-0.1,0-0.2,0-0.3-0.1c-0.1-0.1-0.1-0.2-0.1-0.3C21.8,55.4,21.8,55.3,21.9,55.2z M21.9,56.9
					c0.1-0.1,0.2-0.1,0.3-0.1c0.1,0,0.2,0,0.3,0.1c0.1,0.1,0.1,0.2,0.1,0.3c0,0.1,0,0.2-0.1,0.3c-0.1,0.1-0.2,0.1-0.3,0.1
					c-0.1,0-0.2,0-0.3-0.1c-0.1-0.1-0.1-0.2-0.1-0.3C21.8,57.1,21.8,57,21.9,56.9z"/>
				<path class="st2" d="M26.2,53.9L24,58.3L23.5,58l2.2-4.4L26.2,53.9z"/>
				<path class="st2" d="M28.7,53.9l-2.2,4.4L26,58l2.2-4.4L28.7,53.9z"/>
				<path class="st2" d="M31.2,56.6h-1.8c0,0.2,0.1,0.3,0.2,0.4c0.1,0.1,0.3,0.1,0.5,0.1c0.1,0,0.2,0,0.4-0.1c0.1,0,0.2-0.1,0.3-0.2
					l0.3,0.4c-0.1,0.1-0.3,0.2-0.4,0.3c-0.2,0.1-0.4,0.1-0.5,0.1c-0.2,0-0.5,0-0.7-0.1c-0.2-0.1-0.4-0.3-0.5-0.4
					c-0.1-0.2-0.2-0.5-0.2-0.7c0-0.3,0-0.5,0.2-0.7c0.1-0.2,0.2-0.3,0.4-0.4c0.2-0.1,0.4-0.1,0.6-0.1c0.3,0,0.6,0.1,0.9,0.3
					c0.2,0.3,0.3,0.6,0.3,1C31.3,56.5,31.2,56.5,31.2,56.6z M29.7,55.8c-0.1,0.1-0.2,0.2-0.2,0.4h1.2c0-0.1-0.1-0.3-0.2-0.3
					c-0.1-0.1-0.3-0.2-0.4-0.1C29.9,55.6,29.8,55.7,29.7,55.8z"/>
				<path class="st2" d="M34.3,57.5c-0.1,0.1-0.2,0.1-0.4,0.2c-0.1,0-0.3,0.1-0.5,0.1c-0.3,0-0.5-0.1-0.7-0.3
					c-0.2-0.2-0.2-0.5-0.2-0.8v-1.9h-1v-0.6h1.6v2.4c0,0.2,0,0.3,0.1,0.5c0.1,0.1,0.2,0.2,0.3,0.2c0.2,0,0.5-0.1,0.7-0.2L34.3,57.5z
					"/>
				<path class="st2" d="M37,55.2c0.2,0.1,0.3,0.3,0.4,0.4c0.1,0.2,0.2,0.5,0.2,0.7c0,0.2-0.1,0.5-0.2,0.7c-0.1,0.2-0.2,0.3-0.4,0.4
					c-0.1,0.1-0.3,0.1-0.5,0.2c-0.4,0-0.7-0.2-0.8-0.5c0,0.3,0,0.4,0,0.5h-0.6c0.1-0.5,0.2-1,0.2-1.5v-2h0.6v1.3
					c0.2-0.2,0.4-0.3,0.7-0.3C36.7,55.1,36.8,55.2,37,55.2z M36.8,56.9c0.1-0.2,0.2-0.4,0.2-0.5c0-0.2,0-0.4-0.2-0.5
					c-0.1-0.1-0.2-0.2-0.4-0.2c-0.2,0-0.3,0.1-0.4,0.2c-0.1,0.2-0.1,0.3-0.1,0.5c0,0.2,0,0.4,0.1,0.5c0.1,0.1,0.2,0.2,0.4,0.2
					C36.5,57.1,36.7,57.1,36.8,56.9L36.8,56.9z"/>
				<path class="st2" d="M40.6,56.3H40c0-0.4-0.1-0.6-0.3-0.6s-0.3,0.1-0.4,0.3c-0.1,0.3-0.2,0.6-0.2,0.9v0.7h-0.6v-1.1
					c0-0.2,0-0.5-0.1-0.7c0-0.2-0.1-0.5-0.1-0.7H39c0,0.2,0.1,0.5,0.1,0.7c0.1-0.2,0.2-0.4,0.3-0.5c0.1-0.1,0.3-0.2,0.5-0.2
					c0.3,0,0.7,0.2,0.7,0.5C40.6,55.8,40.7,56.1,40.6,56.3z"/>
				<path class="st2" d="M43.2,57.6V57c-0.1,0.2-0.2,0.4-0.3,0.5c-0.1,0.1-0.3,0.2-0.5,0.2c-0.3,0-0.6-0.2-0.7-0.5
					c-0.1-0.3-0.1-0.6-0.1-0.8v-1.2h0.6v1.1c0,0.2,0,0.4,0.1,0.7c0,0.1,0.1,0.1,0.1,0.2c0,0,0.1,0.1,0.2,0.1c0.2,0,0.4-0.1,0.4-0.3
					c0.1-0.3,0.1-0.6,0.1-0.9v-0.8h0.6v1c0,0.5,0.1,1,0.2,1.5L43.2,57.6z"/>
				<path class="st2" d="M46.7,56.5c0.1,0.1,0.1,0.3,0.1,0.4c0,0.2-0.1,0.4-0.3,0.5c-0.2,0.1-0.5,0.2-0.7,0.2c-0.2,0-0.5,0-0.7-0.1
					c-0.2-0.1-0.4-0.2-0.5-0.4l0.4-0.4c0.2,0.2,0.5,0.3,0.8,0.3c0.1,0,0.2,0,0.3-0.1c0.1,0,0.1-0.1,0.1-0.2c0,0,0-0.1,0-0.1
					c0,0-0.1-0.1-0.2-0.1l-0.8-0.2c-0.4-0.1-0.6-0.3-0.6-0.7c0-0.2,0.1-0.4,0.3-0.6c0.2-0.1,0.5-0.2,0.8-0.2c0.2,0,0.4,0,0.6,0.1
					c0.2,0,0.3,0.1,0.4,0.3l-0.4,0.4c-0.1-0.1-0.2-0.1-0.3-0.2c-0.1,0-0.2,0-0.3,0c-0.3,0-0.4,0-0.4,0.2c0,0,0,0.1,0,0.1
					c0,0,0.1,0.1,0.2,0.1l0.8,0.2C46.4,56.3,46.6,56.4,46.7,56.5z"/>
				<path class="st2" d="M49.6,55.2c0.2,0.1,0.3,0.3,0.4,0.4c0.1,0.2,0.2,0.5,0.2,0.7c0,0.2,0,0.5-0.2,0.7c-0.1,0.2-0.2,0.3-0.4,0.4
					c-0.1,0.1-0.3,0.1-0.5,0.2c-0.4,0-0.7-0.2-0.8-0.5c0,0.3,0,0.4,0,0.5h-0.6c0.1-0.5,0.2-1,0.2-1.5v-2h0.6l0,1.3
					c0.2-0.2,0.4-0.3,0.7-0.3C49.3,55.1,49.5,55.2,49.6,55.2z M49.5,56.9c0.2-0.3,0.2-0.8,0-1.1c-0.1-0.1-0.3-0.2-0.4-0.2
					c-0.2,0-0.3,0.1-0.4,0.2c-0.1,0.2-0.2,0.3-0.1,0.5c0,0.2,0,0.4,0.1,0.5c0.1,0.1,0.2,0.2,0.4,0.2C49.2,57.1,49.4,57.1,49.5,56.9z
					"/>
				<path class="st2" d="M52.8,55.2c0.2,0.1,0.3,0.2,0.4,0.4c0.1,0.2,0.2,0.5,0.2,0.7c0,0.2,0,0.5-0.2,0.7c-0.1,0.2-0.3,0.3-0.4,0.4
					c-0.2,0.1-0.4,0.1-0.6,0.1c-0.2,0-0.4,0-0.6-0.1c-0.2-0.1-0.3-0.3-0.4-0.4c-0.1-0.2-0.2-0.5-0.2-0.7c0-0.3,0.1-0.5,0.2-0.7
					c0.1-0.2,0.2-0.3,0.4-0.4c0.2-0.1,0.4-0.1,0.6-0.1C52.4,55.1,52.6,55.1,52.8,55.2z M52.6,56.9c0.1-0.2,0.2-0.4,0.2-0.5
					c0-0.2,0-0.4-0.2-0.5c-0.1-0.1-0.3-0.2-0.4-0.2c-0.2,0-0.3,0.1-0.4,0.2c-0.1,0.2-0.2,0.4-0.2,0.6c0,0.2,0,0.4,0.2,0.5
					c0.1,0.1,0.3,0.2,0.4,0.2C52.4,57.1,52.5,57.1,52.6,56.9z"/>
				<path class="st2" d="M56,55.2c0.2,0.1,0.3,0.2,0.4,0.4c0.1,0.2,0.2,0.5,0.2,0.7c0,0.3-0.1,0.5-0.2,0.7c-0.1,0.2-0.2,0.3-0.4,0.4
					c-0.2,0.1-0.4,0.1-0.6,0.1c-0.2,0-0.4,0-0.6-0.1c-0.2-0.1-0.3-0.3-0.4-0.4c-0.1-0.2-0.2-0.5-0.2-0.7c0-0.3,0-0.5,0.2-0.7
					c0.1-0.2,0.3-0.3,0.4-0.4c0.2-0.1,0.4-0.1,0.6-0.1C55.6,55.1,55.8,55.1,56,55.2z M55.8,56.9c0.1-0.2,0.2-0.4,0.2-0.5
					c0-0.2,0-0.4-0.2-0.5c-0.2-0.2-0.6-0.2-0.8,0c0,0,0,0,0,0c-0.1,0.2-0.2,0.4-0.2,0.6c0,0.2,0,0.4,0.2,0.5
					c0.1,0.1,0.3,0.2,0.4,0.2C55.6,57.1,55.7,57.1,55.8,56.9L55.8,56.9z"/>
				<path class="st2" d="M59.8,57.5c-0.1,0.1-0.3,0.1-0.4,0.2c-0.2,0-0.3,0.1-0.5,0.1c-0.3,0-0.6-0.1-0.8-0.3
					c-0.2-0.2-0.3-0.5-0.3-0.8v-0.9h-0.6v-0.6H58c0.1-0.2,0.2-0.5,0.2-0.7h0.4v0.7h1.2v0.6h-1.3v0.9c0,0.4,0.2,0.5,0.5,0.5
					c0.1,0,0.3,0,0.4-0.1c0.1,0,0.2-0.1,0.4-0.2L59.8,57.5z"/>
				<path class="st2" d="M61.2,56.9c0.1-0.1,0.2-0.1,0.3-0.1c0.1,0,0.2,0,0.3,0.1c0.1,0.1,0.1,0.2,0.1,0.3c0,0.2-0.2,0.4-0.4,0.4
					c0,0,0,0,0,0c-0.1,0-0.2,0-0.3-0.1c-0.1-0.1-0.1-0.2-0.1-0.3C61.1,57.1,61.1,57,61.2,56.9z"/>
				<path class="st2" d="M65.4,57.1c-0.1,0.2-0.3,0.3-0.5,0.5c-0.2,0.1-0.4,0.2-0.6,0.2c-0.2,0-0.4-0.1-0.6-0.2
					c-0.2-0.1-0.4-0.2-0.5-0.4c-0.1-0.2-0.2-0.5-0.2-0.7c0-0.3,0.1-0.5,0.2-0.7c0.1-0.2,0.3-0.3,0.4-0.4c0.2-0.1,0.4-0.1,0.6-0.1
					c0.2,0,0.4,0,0.6,0.1c0.2,0.1,0.3,0.2,0.5,0.4L64.9,56c-0.1-0.1-0.2-0.2-0.3-0.2c-0.1-0.1-0.2-0.1-0.3-0.1
					c-0.2,0-0.3,0.1-0.4,0.2c-0.1,0.2-0.2,0.4-0.2,0.6c0,0.2,0.1,0.4,0.2,0.5c0.1,0.1,0.3,0.2,0.5,0.2c0.1,0,0.2,0,0.3-0.1
					c0.1-0.1,0.2-0.2,0.3-0.3L65.4,57.1z"/>
				<path class="st2" d="M68.1,57.6c0-0.1,0-0.3,0-0.6c-0.1,0.2-0.2,0.4-0.4,0.5c-0.2,0.1-0.4,0.2-0.6,0.2c-0.2,0-0.3,0-0.4-0.1
					c-0.1,0-0.2-0.1-0.3-0.2c-0.1-0.1-0.1-0.2-0.1-0.3c0-0.2,0.1-0.4,0.2-0.5c0.1-0.1,0.3-0.3,0.4-0.3c0.2-0.1,0.4-0.1,0.6-0.1
					c0.1,0,0.3,0,0.4,0c0-0.1,0-0.3-0.1-0.4c-0.1-0.1-0.2-0.1-0.4-0.1c-0.2,0-0.5,0.1-0.7,0.2l-0.4-0.4c0.2-0.1,0.3-0.2,0.5-0.3
					c0.2,0,0.4-0.1,0.5-0.1c0.3,0,0.6,0.1,0.8,0.3c0.2,0.3,0.3,0.6,0.3,1v0.2c0,0.4,0.1,0.8,0.2,1.1L68.1,57.6z M67.6,57
					c0.1-0.1,0.2-0.2,0.3-0.3l0,0c-0.1,0-0.2,0-0.4,0c-0.2,0-0.3,0-0.5,0.1c-0.1,0-0.2,0.1-0.2,0.2c0,0.1,0,0.1,0.1,0.1
					c0.1,0,0.2,0,0.2,0C67.4,57.1,67.5,57.1,67.6,57z"/>
				<path class="st2" d="M71.9,55.3c0.1,0.2,0.2,0.5,0.1,0.7v1.6h-0.6v-1.5c0-0.1,0-0.2,0-0.4c0-0.1-0.1-0.1-0.1-0.1
					c-0.1,0-0.2,0.1-0.2,0.2c0,0.3-0.1,0.5-0.1,0.8v1h-0.6v-1.6c0-0.1,0-0.2,0-0.4c0-0.1-0.1-0.1-0.1-0.1s-0.2,0.1-0.2,0.2
					c0,0.3-0.1,0.5-0.1,0.8v1h-0.6v-1.5c0-0.2,0-0.3-0.1-0.5c0-0.2-0.1-0.4-0.2-0.6h0.5c0,0.2,0,0.3,0,0.5c0-0.1,0.1-0.3,0.2-0.4
					c0.1-0.1,0.2-0.2,0.3-0.2c0.1,0,0.2,0,0.3,0.1c0.1,0.1,0.1,0.2,0.2,0.2c0.1-0.2,0.3-0.3,0.5-0.3C71.7,55.1,71.9,55.1,71.9,55.3z
					"/>
				<path class="st2" d="M74.8,55.2c0.2,0.1,0.3,0.3,0.4,0.4c0.1,0.2,0.2,0.5,0.2,0.7c0,0.2-0.1,0.5-0.2,0.7
					c-0.1,0.2-0.2,0.3-0.4,0.4c-0.1,0.1-0.3,0.1-0.5,0.2c-0.2,0-0.5-0.1-0.6-0.3v1.2h-0.6v-2.1c0-0.5-0.1-0.9-0.2-1.4h0.6
					c0,0.1,0,0.3,0,0.5c0.1-0.2,0.2-0.3,0.3-0.4c0.2-0.1,0.3-0.1,0.5-0.1C74.5,55.1,74.7,55.1,74.8,55.2z M74.6,56.9
					c0.2-0.3,0.2-0.8,0-1.1c-0.1-0.1-0.2-0.2-0.4-0.2c-0.2,0-0.3,0.1-0.4,0.2c-0.1,0.2-0.1,0.3-0.1,0.5c0,0.2,0,0.4,0.1,0.5
					c0.1,0.1,0.2,0.2,0.4,0.2C74.4,57.1,74.5,57.1,74.6,56.9z"/>
				<path class="st2" d="M77,54.5c0.3,0.5,0.4,1,0.4,1.5c0,0.5-0.1,1.1-0.4,1.5c-0.3,0.4-0.6,0.7-1,0.9L75.7,58
					c1.1-0.7,1.4-2.1,0.8-3.3c-0.2-0.3-0.5-0.6-0.8-0.8l0.3-0.3C76.4,53.8,76.8,54.1,77,54.5z"/>
				<path class="st2" d="M-10.8,62.7v0.5h-0.3c-0.1,0-0.1,0-0.2,0.1c0,0.1-0.1,0.1-0.1,0.2v1.1c0,0.3,0,0.5-0.2,0.7
					c-0.2,0.2-0.4,0.2-0.6,0.2h-0.5V65h0.4c0.1,0,0.2,0,0.2-0.1c0.1-0.1,0.1-0.2,0.1-0.3v-1c0-0.3,0.1-0.6,0.4-0.6
					c-0.3-0.1-0.5-0.3-0.4-0.6v-1c0-0.1,0-0.2-0.1-0.3c0-0.1-0.1-0.1-0.2-0.1h-0.4v-0.5h0.5c0.2,0,0.4,0.1,0.6,0.2
					c0.1,0.2,0.2,0.5,0.2,0.7v1.1c0,0.1,0,0.1,0.1,0.2c0.1,0,0.1,0.1,0.2,0.1L-10.8,62.7z"/>
			</g>
		</g>
	</g>
</g>
</svg>
