<?xml version="1.0" encoding="utf-8"?>
<!-- Generator: Adobe Illustrator 22.0.1, SVG Export Plug-In . SVG Version: 6.00 Build 0)  -->
<svg version="1.1" id="Layer_1" xmlns="http://www.w3.org/2000/svg" xmlns:xlink="http://www.w3.org/1999/xlink" x="0px" y="0px"
	 viewBox="0 0 87.8 76.7" style="enable-background:new 0 0 87.8 76.7;" xml:space="preserve">
<style type="text/css">
	.st0{fill:#65DBF8;}
	.st1{fill:#4520AB;}
</style>
<circle class="st0" cx="38.3" cy="38.3" r="38.3"/>
<g>
	<path class="st1" d="M82.4,15.7H27.7c-3,0-5.4,2.4-5.4,5.4v39.7c0,3,2.4,5.4,5.4,5.4h27.6c0.6,0,1-0.4,1-1s-0.4-1-1-1H27.7
		c-1.9,0-3.4-1.5-3.4-3.4V27.9h61.6v32.9c0,1.9-1.5,3.4-3.4,3.4h-1.5c-0.6,0-1,0.4-1,1s0.4,1,1,1h1.5c3,0,5.4-2.4,5.4-5.4V21.2
		C87.8,18.2,85.4,15.7,82.4,15.7z M24.2,25.9v-4.7c0-1.9,1.5-3.4,3.4-3.4h54.7c1.9,0,3.4,1.5,3.4,3.4v4.7H24.2z"/>
	<path class="st1" d="M80.4,19.2H48.5c-1.4,0-2.5,1.1-2.5,2.5s1.1,2.5,2.5,2.5h31.9c1.4,0,2.5-1.1,2.5-2.5S81.8,19.2,80.4,19.2z
		 M80.4,22.2H48.5c-0.3,0-0.5-0.2-0.5-0.5s0.2-0.5,0.5-0.5h31.9c0.3,0,0.5,0.2,0.5,0.5S80.7,22.2,80.4,22.2z"/>
	<path class="st1" d="M28.7,19.2c-1.4,0-2.6,1.2-2.6,2.6s1.2,2.6,2.6,2.6s2.6-1.2,2.6-2.6S30.1,19.2,28.7,19.2z M28.7,22.3
		c-0.3,0-0.6-0.3-0.6-0.6s0.3-0.6,0.6-0.6s0.6,0.3,0.6,0.6S29,22.3,28.7,22.3z"/>
	<path class="st1" d="M35.1,19.2c-1.4,0-2.6,1.2-2.6,2.6s1.2,2.6,2.6,2.6c1.4,0,2.6-1.2,2.6-2.6S36.5,19.2,35.1,19.2z M35.1,22.3
		c-0.3,0-0.6-0.3-0.6-0.6s0.3-0.6,0.6-0.6s0.6,0.3,0.6,0.6S35.4,22.3,35.1,22.3z"/>
	<path class="st1" d="M41.5,19.2c-1.4,0-2.6,1.2-2.6,2.6s1.2,2.6,2.6,2.6s2.6-1.2,2.6-2.6S42.9,19.2,41.5,19.2z M41.5,22.3
		c-0.3,0-0.6-0.3-0.6-0.6s0.3-0.6,0.6-0.6s0.6,0.3,0.6,0.6S41.8,22.3,41.5,22.3z"/>
	<path class="st1" d="M77.6,65.8C77.6,65.8,77.6,65.8,77.6,65.8l-1.5-1l0-0.7l1.4-1.2c0.5-0.5,0.7-1.2,0.4-1.9
		c0-0.1-0.2-0.5-0.3-0.8c-0.2-0.3-0.4-0.7-0.4-0.8c-0.3-0.6-1.1-0.9-1.8-0.8L73.5,59L73,58.5l0.1-1.9c0-0.7-0.3-1.5-1.1-1.7
		l-1.5-0.5c-0.8-0.3-1.5,0.2-1.9,0.7l-1,1.6l-0.7,0.1l-1.2-1.4c-0.5-0.5-1.2-0.7-1.9-0.4c0,0-0.5,0.2-0.8,0.4
		c-0.3,0.2-0.7,0.4-0.8,0.4c-0.6,0.4-0.9,1.1-0.8,1.7l0.4,1.8l-0.4,0.5l-1.8-0.1c-0.7,0-1.4,0.4-1.7,1.1l-0.5,1.5
		c-0.2,0.7,0.1,1.4,0.7,1.8l1.5,1l0,0.7l-1.4,1.2c-0.5,0.5-0.7,1.2-0.4,1.9c0,0.1,0.2,0.5,0.4,0.8c0.1,0.3,0.3,0.6,0.4,0.7
		c0.3,0.6,1.1,0.9,1.8,0.8l1.8-0.4l0.5,0.4l-0.1,1.8c0,0.7,0.4,1.5,1.1,1.7l1.5,0.5c0.2,0.1,0.3,0.1,0.5,0.1c0.5,0,1.1-0.3,1.4-0.8
		l1-1.5l0.7-0.1l1.2,1.4c0.4,0.5,1.2,0.7,1.9,0.4c0.1,0,0.5-0.2,0.8-0.4c0.3-0.2,0.7-0.4,0.8-0.4c0.6-0.4,0.9-1.1,0.8-1.7l-0.4-1.8
		l0.4-0.5l1.8,0.1c0.7,0,1.4-0.4,1.7-1.1l0.5-1.5C78.5,66.9,78.2,66.2,77.6,65.8z M76,68.2l-2.1-0.1c-0.3,0-0.6,0.1-0.9,0.4l-1,1.1
		c-0.2,0.2-0.3,0.6-0.3,0.9c0,0,0,0.1,0,0.1l0.4,2c-0.1,0.1-0.3,0.2-0.4,0.2c-0.2,0.1-0.3,0.2-0.5,0.2l-1.4-1.6
		c-0.2-0.2-0.6-0.3-0.9-0.3l-1.5,0.1c-0.3,0-0.6,0.2-0.9,0.5l-1.1,1.7l-0.9-0.3l0.1-2.1c0-0.3-0.2-0.6-0.4-0.9l-1.1-1
		c-0.2-0.2-0.6-0.3-1-0.3l-2,0.4c-0.1-0.1-0.2-0.3-0.2-0.4c-0.1-0.2-0.2-0.3-0.2-0.5l1.6-1.4c0.2-0.2,0.3-0.6,0.3-0.9l-0.1-1.5
		c0-0.3-0.2-0.7-0.5-0.9l-1.7-1.1l0.3-0.9l2.1,0.1c0.3,0,0.6-0.2,0.9-0.4l1-1.1c0.2-0.3,0.3-0.6,0.3-1l-0.4-2
		c0.1-0.1,0.3-0.2,0.4-0.2c0.1-0.1,0.3-0.1,0.4-0.2l1.3,1.5c0,0,0.1,0.1,0.1,0.1c0.2,0.1,0.5,0.3,0.8,0.3l1.5-0.1
		c0.3,0,0.6-0.2,0.9-0.5l1.2-1.7l0.9,0.3L71,58.9c0,0,0,0.1,0,0.1c0,0.3,0.2,0.6,0.4,0.8l1.1,1c0.3,0.3,0.6,0.3,0.9,0.3
		c0,0,0.1,0,0.1,0l2-0.4c0.1,0.1,0.2,0.3,0.2,0.4c0.1,0.1,0.1,0.3,0.2,0.4l-1.6,1.4c-0.2,0.2-0.3,0.5-0.3,0.9l0.1,1.5
		c0,0.3,0.2,0.7,0.5,0.9l1.7,1.1L76,68.2z"/>
	<path class="st1" d="M69.2,60.8c-1.1-0.4-2.3-0.3-3.3,0.2c-1,0.5-1.8,1.4-2.2,2.5c-0.4,1.1-0.3,2.3,0.2,3.3c0.5,1,1.4,1.8,2.5,2.2
		c0.5,0.2,0.9,0.2,1.4,0.2c0.7,0,1.3-0.2,1.9-0.5c0,0,0,0,0,0c1-0.5,1.8-1.4,2.2-2.5c0.4-1.1,0.3-2.3-0.2-3.3
		C71.3,62,70.4,61.2,69.2,60.8z M70.1,65.7c-0.2,0.6-0.6,1.1-1.2,1.4c-0.6,0.3-1.2,0.3-1.8,0.1C66.5,67,66,66.6,65.7,66
		c-0.3-0.6-0.3-1.2-0.1-1.8c0.2-0.6,0.6-1.1,1.2-1.4c0.3-0.2,0.7-0.2,1.1-0.2c0.3,0,0.5,0,0.8,0.1c0.6,0.2,1.1,0.6,1.4,1.2
		C70.3,64.5,70.3,65.1,70.1,65.7z"/>
	<path class="st1" d="M30,39.7c0.6,0,1-0.4,1-1v-6.4c0-0.6-0.4-1-1-1s-1,0.4-1,1v6.4C29,39.3,29.5,39.7,30,39.7z"/>
	<path class="st1" d="M56,32.3c0-0.6-0.4-1-1-1s-1,0.4-1,1v6.4c0,0.6,0.4,1,1,1s1-0.4,1-1V32.3z"/>
	<path class="st1" d="M51.5,32.3c0-0.6-0.4-1-1-1H34.6c-0.6,0-1,0.4-1,1v6.4c0,0.6,0.4,1,1,1h15.9c0.6,0,1-0.4,1-1V32.3z M49.5,37.7
		H35.6v-4.4h13.9V37.7z"/>
	<path class="st1" d="M56,42.5c0-0.6-0.4-1-1-1s-1,0.4-1,1v6.4c0,0.6,0.4,1,1,1s1-0.4,1-1V42.5z"/>
	<path class="st1" d="M50.5,41.5c-0.6,0-1,0.4-1,1v6.4c0,0.6,0.4,1,1,1s1-0.4,1-1v-6.4C51.5,41.9,51.1,41.5,50.5,41.5z"/>
	<path class="st1" d="M47,48.9v-6.4c0-0.6-0.4-1-1-1H30c-0.6,0-1,0.4-1,1v6.4c0,0.6,0.4,1,1,1H46C46.5,49.9,47,49.5,47,48.9z
		 M45,47.9H31v-4.4H45V47.9z"/>
	<path class="st1" d="M29,52.5V59c0,0.6,0.4,1,1,1s1-0.4,1-1v-6.4c0-0.6-0.4-1-1-1S29,52,29,52.5z"/>
	<path class="st1" d="M33.6,52.5V59c0,0.6,0.4,1,1,1s1-0.4,1-1v-6.4c0-0.6-0.4-1-1-1S33.6,52,33.6,52.5z"/>
	<path class="st1" d="M39.1,60H55c0.6,0,1-0.4,1-1v-6.4c0-0.6-0.4-1-1-1H39.1c-0.6,0-1,0.4-1,1V59C38.1,59.5,38.6,60,39.1,60z
		 M40.1,53.5H54V58H40.1V53.5z"/>
	<path class="st1" d="M59.5,39.7c0.6,0,1-0.4,1-1v-6.4c0-0.6-0.4-1-1-1s-1,0.4-1,1v6.4C58.5,39.3,59,39.7,59.5,39.7z"/>
	<path class="st1" d="M80,39.7c0.6,0,1-0.4,1-1v-6.4c0-0.6-0.4-1-1-1H64c-0.6,0-1,0.4-1,1v6.4c0,0.6,0.4,1,1,1H80z M65,33.3H79v4.4
		H65V33.3z"/>
	<path class="st1" d="M81,48.9v-6.4c0-0.6-0.4-1-1-1s-1,0.4-1,1v6.4c0,0.6,0.4,1,1,1S81,49.5,81,48.9z"/>
	<path class="st1" d="M58.5,48.9c0,0.6,0.4,1,1,1h15.9c0.6,0,1-0.4,1-1v-6.4c0-0.6-0.4-1-1-1H59.5c-0.6,0-1,0.4-1,1V48.9z
		 M60.5,43.5h13.9v4.4H60.5V43.5z"/>
</g>
</svg>
