<svg xmlns="http://www.w3.org/2000/svg" viewBox="0 0 26.61 15.7"><defs><style>.cls-1{fill:none;stroke:#ffbc5b;stroke-miterlimit:10;fill-rule:evenodd;}</style></defs><title>Ресурс 8</title><g id="Слой_2" data-name="Слой 2"><g id="Layer_1" data-name="Layer 1"><path class="cls-1" d="M21.3,15.2h-.12a5.16,5.16,0,0,1-2.93-2c-.43-.48-1.08-1.56-1.86-1.44-1.11.18-.56,2.07-1,2.88-.37.65-2,.54-3.06.42-3.46-.37-5.22-2.21-6.77-4.2A37.41,37.41,0,0,1,1.4,4.11,6.1,6.1,0,0,1,.5,1.47C1.06,1,2,1.17,2.9,1.17a7.47,7.47,0,0,1,2.58.12c.34.17.68,1.09,1,1.68a21.78,21.78,0,0,0,2,3.41c.34.48.85,1.38,1.44,1.27s.64-1.55.66-2.46a7.35,7.35,0,0,0-.3-2.88c-.28-.52-.8-.53-1.32-.84.44-.87,1.63-1,3.06-1,1.21,0,2.89-.13,3.36.66s.15,2.27.12,3.36S15.18,7,16,7.58c.65-.07,1-.7,1.38-1.2a16,16,0,0,0,2-3.41c.26-.57.54-1.56,1-1.74a10.32,10.32,0,0,1,2.93-.06c.87,0,2.42-.24,2.7.36s-.45,1.75-.66,2.1a34.35,34.35,0,0,1-2.46,3.29c-.34.46-1.06,1.19-1,1.92,0,.56.59,1,1,1.38a20,20,0,0,1,2.34,2.46c.29.36.9,1.15.84,1.62C25.92,15.76,22.47,14.85,21.3,15.2Z"/></g></g></svg>