<svg xmlns="http://www.w3.org/2000/svg" width="1487.3" height="499.8" viewBox="-670.4 151.1 1487.3 499.8"><circle fill="#00D8FF" cx="-389.5" cy="400.5" r="50.2"/><path fill="none" stroke="#00D8FF" stroke-width="24" stroke-miterlimit="10" d="M-389.5 298.5c67.4 0 129.9 9.7 177.1 25.9 56.8 19.6 91.8 49.2 91.8 76.1 0 28-37 59.5-98.1 79.7-46.2 15.3-106.9 23.3-170.8 23.3-65.6 0-127.6-7.5-174.3-23.4-59-20.2-94.6-52.1-94.6-79.6 0-26.6 33.4-56.1 89.4-75.6 47.4-16.5 111.5-26.4 179.5-26.4z"/><path fill="none" stroke="#00D8FF" stroke-width="24" stroke-miterlimit="10" d="M-478.3 349.8c33.6-58.3 73.3-107.7 110.9-140.5 45.4-39.5 88.5-54.9 111.8-41.5 24.2 14 33 61.8 20.1 124.8-9.8 47.6-33.2 104.2-65.2 159.6-32.7 56.8-70.2 106.8-107.4 139.3-47 41.1-92.4 55.9-116.2 42.2-23.1-13.3-31.9-56.9-20.8-115.2 9.4-49.3 32.9-109.8 66.8-168.7z"/><path fill="none" stroke="#00D8FF" stroke-width="24" stroke-miterlimit="10" d="M-478.2 452.4c-33.7-58.3-56.7-117.3-66.3-166.3-11.5-59-3.4-104.1 19.9-117.6 24.2-14 70.1 2.2 118.1 44.9 36.4 32.3 73.7 80.8 105.7 136.2 32.8 56.7 57.5 114.2 67 162.6 12.1 61.2 2.3 108-21.5 121.7-23.1 13.3-65.2-.8-110.2-39.5-37.9-32.6-78.6-83.2-112.7-142z"/><path d="M114.1 516.7l-59.7-93.6H7.1v93.6h-29.3V281h94.7c43.1 0 74.2 27.6 74.2 71 0 42.4-29.3 65.7-61.5 68.6l63.6 96.1h-34.7zm2.1-164.6c0-26.9-19.4-44.9-47.4-44.9H7.1v90.1h61.8c27.9 0 47.3-18.7 47.3-45.2zm55.2 79.1c0-49.5 35.3-89.4 84.1-89.4 51.6 0 82 40.3 82 91.5v6.7H199.6c2.1 32.2 24.4 59 61.1 59 19.8 0 39.2-7.8 53-21.9l12.7 17.3c-17.3 17-40.3 26.5-67.8 26.5-50.8.1-87.2-36.3-87.2-89.7zm83.7-67.5c-36.4 0-54.4 30.7-55.8 56.5h112c-.4-25-17.3-56.5-56.2-56.5zm231.8 153v-19.4c-13.8 15.5-33.6 23.7-56.5 23.7-28.6 0-59.4-19.4-59.4-56.5 0-38.5 30.4-56.2 59.4-56.2 23.3 0 42.8 7.4 56.5 23v-30.7c0-22.6-18.4-35.7-43.1-35.7-20.5 0-37.1 7.1-52.3 23.7l-12.4-18.4c18.4-19.1 40.3-28.3 68.2-28.3 36.4 0 66.1 16.3 66.1 57.6v117.3h-26.5zm0-36v-32.5c-10.2-13.8-28.3-20.8-46.6-20.8-25.1 0-42.4 15.5-42.4 37.1 0 21.9 17.3 37.5 42.4 37.5 18.3-.1 36.4-7.2 46.6-21.3zm70-49.5c0-50.5 34.3-89.4 85.2-89.4 31.1 0 49.5 12.7 62.5 29.7l-17.7 15.9c-11.3-15.5-25.8-21.9-43.5-21.9-36 0-59 27.9-59 65.7 0 37.8 23 66.1 59 66.1 17.7 0 32.2-7.1 43.5-22.3l17.7 16.3c-13.1 17-31.5 29.7-62.5 29.7-50.9 0-85.2-39.3-85.2-89.8zM747.3 481V369.4H719v-23.3h28.3v-46.6h26.9v46.6h34.6v23.3h-34.6v106c0 12.7 5.7 21.9 17 21.9 7.8 0 14.5-3.5 18-7.4L817 510c-6.7 6.4-16.3 11-31.5 11-25.4 0-38.2-14.5-38.2-40z" fill="#09D9FE"/></svg>